/* XPM */
static char * BlackRook_xpm[] = {
"60 60 31 1",
" 	c #FFFFFF",
".	c #000000",
"+	c #C0C0C0",
"@	c #E9E9E9",
"#	c #020202",
"$	c #363636",
"%	c #505050",
"&	c #3D3D3D",
"*	c #7C7C7C",
"=	c #B0B0B0",
"-	c #969696",
";	c #010101",
">	c #777777",
",	c #A8A8A8",
"'	c #909090",
")	c #333333",
"!	c #585858",
"~	c #404040",
"{	c #E7E7E7",
"]	c #141414",
"^	c #A4A4A4",
"/	c #AEAEAE",
"(	c #292929",
"_	c #101010",
":	c #9E9E9E",
"<	c #A3A3A3",
"[	c #232323",
"}	c #171717",
"|	c #575757",
"1	c #6D6D6D",
"2	c #959595",
"                                                            ",
"                                                            ",
"                                                            ",
"                                                            ",
"                                                            ",
"                                                            ",
"                                                            ",
"                                                            ",
"                                                            ",
"                                                            ",
"               .......     ........      ......             ",
"               .......     ........     .......             ",
"               .......    ..........    .......             ",
"               ................................             ",
"               ................................             ",
"               ................................             ",
"               ................................             ",
"               +                              @#            ",
"               $%%%%%%%%%%%%%%%%%%%%%%%%%%%%%%&             ",
"                ..............................              ",
"                  .*======================-;.               ",
"                   >,,,,,,,,,,,,,,,,,,,,,,'.                ",
"                   ........................                 ",
"                   ........................                 ",
"                   ........................                 ",
"                   ........................                 ",
"                   ........................                 ",
"                   ........................                 ",
"                   ........................                 ",
"                   ........................                 ",
"                   ........................                 ",
"                   ........................                 ",
"                   ........................                 ",
"                   ........................                 ",
"                   ........................                 ",
"                   ........................                 ",
"                   ........................                 ",
"                   )!!!!!!!!!!!!!!!!!!!!!!~                 ",
"                  .+                      {;                ",
"                  ..........................                ",
"                 ]^========================/(               ",
"                ._:,,,,,,,,,,,,,,,,,,,,,,,,<[.              ",
"                ..............................              ",
"                ..............................              ",
"                ..............................              ",
"                }|!!!!!!!!!!!!!!!!!!!!!!!!!!![              ",
"             ...1                            2....          ",
"            ......................................          ",
"            ......................................          ",
"            ......................................          ",
"            ......................................          ",
"             .....................................          ",
"                                                            ",
"                                                            ",
"                                                            ",
"                                                            ",
"                                                            ",
"                                                            ",
"                                                            ",
"                                                            "};
