/* XPM */
static char * BlackKing_xpm[] = {
"60 60 200 2",
"  	c #FFFFFF",
". 	c #000000",
"+ 	c #020202",
"@ 	c #545454",
"# 	c #8A8A8A",
"$ 	c #9C9C9C",
"% 	c #AFAFAF",
"& 	c #9F9F9F",
"* 	c #696969",
"= 	c #323232",
"- 	c #040404",
"; 	c #010101",
"> 	c #282828",
", 	c #616161",
"' 	c #9A9A9A",
") 	c #B1B1B1",
"! 	c #9E9E9E",
"~ 	c #8C8C8C",
"{ 	c #090909",
"] 	c #DADADA",
"^ 	c #EFEFEF",
"/ 	c #888888",
"( 	c #191919",
"_ 	c #070707",
": 	c #6A6A6A",
"< 	c #E1E1E1",
"[ 	c #EBEBEB",
"} 	c #828282",
"| 	c #131313",
"1 	c #939393",
"2 	c #DDDDDD",
"3 	c #7B7B7B",
"4 	c #626262",
"5 	c #4F4F4F",
"6 	c #686868",
"7 	c #D2D2D2",
"8 	c #F9F9F9",
"9 	c #9D9D9D",
"0 	c #161616",
"a 	c #6B6B6B",
"b 	c #E5E5E5",
"c 	c #A6A6A6",
"d 	c #707070",
"e 	c #787878",
"f 	c #C7C7C7",
"g 	c #DEDEDE",
"h 	c #1D1D1D",
"i 	c #636363",
"j 	c #F8F8F8",
"k 	c #5F5F5F",
"l 	c #030303",
"m 	c #343434",
"n 	c #A7A7A7",
"o 	c #FBFBFB",
"p 	c #E7E7E7",
"q 	c #424242",
"r 	c #121212",
"s 	c #B4B4B4",
"t 	c #CACACA",
"u 	c #515151",
"v 	c #393939",
"w 	c #CCCCCC",
"x 	c #D9D9D9",
"y 	c #2A2A2A",
"z 	c #212121",
"A 	c #C2C2C2",
"B 	c #FDFDFD",
"C 	c #E0E0E0",
"D 	c #4D4D4D",
"E 	c #111111",
"F 	c #D1D1D1",
"G 	c #CBCBCB",
"H 	c #7D7D7D",
"I 	c #A2A2A2",
"J 	c #7F7F7F",
"K 	c #FCFCFC",
"L 	c #909090",
"M 	c #232323",
"N 	c #ECECEC",
"O 	c #EAEAEA",
"P 	c #292929",
"Q 	c #BFBFBF",
"R 	c #505050",
"S 	c #F7F7F7",
"T 	c #101010",
"U 	c #D7D7D7",
"V 	c #BBBBBB",
"W 	c #050505",
"X 	c #A9A9A9",
"Y 	c #5A5A5A",
"Z 	c #0E0E0E",
"` 	c #727272",
" .	c #979797",
"..	c #676767",
"+.	c #E6E6E6",
"@.	c #1C1C1C",
"#.	c #848484",
"$.	c #CDCDCD",
"%.	c #313131",
"&.	c #C6C6C6",
"*.	c #B7B7B7",
"=.	c #3B3B3B",
"-.	c #272727",
";.	c #2D2D2D",
">.	c #FEFEFE",
",.	c #1A1A1A",
"'.	c #C1C1C1",
").	c #B0B0B0",
"!.	c #989898",
"~.	c #AEAEAE",
"{.	c #ACACAC",
"].	c #535353",
"^.	c #F2F2F2",
"/.	c #181818",
"(.	c #151515",
"_.	c #565656",
":.	c #E9E9E9",
"<.	c #2F2F2F",
"[.	c #333333",
"}.	c #A1A1A1",
"|.	c #EEEEEE",
"1.	c #595959",
"2.	c #222222",
"3.	c #0A0A0A",
"4.	c #6C6C6C",
"5.	c #F6F6F6",
"6.	c #737373",
"7.	c #878787",
"8.	c #CECECE",
"9.	c #D6D6D6",
"0.	c #BCBCBC",
"a.	c #9B9B9B",
"b.	c #141414",
"c.	c #D4D4D4",
"d.	c #F3F3F3",
"e.	c #959595",
"f.	c #B5B5B5",
"g.	c #F5F5F5",
"h.	c #DFDFDF",
"i.	c #ADADAD",
"j.	c #969696",
"k.	c #A5A5A5",
"l.	c #BEBEBE",
"m.	c #F0F0F0",
"n.	c #767676",
"o.	c #818181",
"p.	c #474747",
"q.	c #C8C8C8",
"r.	c #2B2B2B",
"s.	c #3C3C3C",
"t.	c #B2B2B2",
"u.	c #555555",
"v.	c #DCDCDC",
"w.	c #6E6E6E",
"x.	c #060606",
"y.	c #A3A3A3",
"z.	c #4E4E4E",
"A.	c #0C0C0C",
"B.	c #262626",
"C.	c #3F3F3F",
"D.	c #585858",
"E.	c #8B8B8B",
"F.	c #7A7A7A",
"G.	c #606060",
"H.	c #2E2E2E",
"I.	c #2C2C2C",
"J.	c #777777",
"K.	c #242424",
"L.	c #DBDBDB",
"M.	c #8F8F8F",
"N.	c #5D5D5D",
"O.	c #464646",
"P.	c #A0A0A0",
"Q.	c #B9B9B9",
"R.	c #D3D3D3",
"S.	c #575757",
"T.	c #BDBDBD",
"U.	c #1B1B1B",
"V.	c #E2E2E2",
"W.	c #525252",
"X.	c #EDEDED",
"Y.	c #656565",
"Z.	c #999999",
"`.	c #202020",
" +	c #373737",
".+	c #646464",
"++	c #7E7E7E",
"@+	c #E3E3E3",
"#+	c #B8B8B8",
"$+	c #868686",
"%+	c #4B4B4B",
"&+	c #C3C3C3",
"*+	c #7C7C7C",
"=+	c #1F1F1F",
"-+	c #838383",
";+	c #1E1E1E",
">+	c #484848",
",+	c #949494",
"'+	c #C0C0C0",
")+	c #303030",
"                                                                                                                        ",
"                                                                                                                        ",
"                                                                                                                        ",
"                                                                                                                        ",
"                                                                                                                        ",
"                                                                                                                        ",
"                                                                                                                        ",
"                                                          . .                                                           ",
"                                                          . .                                                           ",
"                                                      . . . . . . .                                                     ",
"                                                    . . . . . . . . .                                                   ",
"                                                          . .                                                           ",
"                                                          . .                                                           ",
"                                                          . .                                                           ",
"                                                          . .                                                           ",
"                                                        . . . . .                                                       ",
"                                                      . . . . . . .                                                     ",
"                                                    . . . . . . . . .                                                   ",
"                                                  . . . . . . . . . .                                                   ",
"                                                  . . . . . . . . . . .                                                 ",
"                          . . . . . . .           . . . . . . . . . . .       . . . . . . . .                           ",
"                      . + @ # $ % & * = - . .     . . . . . . . . . . .   . . ; > , ' ) ! ~ , { .                       ",
"                    ; , ]               ^ / ( .   . . . . . . . . . . . . _ : <               [ } |                     ",
"                  . 1     2 3 4 5 6 $ 7     8 9 0 . . . . . . . . . . ; a b     < c d 5 4 e f     g h                   ",
"                  i   j k l . . . . . . m n o   p q . . . . . . . . r s     t u ; . . . . . . v w   x (                 ",
"                y 8   k . . . . . . . . . . z A   B } ; . . . . . = C   [ D . . . . . . . . . . E F   G .               ",
"                H   I . . . . . . . . . . . . l J K   L . . . . M N   f h . . . . . . . . . . . . 0 O   P               ",
"              . Q   R . . . . . . . . . . . . . . q S   e . . T U   V W . . . . . . . . . . . . . . X   4               ",
"              . j   | . . . . . . . . . . . . . . . 5 K   Y ; V   F Z . . . . . . . . . . . . . . . `    .              ",
"              . N   | . . . . . . . . . . . . . . . . 6   O ..  +.@.. . . . . . . . . . . . . . . . #.  #.              ",
"              . $.  %.. . . . . . . . . . . . . . . . . &.  B   4 . . . . . . . . . . . . . . . . . *.  @               ",
"              . $   L . . . . . . . . . . . . . . . . . =.    U l . . . . . . . . . . . . . . . . -.o K @.              ",
"                ;.>.S ,.. . . . . . . . . . . . . . . . . '.  i . . . . . . . . . . . . . . . . . ).  !..               ",
"                . ~.  &._ . . . . . . . . . . . . . . . . {.  ].. . . . . . . . . . . . . . . . H   ^./.                ",
"                  (.g   *.E . . . . . . . . . . . . . . . X   _.. . . . . . . . . . . . . . . a   B @                   ",
"                    ;.:.  2 <.. . . . . . . . . . l ,.[.D }.|.1.2.{ . . . . . . . . . . . 3.&     4..                   ",
"                      @.f   5.6._ . . _ q 7.s 8.p B                 ^ 9.0.a.1.b.. . . . P c.  d.Y .                     ",
"                        _ e.    c.u f.g.          j h.&.i.j.k.l.U m.          >.w n.h o.g.  7 >                         ",
"                          . p.< 8     B q.o.p.r.r . . . . . . . . . 3.M s.a t.d.    B     ' 3.                          ",
"                            u.    v.w.| . . . . . . . . . . . . . . . . . . . x.D 0.    y..                             ",
"                              ` z.+ . . . . A.B.C.D.` E.k.V {.1 F.G.p.H.b.; . . . . I.J.<.                              ",
"                              . . . E @ ' h.                              ^.) a K.. . . .                               ",
"                              . = }.8       g.L.A X M.n.N.O.u.w.7.P.Q.R.N         &.S.- .                               ",
"                              T.    o Q e %.; . . . . . . . . . . . . . . U.4 X ^     V.W.                              ",
"                              >.X./ h . . . . . . . . . ; | x.. . . . . . . . . { Y.R.  Z.                              ",
"                              `.{ . . . l  +.+++ .).t @+o   >.[ 7 #+& $+4.%+Z . . . . 2.{                               ",
"                              . . 3.4 {.|.              >.|.o               o &+*+z . . .                               ",
"                              =+# |.      x & -+: u  +;+x.. ; 0 <.>+, 3 ,+&+o     B % C..                               ",
"                              5.    '+..`.. . . . . . . . . . . . . . . . . Z u P.S     E.                              ",
"                              8.& )+. . . . . . . . . . . . . . . . . . . . . . . (.*+G !                               ",
"                                  . . . . . . . . . . . . . . . . . . . . . . . . . .                                   ",
"                                      . . . . . . . . . . . . . . . . . . . . . .                                       ",
"                                            . . . . . . . . . . . . . . .                                               ",
"                                                                                                                        ",
"                                                                                                                        ",
"                                                                                                                        ",
"                                                                                                                        ",
"                                                                                                                        ",
"                                                                                                                        ",
"                                                                                                                        "};
