/* XPM */
static char * BlackBishop_xpm[] = {
"60 60 49 1",
" 	c #FFFFFF",
".	c #000000",
"+	c #898989",
"@	c #B7B7B7",
"#	c #020202",
"$	c #DFDFDF",
"%	c #1F1F1F",
"&	c #E0E0E0",
"*	c #202020",
"=	c #010101",
"-	c #757575",
";	c #A0A0A0",
">	c #F4F4F4",
",	c #ACACAC",
"'	c #959595",
")	c #0E0E0E",
"!	c #131313",
"~	c #FCFCFC",
"{	c #535353",
"]	c #3C3C3C",
"^	c #606060",
"/	c #ECECEC",
"(	c #747474",
"_	c #4B4B4B",
":	c #DADADA",
"<	c #1E1E1E",
"[	c #515151",
"}	c #7B7B7B",
"|	c #3A3A3A",
"1	c #E9E9E9",
"2	c #F8F8F8",
"3	c #F6F6F6",
"4	c #737373",
"5	c #424242",
"6	c #FEFEFE",
"7	c #777777",
"8	c #040404",
"9	c #080808",
"0	c #060606",
"a	c #5C5C5C",
"b	c #A6A6A6",
"c	c #A8A8A8",
"d	c #767676",
"e	c #B9B9B9",
"f	c #F7F7F7",
"g	c #171717",
"h	c #575757",
"i	c #585858",
"j	c #262626",
"                                                            ",
"                                                            ",
"                                                            ",
"                                                            ",
"                                                            ",
"                                                            ",
"                                                            ",
"                            ....                            ",
"                           ......                           ",
"                          ........                          ",
"                          ........                          ",
"                          ........                          ",
"                          ........                          ",
"                           .......                          ",
"                           ......                           ",
"                          .........                         ",
"                        ............                        ",
"                       ..............                       ",
"                      .................                     ",
"                     ...................                    ",
"                    .........+@#........                    ",
"                   ..........$ %.........                   ",
"                   ..........& *..........                  ",
"                  .......=-;;> ,;').......                  ",
"                  .......!~       {.......                  ",
"                  ........]^^/ (^_#........                 ",
"                  ...........& *...........                 ",
"                  ...........: <...........                 ",
"                  ...........[}=...........                 ",
"                  .........................                 ",
"                  ........................                  ",
"                  ........................                  ",
"                   .......................                  ",
"                    .....................                   ",
"                    ..|122222222222234..                    ",
"                     .5~            67.                     ",
"                     ..89999999999990...                    ",
"                    ....................                    ",
"                    .....................                   ",
"                   abcccccccccccccccccccd                   ",
"                   e                    f                   ",
"                   ghiiiiiiiiiiiiiiiiiiij                   ",
"                   ......................                   ",
"                   ......................                   ",
"                     ...................                    ",
"                       ..............                       ",
"                        .............                       ",
"           ......................................           ",
"         .........................................          ",
"        ............................................        ",
"       ..............................................       ",
"       ......................  ......................       ",
"         ....                                  .....        ",
"                                                            ",
"                                                            ",
"                                                            ",
"                                                            ",
"                                                            ",
"                                                            ",
"                                                            "};
