/* XPM */
static char * BlackKnight_xpm[] = {
"60 60 103 2",
"  	c None",
". 	c #FFFFFF",
"+ 	c #000000",
"@ 	c #6A6A6A",
"# 	c #9E9E9E",
"$ 	c #565656",
"% 	c #111111",
"& 	c #CECECE",
"* 	c #FCFCFC",
"= 	c #BFBFBF",
"- 	c #3D3D3D",
"; 	c #454545",
"> 	c #A5A5A5",
", 	c #F8F8F8",
"' 	c #ACACAC",
") 	c #232323",
"! 	c #121212",
"~ 	c #737373",
"{ 	c #EFEFEF",
"] 	c #545454",
"^ 	c #6B6B6B",
"/ 	c #939393",
"( 	c #010101",
"_ 	c #171717",
": 	c #A4A4A4",
"< 	c #626262",
"[ 	c #929292",
"} 	c #202020",
"| 	c #575757",
"1 	c #FBFBFB",
"2 	c #FEFEFE",
"3 	c #717171",
"4 	c #555555",
"5 	c #F4F4F4",
"6 	c #030303",
"7 	c #484848",
"8 	c #B7B7B7",
"9 	c #5B5B5B",
"0 	c #E3E3E3",
"a 	c #0F0F0F",
"b 	c #B9B9B9",
"c 	c #D3D3D3",
"d 	c #1C1C1C",
"e 	c #9F9F9F",
"f 	c #9D9D9D",
"g 	c #4B4B4B",
"h 	c #959595",
"i 	c #E8E8E8",
"j 	c #C9C9C9",
"k 	c #333333",
"l 	c #9C9C9C",
"m 	c #040404",
"n 	c #E6E6E6",
"o 	c #F5F5F5",
"p 	c #101010",
"q 	c #838383",
"r 	c #6E6E6E",
"s 	c #1D1D1D",
"t 	c #C0C0C0",
"u 	c #C7C7C7",
"v 	c #F6F6F6",
"w 	c #060606",
"x 	c #909090",
"y 	c #393939",
"z 	c #0D0D0D",
"A 	c #090909",
"B 	c #595959",
"C 	c #757575",
"D 	c #515151",
"E 	c #EEEEEE",
"F 	c #222222",
"G 	c #B2B2B2",
"H 	c #808080",
"I 	c #404040",
"J 	c #EAEAEA",
"K 	c #EDEDED",
"L 	c #242424",
"M 	c #989898",
"N 	c #B3B3B3",
"O 	c #8D8D8D",
"P 	c #3E3E3E",
"Q 	c #787878",
"R 	c #585858",
"S 	c #646464",
"T 	c #727272",
"U 	c #4F4F4F",
"V 	c #8C8C8C",
"W 	c #3A3A3A",
"X 	c #252525",
"Y 	c #D9D9D9",
"Z 	c #E7E7E7",
"` 	c #070707",
" .	c #E5E5E5",
"..	c #0B0B0B",
"+.	c #0E0E0E",
"@.	c #E4E4E4",
"#.	c #151515",
"$.	c #E2E2E2",
"%.	c #191919",
"&.	c #E1E1E1",
"*.	c #E0E0E0",
"=.	c #282828",
"-.	c #D7D7D7",
". . . . . . . . . . . . . . . . . . . . . . . . . . . . . . . . . . . . . . . . . . . . . . . . . . . . . . . . . . . . ",
". . . . . . . . . . . . . . . . . . . . . . . . . . . . . . . . . . . . . . . . . . . . . . . . . . . . . . . . . . . . ",
". . . . . . . . . . . . . . . . . . . . . . . . . . . . . . . . . . . . . . . . . . . . . . . . . . . . . . . . . . . . ",
". . . . . . . . . . . . . . . . . . . . . . . . . . . . . . . . . . . . . . . . . . . . . . . . . . . . . . . . . . . . ",
". . . . . . . . . . . . . . . . . . . . . . . . . . . . . . . . . . . . . . . . . . . . . . . . . . . . . . . . . . . . ",
". . . . . . . . . . . . . . . . . . . . . . . . . . . . . . . . . . . . . . . . . . . . . . . . . . . . . . . . . . . . ",
". . . . . . . . . . . . . . . . . . . . . . . . . . . . . . . . . . . . . . . . . . . . . . . . . . . . . . . . . . . . ",
". . . . . . . . . . . . . . . . . . . . . . . . . . . . . . . . . . . . . . . . . . . . . . . . . . . . . . . . . . . . ",
". . . . . . . . . . . . . . . . . . . + + . . . . . . . + + . . . . . . . . . . . . . . . . . . . . . . . . . . . . . . ",
". . . . . . . . . . . . . . . . . . + + + + . . . . . + + + + . . . . . . . . . . . . . . . . . . . . . . . . . . . . . ",
". . . . . . . . . . . . . . . . . . + + + + + . . . + + + + + . . . . . . . . . . . . . . . . . . . . . . . . . . . . . ",
". . . . . . . . . . . . . . . . . . + + + + + . . + + + + + + . . . . . . . . . . . . . . . . . . . . . . . . . . . . . ",
". . . . . . . . . . . . . . . . . . + + + + + + + + + + + + + + + + + . . . . . . . . . . . . . . . . . . . . . . . . . ",
". . . . . . . . . . . . . . . . . . + + + + + + + + + + + + + + + @ # $ % + . . . . . . . . . . . . . . . . . . . . . . ",
". . . . . . . . . . . . . . . . . . + + + + + + + + + + + + + + + & . . * = - + . . . . . . . . . . . . . . . . . . . . ",
". . . . . . . . . . . . . . . . . . + + + + + + + + + + + + + + + ; > , . . . ' ) . . . . . . . . . . . . . . . . . . . ",
". . . . . . . . . . . . . . . . . + + + + + + + + + + + + + + + + + + ! ~ { . . , ] + . . . . . . . . . . . . . . . . . ",
". . . . . . . . . . . . . . . . + + + + ^ / ( + + + + + + + + + + + + + + _ : . . * < + . . . . . . . . . . . . . . . . ",
". . . . . . . . . . . . . . . + + + ( [ . . } + + + + + + + + + + + + + + + + | 1 . 2 3 + . . . . . . . . . . . . . . . ",
". . . . . . . . . . . . . . . + + + 4 . . 5 6 + + + + + + + + + + + + + + + + + | * . . 7 + . . . . . . . . . . . . . . ",
". . . . . . . . . . . . . . + + + + / . . 8 + + + + + + + + + + + + + + + + + + + 9 . . 0 a . . . . . . . . . . . . . . ",
". . . . . . . . . . . . . . + + + + b . c d + + + + + + + + + + + + + + + + + + + + e . . f + . . . . . . . . . . . . . ",
". . . . . . . . . . . . . + + + + + g h a + + + + + + + + + + + + + + + + + + + + + % i . . 7 + . . . . . . . . . . . . ",
". . . . . . . . . . . . . + + + + + + + + + + + + + + + + + + + + + + + + + + + + + + 4 . . j + . . . . . . . . . . . . ",
". . . . . . . . . . . . + + + + + + + + + + + + + + + + + + + + + + + + + + + + + + + + = . . k + . . . . . . . . . . . ",
". . . . . . . . . . . + + + + + + + + + + + + + + + + + + + + + + + + + + + + + + + + + ] . . l + . . . . . . . . . . . ",
". . . . . . . . . . . + + + + + + + + + + + + + + + + + + + + + + + + + + + + + + + + + m n . o p + . . . . . . . . . . ",
". . . . . . . . . . + + + + + + + + + + + + + + + + + + + + + + + + + + + + + + + + + + + q . . r + . . . . . . . . . . ",
". . . . . . . . . . + + + + + + + + + + + + + + + + + + + + + + + + + + + + + + + + + + + s * . t + . . . . . . . . . . ",
". . . . . . . . . + + + + + + + + + + + + + + + + + + + + + + + + + + + + + + + + + + + + + u . v w . . . . . . . . . . ",
". . . . . . . . . + + + + + + + + + + + + + + + + + + + + +   + + + + + + + + + + + + + + + x . . y + . . . . . . . . . ",
". . . . . . . . . + + + z A + + + + + + + + + + + + + + + . + + + + + + + + + + + + + + + + B . . C + . . . . . . . . . ",
". . . . . . . . + + + D 2 E } + + + + + + + + + + + + . . . + + + + + + + + + + + + + + + + F . . G + . . . . . . . . . ",
". . . . . . . . + + + H . . I + + + + + + + + + + + . . . . + + + + + + + + + + + + + + + + + J . K ( . . . . . . . . . ",
". . . . . . . . + + + L ' M A + + + + + + + + + + . . . . . + + + + + + + + + + + + + + + + + N . . ) + . . . . . . . . ",
". . . . . . . . + + + + + + + + + + + + + + + + . . . . . + + + + + + + + + + + + + + + + + + O . . P + . . . . . . . . ",
". . . . . . . . + + + + + + + + + + + + + + . . . . . . . + + + + + + + + + + + + + + + + + + Q . . R + . . . . . . . . ",
". . . . . . . . + + + + + + + + + + + + + . . . . . . . + + + + + + + + + + + + + + + + + + + S . . T + . . . . . . . . ",
". . . . . . . . . + + + + + + + + + + + . . . . . . . + + + + + + + + + + + + + + + + + + + + U . . V + . . . . . . . . ",
". . . . . . . . . . + + + + + + + + + . . . . . . . + + + + + + + + + + + + + + + + + + + + + W . . > + . . . . . . . . ",
". . . . . . . . . . . . . . + + + + + . . . . . . + + + + + + + + + + + + + + + + + + + + + + X . . = + . . . . . . . . ",
". . . . . . . . . . . . . . . . + . . . . . . . + + + + + + + + + + + + + + + + + + + + + + + p . . Y + . . . . . . . . ",
". . . . . . . . . . . . . . . . . . . . . . . . + + + + + + + + + + + + + + + + + + + + + + + ( . . Z + . . . . . . . . ",
". . . . . . . . . . . . . . . . . . . . . . . + + + + + + + + + + + + + + + + + + + + + + + + m . . n + . . . . . . . . ",
". . . . . . . . . . . . . . . . . . . . . . + + + + + + + + + + + + + + + + + + + + + + + + + ` . .  .+ . . . . . . . . ",
". . . . . . . . . . . . . . . . . . . . . + + + + + + + + + + + + + + + + + + + + + + + + + + ... .  .+ . . . . . . . . ",
". . . . . . . . . . . . . . . . . . . . . + + + + + + + + + + + + + + + + + + + + + + + + + + +.. . @.+ . . . . . . . . ",
". . . . . . . . . . . . . . . . . . . . + + + + + + + + + + + + + + + + + + + + + + + + + + + ! . . 0 + . . . . . . . . ",
". . . . . . . . . . . . . . . . . . . . + + + + + + + + + + + + + + + + + + + + + + + + + + + #.. . $.+ . . . . . . . . ",
". . . . . . . . . . . . . . . . . . . . + + + + + + + + + + + + + + + + + + + + + + + + + + + %.. . &.+ + . . . . . . . ",
". . . . . . . . . . . . . . . . . . . . + + + + + + + + + + + + + + + + + + + + + + + + + + + s . . *.+ + . . . . . . . ",
". . . . . . . . . . . . . . . . . . . . + + + + + + + + + + + + + + + + + + + + + + + + + + + =.. . -.+ . . . . . . . . ",
". . . . . . . . . . . . . . . . . . . . . . . . . . . . . . . . . . . . . . . . . . . . . . . . . . . . . . . . . . . . ",
". . . . . . . . . . . . . . . . . . . . . . . . . . . . . . . . . . . . . . . . . . . . . . . . . . . . . . . . . . . . ",
". . . . . . . . . . . . . . . . . . . . . . . . . . . . . . . . . . . . . . . . . . . . . . . . . . . . . . . . . . . . ",
". . . . . . . . . . . . . . . . . . . . . . . . . . . . . . . . . . . . . . . . . . . . . . . . . . . . . . . . . . . . ",
". . . . . . . . . . . . . . . . . . . . . . . . . . . . . . . . . . . . . . . . . . . . . . . . . . . . . . . . . . . . ",
". . . . . . . . . . . . . . . . . . . . . . . . . . . . . . . . . . . . . . . . . . . . . . . . . . . . . . . . . . . . ",
". . . . . . . . . . . . . . . . . . . . . . . . . . . . . . . . . . . . . . . . . . . . . . . . . . . . . . . . . . . . ",
". . . . . . . . . . . . . . . . . . . . . . . . . . . . . . . . . . . . . . . . . . . . . . . . . . . . . . . . . . . . "};
