/* XPM */
static char * WhiteRook_xpm[] = {
"60 60 44 1",
" 	c #FFFFFF",
".	c #000000",
"+	c #3F3F3F",
"@	c #171717",
"#	c #676767",
"$	c #E7E7E7",
"%	c #272727",
"&	c #4F4F4F",
"*	c #777777",
"=	c #070707",
"-	c #EFEFEF",
";	c #D7D7D7",
">	c #595959",
",	c #575757",
"'	c #5F5F5F",
")	c #EAEAEA",
"!	c #F7F7F7",
"~	c #6D6D6D",
"{	c #B9B9B9",
"]	c #A7A7A7",
"^	c #414141",
"/	c #0A0A0A",
"(	c #4B4B4B",
"_	c #525252",
":	c #131313",
"<	c #1C1C1C",
"[	c #DBDBDB",
"}	c #F0F0F0",
"|	c #373737",
"1	c #A3A3A3",
"2	c #0E0E0E",
"3	c #585858",
"4	c #464646",
"5	c #1B1B1B",
"6	c #424242",
"7	c #B0B0B0",
"8	c #5C5C5C",
"9	c #020202",
"0	c #CBCBCB",
"a	c #323232",
"b	c #4C4C4C",
"c	c #010101",
"d	c #1E1E1E",
"e	c #030303",
"                                                            ",
"                                                            ",
"                                                            ",
"                                                            ",
"                                                            ",
"                                                            ",
"                                                            ",
"                                                            ",
"                                                            ",
"                                                            ",
"               .......     ........      ......             ",
"               .......     ........     .......             ",
"               .+   @.    ..+    #..    ..$  #.             ",
"               .+   %.......&    *.......=-  #.             ",
"               .+   ;>,,,,,')    !~,,,,,,{   #.             ",
"               .+                            #.             ",
"               .%]]]]]]]]]]]]]]]]]]]]]]]]]]]]^.             ",
"               .................................            ",
"               ../(,,,,,,,,,,,,,,,,,,,,,,,,_:..             ",
"                ..<[                      }|..              ",
"                 ..<1]]]]]]]]]]]]]]]]]]]]]|..               ",
"                  .2^333333333333333333334@.                ",
"                   .+                    #.                 ",
"                   .+                    #.                 ",
"                   .+                    #.                 ",
"                   .+                    #.                 ",
"                   .+                    #.                 ",
"                   .+                    #.                 ",
"                   .+                    #.                 ",
"                   .+                    #.                 ",
"                   .+                    #.                 ",
"                   .+                    #.                 ",
"                   .+                    #.                 ",
"                   .+                    #.                 ",
"                   .+                    #.                 ",
"                   .+                    #.                 ",
"                   .+                    #.                 ",
"                   .2&&&&&&&&&&&&&&&&&&&&5.                 ",
"                  ..6777777777777777777778..                ",
"                  .90                    $2.                ",
"                 ..a]]]]]]]]]]]]]]]]]]]]]]b..               ",
"                .............................c              ",
"                ..5ddddddddddddddddddddddddde.              ",
"                ..$                         @.              ",
"                ..$                         @.              ",
"                ..$                         @.              ",
"             .....................................          ",
"            ......................................          ",
"            ..$                                 @.          ",
"            ..$                                 @.          ",
"            ......................................          ",
"             .....................................          ",
"                                                            ",
"                                                            ",
"                                                            ",
"                                                            ",
"                                                            ",
"                                                            ",
"                                                            ",
"                                                            "};
