/* XPM */
static char * WhitePawn_xpm[] = {
"60 60 92 2",
"  	c #FFFFFF",
". 	c #000000",
"+ 	c #060606",
"@ 	c #3D3D3D",
"# 	c #696969",
"$ 	c #414141",
"% 	c #090909",
"& 	c #343434",
"* 	c #D7D7D7",
"= 	c #E0E0E0",
"- 	c #3E3E3E",
"; 	c #121212",
"> 	c #E7E7E7",
", 	c #EFEFEF",
"' 	c #1A1A1A",
") 	c #7D7D7D",
"! 	c #8D8D8D",
"~ 	c #B2B2B2",
"{ 	c #C2C2C2",
"] 	c #AEAEAE",
"^ 	c #BFBFBF",
"/ 	c #7E7E7E",
"( 	c #EBEBEB",
"_ 	c #0D0D0D",
": 	c #0C0C0C",
"< 	c #C0C0C0",
"[ 	c #CFCFCF",
"} 	c #111111",
"| 	c #2C2C2C",
"1 	c #D8D8D8",
"2 	c #DFDFDF",
"3 	c #353535",
"4 	c #2E2E2E",
"5 	c #F4F4F4",
"6 	c #F8F8F8",
"7 	c #3C3C3C",
"8 	c #DDDDDD",
"9 	c #EAEAEA",
"0 	c #141414",
"a 	c #6F6F6F",
"b 	c #D0D0D0",
"c 	c #E5E5E5",
"d 	c #020202",
"e 	c #232323",
"f 	c #EEEEEE",
"g 	c #010101",
"h 	c #A3A3A3",
"i 	c #B4B4B4",
"j 	c #656565",
"k 	c #777777",
"l 	c #070707",
"m 	c #C9C9C9",
"n 	c #0E0E0E",
"o 	c #1C1C1C",
"p 	c #E9E9E9",
"q 	c #F2F2F2",
"r 	c #292929",
"s 	c #FAFAFA",
"t 	c #FEFEFE",
"u 	c #525252",
"v 	c #040404",
"w 	c #B3B3B3",
"x 	c #C6C6C6",
"y 	c #D4D4D4",
"z 	c #DCDCDC",
"A 	c #4B4B4B",
"B 	c #1B1B1B",
"C 	c #A8A8A8",
"D 	c #E3E3E3",
"E 	c #242424",
"F 	c #0F0F0F",
"G 	c #D3D3D3",
"H 	c #161616",
"I 	c #CBCBCB",
"J 	c #0B0B0B",
"K 	c #FCFCFC",
"L 	c #212121",
"M 	c #929292",
"N 	c #7B7B7B",
"O 	c #DADADA",
"P 	c #E8E8E8",
"Q 	c #2A2A2A",
"R 	c #505050",
"S 	c #606060",
"T 	c #828282",
"U 	c #999999",
"V 	c #A9A9A9",
"W 	c #ABABAB",
"X 	c #BBBBBB",
"Y 	c #222222",
"Z 	c #2F2F2F",
"` 	c #252525",
"                                                                                                                        ",
"                                                                                                                        ",
"                                                                                                                        ",
"                                                                                                                        ",
"                                                                                                                        ",
"                                                                                                                        ",
"                                                                                                                        ",
"                                                                                                                        ",
"                                                                                                                        ",
"                                                                                                                        ",
"                                                        . . . . . . .                                                   ",
"                                                      . . + @ # $ % . .                                                 ",
"                                                    . . & *       = - . .                                               ",
"                                                    . ; >           , ' .                                               ",
"                                                  . . )               ! . .                                             ",
"                                                  . . ~               { . .                                             ",
"                                                  . . ]               ^ . .                                             ",
"                                                  . . #               / . .                                             ",
"                                                    . + =           ( _ .                                               ",
"                                                  . . : <           [ } . .                                             ",
"                                                . . | 1               2 3 . .                                           ",
"                                              . . 4 5                   6 7 . .                                         ",
"                                              . : 8                       9 0 .                                         ",
"                                            . . a                           / . .                                       ",
"                                            . . b                           c . .                                       ",
"                                            . d 6                             } .                                       ",
"                                            . ;                               e .                                       ",
"                                            . . 2                           f g .                                       ",
"                                            . . h                           i . .                                       ",
"                                              . j                           k . .                                       ",
"                                              . l m                       1 n .                                         ",
"                                              . . o p                   q r . .                                         ",
"                                                . . - s               t u . .                                           ",
"                                                . . v w               x l . .                                           ",
"                                            . . . $ y                   z A . . .                                       ",
"                                          . . B C                           i e . .                                     ",
"                                        . . o D                               9 E . .                                   ",
"                                      . . F G                                   z H . .                                 ",
"                                      . + ^                                       I J .                                 ",
"                                    . . !                                           h . .                               ",
"                                    . ; 5                                           K L .                               ",
"                                  . . )                                               M . .                             ",
"                                  . % 9                                               5 ; .                             ",
"                                . . #                                                   N . .                           ",
"                                . . O                                                   P d .                           ",
"                                . '                                                       Q .                           ",
"                                . R                                                       S .                           ",
"                              . . T                                                       M . .                         ",
"                              . . U                                                       V . .                         ",
"                              . . W                                                       X . .                         ",
"                              . . Y Z Z Z Z Z Z Z Z Z Z Z Z Z Z Z Z Z Z Z Z Z Z Z Z Z Z Z ` . .                         ",
"                              . . . . . . . . . . . . . . . . . . . . . . . . . . . . . . . . .                         ",
"                                                                                                                        ",
"                                                                                                                        ",
"                                                                                                                        ",
"                                                                                                                        ",
"                                                                                                                        ",
"                                                                                                                        ",
"                                                                                                                        ",
"                                                                                                                        "};
