/* XPM */
static char * WhiteQueen_xpm[] = {
"60 60 192 2",
"  	c #FFFFFF",
". 	c #000000",
"+ 	c #050505",
"@ 	c #B2B2B2",
"# 	c #F3F3F3",
"$ 	c #5E5E5E",
"% 	c #0E0E0E",
"& 	c #8A8A8A",
"* 	c #898989",
"= 	c #0B0B0B",
"- 	c #242424",
"; 	c #C4C4C4",
"> 	c #717171",
", 	c #696969",
"' 	c #ABABAB",
") 	c #EEEEEE",
"! 	c #5A5A5A",
"~ 	c #656565",
"{ 	c #F4F4F4",
"] 	c #4A4A4A",
"^ 	c #434343",
"/ 	c #010101",
"( 	c #CCCCCC",
"_ 	c #1C1C1C",
": 	c #202020",
"< 	c #606060",
"[ 	c #EFEFEF",
"} 	c #A4A4A4",
"| 	c #020202",
"1 	c #7F7F7F",
"2 	c #474747",
"3 	c #222222",
"4 	c #C3C3C3",
"5 	c #1F1F1F",
"6 	c #565656",
"7 	c #838383",
"8 	c #FAFAFA",
"9 	c #151515",
"0 	c #2A2A2A",
"a 	c #454545",
"b 	c #A7A7A7",
"c 	c #737373",
"d 	c #BCBCBC",
"e 	c #5D5D5D",
"f 	c #ADADAD",
"g 	c #4D4D4D",
"h 	c #090909",
"i 	c #D7D7D7",
"j 	c #919191",
"k 	c #1A1A1A",
"l 	c #FBFBFB",
"m 	c #3E3E3E",
"n 	c #171717",
"o 	c #464646",
"p 	c #888888",
"q 	c #3B3B3B",
"r 	c #7E7E7E",
"s 	c #070707",
"t 	c #C6C6C6",
"u 	c #1B1B1B",
"v 	c #2F2F2F",
"w 	c #9F9F9F",
"x 	c #555555",
"y 	c #F5F5F5",
"z 	c #030303",
"A 	c #E3E3E3",
"B 	c #C2C2C2",
"C 	c #CBCBCB",
"D 	c #2B2B2B",
"E 	c #4E4E4E",
"F 	c #2C2C2C",
"G 	c #979797",
"H 	c #C5C5C5",
"I 	c #676767",
"J 	c #BBBBBB",
"K 	c #5F5F5F",
"L 	c #B6B6B6",
"M 	c #C7C7C7",
"N 	c #6C6C6C",
"O 	c #9A9A9A",
"P 	c #929292",
"Q 	c #212121",
"R 	c #FDFDFD",
"S 	c #414141",
"T 	c #6F6F6F",
"U 	c #878787",
"V 	c #1D1D1D",
"W 	c #F2F2F2",
"X 	c #161616",
"Y 	c #444444",
"Z 	c #939393",
"` 	c #545454",
" .	c #E9E9E9",
"..	c #B3B3B3",
"+.	c #EBEBEB",
"@.	c #191919",
"#.	c #EAEAEA",
"$.	c #121212",
"%.	c #F8F8F8",
"&.	c #E6E6E6",
"*.	c #040404",
"=.	c #505050",
"-.	c #909090",
";.	c #818181",
">.	c #767676",
",.	c #787878",
"'.	c #141414",
").	c #373737",
"!.	c #D9D9D9",
"~.	c #EDEDED",
"{.	c #C0C0C0",
"].	c #E4E4E4",
"^.	c #8D8D8D",
"/.	c #626262",
"(.	c #5C5C5C",
"_.	c #8C8C8C",
":.	c #0F0F0F",
"<.	c #252525",
"[.	c #3A3A3A",
"}.	c #4F4F4F",
"|.	c #4B4B4B",
"1.	c #363636",
"2.	c #7D7D7D",
"3.	c #E2E2E2",
"4.	c #D5D5D5",
"5.	c #B4B4B4",
"6.	c #2E2E2E",
"7.	c #0D0D0D",
"8.	c #FEFEFE",
"9.	c #DADADA",
"0.	c #7C7C7C",
"a.	c #A9A9A9",
"b.	c #DDDDDD",
"c.	c #C1C1C1",
"d.	c #B8B8B8",
"e.	c #B1B1B1",
"f.	c #AAAAAA",
"g.	c #A2A2A2",
"h.	c #9B9B9B",
"i.	c #949494",
"j.	c #858585",
"k.	c #8F8F8F",
"l.	c #9E9E9E",
"m.	c #A5A5A5",
"n.	c #ACACAC",
"o.	c #C9C9C9",
"p.	c #060606",
"q.	c #3F3F3F",
"r.	c #1E1E1E",
"s.	c #0A0A0A",
"t.	c #353535",
"u.	c #646464",
"v.	c #6B6B6B",
"w.	c #727272",
"x.	c #7A7A7A",
"y.	c #777777",
"z.	c #707070",
"A.	c #686868",
"B.	c #616161",
"C.	c #525252",
"D.	c #383838",
"E.	c #181818",
"F.	c #DEDEDE",
"G.	c #F6F6F6",
"H.	c #282828",
"I.	c #E5E5E5",
"J.	c #C8C8C8",
"K.	c #8E8E8E",
"L.	c #515151",
"M.	c #484848",
"N.	c #404040",
"O.	c #323232",
"P.	c #4C4C4C",
"Q.	c #666666",
"R.	c #7B7B7B",
"S.	c #989898",
"T.	c #B5B5B5",
"U.	c #D2D2D2",
"V.	c #101010",
"W.	c #BFBFBF",
"X.	c #D1D1D1",
"Y.	c #CDCDCD",
"Z.	c #A1A1A1",
"`.	c #272727",
" +	c #AEAEAE",
".+	c #262626",
"++	c #999999",
"@+	c #B9B9B9",
"#+	c #BEBEBE",
"$+	c #A6A6A6",
"%+	c #969696",
"&+	c #8B8B8B",
"                                                                                                                        ",
"                                                                                                                        ",
"                                                                                                                        ",
"                                                                                                                        ",
"                                                                                                                        ",
"                                                                                                                        ",
"                                                                                                                        ",
"                                                          . . .                                                         ",
"                                    . .               . . . + . .                                                       ",
"                                . . . . . .           . . @ # $ . .             . . .                                   ",
"                                . % & * = .           . -     ; . .           . . + . . .                               ",
"                              . . >     , . .         . . ' ) ! . .         . . ~ { ' . .                               ",
"                                . ]     ^ .           . . . / . .           . . (     _ .                               ",
"              . . .             . . : : . .               . . .             . . < [ } . .             . . .             ",
"          . . . + . .             . . . .                 . . .               . . / . . .         . . . + . .           ",
"          . . @ # $ . .             . .                   . . .                 . . .             . . @ # $ . .         ",
"          . -     ; . .             . . .                 . . .                 . . .             . -     ; . .         ",
"          . . ' ) ! . .             . . .               . . . .                 . . .             . . ' ) ! . .         ",
"          . . . | . .               . . . .             . . _ .               . . . .             . . . | . .           ",
"              . . . .               . . | .             . . 1 . .             . . . .               . . . .             ",
"                  . . .             . . 2 .             . 3 4 . .           . . 5 . .             . . .                 ",
"                  . . .             . . ' . .           . 6 { | .           . / 7 . .           . . . .                 ",
"                  . . . .           . . 8 9 .         . . *   0 .           . a b . .           . . .                   ",
"                  . . | . .         . .   c . .       . . d   e .         . . f b . .         . . | .                   ",
"                    . g h .         . .   i . .       . . )   j . .       . k l b . .       . . m n .                   ",
"                    . o p . .       . .     q .       . 3     ; . .     . . r   b . .       . s t . .                   ",
"                    . u l v . .     . .     w . .     . x     y z .     . z A   b . .     . . 7 B . .                   ",
"                    . . [ C z .     . .     y % .   . . p       D .     . E     b . .   . . F 8 G . .                   ",
"                    . . H   > . .   . .       I . . . . J       K .   . . L     b . .   . | M   N .                     ",
"                    . . O   { 5 .   . .       C . . . . )       P . . . Q R     b . . . . N     S .                     ",
"                      . T     L . . . .         v . . Q         H . . . U       b . . . V W     X .                     ",
"                      . Y       ! . . .         Z . . `         y z . +  .      b . . . ..    +.. .                     ",
"                      . @.      #.$.. .     %.&.H *.. =.-.;.>.,.7 '.. ).t !.~.l b . . 6       {.. .                     ",
"                      . . ].{.^./.5 . . *.. . . . . . . . . . . . . . . . . . . . . . D (._.H -.. .                     ",
"                      . . . . . . . . . . . + :.k <.v [.a }.x |.S 1.D Q X = | . . . . . . . . . .                       ",
"                      . . / @.[.(.2.w {.3.8                                   { 4.5.P > }.6.7.. .                       ",
"                        . ^ 8.                                                              9.s .                       ",
"                        . . 0.                                                            W D . .                       ",
"                          . . a.      l b.c.d.e.f.g.h.i.^.j.;.p k.G l.m.n.5.J o. .      8.=.. .                         ",
"                            . p.E q.r.z . . . . . . . . . . . . . . . . . . . . . s.0 |.t.. .                           ",
"                            . . . . . z r.q o E x (.u.v.w.x.r y.z.A.B.! C.|.Y D.E.. . . . .                             ",
"                              . . w.F.l                                           G.4.H.. .                             ",
"                                . C.                                                W . .                               ",
"                                . N I.J.' K.w./.! L.M.N.).6.0 O.[.^ P.` e Q.R.S.T.U.[ V..                               ",
"                              . . z . . . . . . . . . . . . . . . . . . . . . . . . . z .                               ",
"                              . . . '.O.}.N & h.} f L W.J.X.4.Y.; d ..f.Z.G 1 /.Y `.s.. . .                             ",
"                            . z -.G.                                                  &.q . .                           ",
"                            . K                                                         n.. .                           ",
"                          . .  +                                                        T.. .                           ",
"                          . 5 %.                                                        %..+.                           ",
"                          . _ Y.y                                                     8. .` .                           ",
"                          . . . . V.D o B.R.j ++Z.a.e.@+c.o.Y.t #+L  +$+l.%+&+w.6 q : p.. . .                           ",
"                            . . . . . . . . . . . . . . . . . . . . . . . . . . . . . . . .                             ",
"                                            . . . . . . . . . . . . . . . . .                                           ",
"                                                                                                                        ",
"                                                                                                                        ",
"                                                                                                                        ",
"                                                                                                                        ",
"                                                                                                                        ",
"                                                                                                                        "};
