/* XPM */
static char * WhiteKnight_xpm[] = {
"60 60 135 2",
"  	c #FFFFFF",
". 	c #000000",
"+ 	c #4B4B4B",
"@ 	c #919191",
"# 	c #2F2F2F",
"$ 	c #C5C5C5",
"% 	c #8C8C8C",
"& 	c #4D4D4D",
"* 	c #747474",
"= 	c #D2D2D2",
"- 	c #070707",
"; 	c #2E2E2E",
"> 	c #FDFDFD",
", 	c #6C6C6C",
"' 	c #5E5E5E",
") 	c #D1D1D1",
"! 	c #888888",
"~ 	c #878787",
"{ 	c #8E8E8E",
"] 	c #EDEDED",
"^ 	c #EBEBEB",
"/ 	c #838383",
"( 	c #535353",
"_ 	c #232323",
": 	c #010101",
"< 	c #A6A6A6",
"[ 	c #F2F2F2",
"} 	c #C4C4C4",
"| 	c #828282",
"1 	c #1C1C1C",
"2 	c #181818",
"3 	c #F3F3F3",
"4 	c #FCFCFC",
"5 	c #AEAEAE",
"6 	c #444444",
"7 	c #A5A5A5",
"8 	c #BFBFBF",
"9 	c #1A1A1A",
"0 	c #686868",
"a 	c #DFDFDF",
"b 	c #4A4A4A",
"c 	c #373737",
"d 	c #FBFBFB",
"e 	c #6B6B6B",
"f 	c #B0B0B0",
"g 	c #FEFEFE",
"h 	c #898989",
"i 	c #C9C9C9",
"j 	c #E2E2E2",
"k 	c #727272",
"l 	c #5C5C5C",
"m 	c #929292",
"n 	c #404040",
"o 	c #090909",
"p 	c #E3E3E3",
"q 	c #797979",
"r 	c #2C2C2C",
"s 	c #E4E4E4",
"t 	c #EAEAEA",
"u 	c #7F7F7F",
"v 	c #E5E5E5",
"w 	c #F0F0F0",
"x 	c #737373",
"y 	c #6A6A6A",
"z 	c #C0C0C0",
"A 	c #1B1B1B",
"B 	c #F5F5F5",
"C 	c #040404",
"D 	c #030303",
"E 	c #3D3D3D",
"F 	c #A2A2A2",
"G 	c #D4D4D4",
"H 	c #191919",
"I 	c #B3B3B3",
"J 	c #313131",
"K 	c #676767",
"L 	c #2A2A2A",
"M 	c #9D9D9D",
"N 	c #9F9F9F",
"O 	c #050505",
"P 	c #FAFAFA",
"Q 	c #121212",
"R 	c #B9B9B9",
"S 	c #DADADA",
"T 	c #515151",
"U 	c #3C3C3C",
"V 	c #939393",
"W 	c #BCBCBC",
"X 	c #9A9A9A",
"Y 	c #CECECE",
"Z 	c #C7C7C7",
"` 	c #F8F8F8",
" .	c #636363",
"..	c #5B5B5B",
"+.	c #171717",
"@.	c #707070",
"#.	c #A8A8A8",
"$.	c #353535",
"%.	c #8A8A8A",
"&.	c #585858",
"*.	c #BDBDBD",
"=.	c #141414",
"-.	c #989898",
";.	c #CDCDCD",
">.	c #8F8F8F",
",.	c #F6F6F6",
"'.	c #0C0C0C",
").	c #A1A1A1",
"!.	c #9B9B9B",
"~.	c #767676",
"{.	c #DDDDDD",
"].	c #525252",
"^.	c #5A5A5A",
"/.	c #0B0B0B",
"(.	c #F9F9F9",
"_.	c #0E0E0E",
":.	c #DCDCDC",
"<.	c #757575",
"[.	c #282828",
"}.	c #303030",
"|.	c #ACACAC",
"1.	c #020202",
"2.	c #323232",
"3.	c #363636",
"4.	c #545454",
"5.	c #B2B2B2",
"6.	c #979797",
"7.	c #595959",
"8.	c #9E9E9E",
"9.	c #D9D9D9",
"0.	c #A9A9A9",
"a.	c #B8B8B8",
"b.	c #ADADAD",
"c.	c #1F1F1F",
"d.	c #151515",
"                                                                                                                        ",
"                                                                                                                        ",
"                                                                                                                        ",
"                                                                                                                        ",
"                                                                                                                        ",
"                                                                                                                        ",
"                                                                                                                        ",
"                                                                                                                        ",
"                                      . .               . . .                                                           ",
"                                    . . . .           . . . .                                                           ",
"                                    . . + . .       . . @ # .                                                           ",
"                                    . . $ # . . . . . %   & . .                                                         ",
"                                    . . * = - . . . ; >   , . . . . . .                                                 ",
"                                      . '   ) ! ~ { ]     ^ / ( _ : . . . .                                             ",
"                                    . . <                         [ } | 1 . . . .                                       ",
"                                    . 2 3                               4 5 6 : . .                                     ",
"                                  . . 7                                       8 9 . .                                   ",
"                                . . 0   ~ ; a                                   ^ b . .                                 ",
"                                . c d e . . f                                     g h . .                               ",
"                              . : i i . . . j                                         k . .                             ",
"                            . . l   m . . ;                                           d n . .                           ",
"                            . o p   q . r s                                             t 1 . .                         ",
"                          . . u     v m w                       x y                       z . .                         ",
"                          . A B                               > C D g                       E .                         ",
"                        . . F                                 G . H                         I . .                       ",
"                        . J g                                 l . K                         g L .                       ",
"                      . . I                                 M . : a                           N . .                     ",
"                      . c                                 8 O . o                             P Q .                     ",
"                    . . R                               S Q . . D                               T .                     ",
"                    . U                               i A . . . C >                             V . .                   ",
"                  . . W                             X - . .   . r                               G . .                   ",
"                  . 1 g Y Z                     `  .. . .     . ..                                +..                   ",
"                . . @.$ : . #.                j $.. .       . . %.                                &..                   ",
"                . . } I . . V               *.=.. .         . . R                                 -.. .                 ",
"                . . ;.4 >.~ ,.            @ D . .           . '.w                                 8 . .                 ",
"                . . ).      ] !.Y     g k . . .           . . ~.                                  {.. .                 ",
"                  . *       ].. - [ g ^.. .               . /.t                                   (.: .                 ",
"                  . _.$     _ . . :./ . .               . . <.                                      2 .                 ",
"                  . . C [.}.. . c |.1..               . . 2.B                                       3..                 ",
"                    . . . . . . _ O .               . . H p                                         4..                 ",
"                              . . . .             . . /.i                                           k .                 ",
"                                                . . - W                                             % . .               ",
"                                                . C 5.                                              V . .               ",
"                                              . 1.#.                                                6.. .               ",
"                                            . : M                                                   X . .               ",
"                                          . . 7.                                                    8.. .               ",
"                                          . D 9.                                                    F . .               ",
"                                          . 7.                                                      < . .               ",
"                                        . . @                                                       0.. .               ",
"                                        . . a.                                                      b.. .               ",
"                                        . . H c.c.c.c.c.c.c.c.c.c.c.c.c.c.c.c.c.c.c.c.c.c.c.c.c.c.c.d.. .               ",
"                                        . . . . . . . . . . . . . . . . . . . . . . . . . . . . . . . . .               ",
"                                                                                                                        ",
"                                                                                                                        ",
"                                                                                                                        ",
"                                                                                                                        ",
"                                                                                                                        ",
"                                                                                                                        ",
"                                                                                                                        ",
"                                                                                                                        "};
