/* XPM */
static char * WhiteKing_xpm[] = {
"60 60 195 2",
"  	c #FFFFFF",
". 	c #000000",
"+ 	c #212121",
"@ 	c #707070",
"# 	c #4B4B4B",
"$ 	c #020202",
"% 	c #414141",
"& 	c #F3F3F3",
"* 	c #AAAAAA",
"= 	c #0C0C0C",
"- 	c #E4E4E4",
"; 	c #686868",
"> 	c #6E6E6E",
", 	c #DEDEDE",
"' 	c #A4A4A4",
") 	c #141414",
"! 	c #171717",
"~ 	c #424242",
"{ 	c #353535",
"] 	c #131313",
"^ 	c #9A9A9A",
"/ 	c #090909",
"( 	c #050505",
"_ 	c #242424",
": 	c #444444",
"< 	c #323232",
"[ 	c #0A0A0A",
"} 	c #767676",
"| 	c #E8E8E8",
"1 	c #E9E9E9",
"2 	c #8C8C8C",
"3 	c #262626",
"4 	c #EBEBEB",
"5 	c #040404",
"6 	c #555555",
"7 	c #C0C0C0",
"8 	c #FDFDFD",
"9 	c #FEFEFE",
"0 	c #D8D8D8",
"a 	c #5C5C5C",
"b 	c #010101",
"c 	c #181818",
"d 	c #D4D4D4",
"e 	c #B2B2B2",
"f 	c #1A1A1A",
"g 	c #282828",
"h 	c #A1A1A1",
"i 	c #545454",
"j 	c #E5E5E5",
"k 	c #C9C9C9",
"l 	c #B7B7B7",
"m 	c #EDEDED",
"n 	c #DBDBDB",
"o 	c #6D6D6D",
"p 	c #898989",
"q 	c #CDCDCD",
"r 	c #C5C5C5",
"s 	c #070707",
"t 	c #E2E2E2",
"u 	c #7D7D7D",
"v 	c #BBBBBB",
"w 	c #BABABA",
"x 	c #525252",
"y 	c #2B2B2B",
"z 	c #6F6F6F",
"A 	c #2D2D2D",
"B 	c #787878",
"C 	c #999999",
"D 	c #656565",
"E 	c #363636",
"F 	c #3B3B3B",
"G 	c #191919",
"H 	c #F7F7F7",
"I 	c #CCCCCC",
"J 	c #595959",
"K 	c #CBCBCB",
"L 	c #8D8D8D",
"M 	c #B0B0B0",
"N 	c #3F3F3F",
"O 	c #666666",
"P 	c #F5F5F5",
"Q 	c #888888",
"R 	c #030303",
"S 	c #E1E1E1",
"T 	c #474747",
"U 	c #FBFBFB",
"V 	c #222222",
"W 	c #717171",
"X 	c #9D9D9D",
"Y 	c #BEBEBE",
"Z 	c #D2D2D2",
"` 	c #0E0E0E",
" .	c #161616",
"..	c #D5D5D5",
"+.	c #1E1E1E",
"@.	c #B5B5B5",
"#.	c #F9F9F9",
"$.	c #C8C8C8",
"%.	c #AEAEAE",
"&.	c #959595",
"*.	c #636363",
"=.	c #313131",
"-.	c #ABABAB",
";.	c #C4C4C4",
">.	c #C7C7C7",
",.	c #F2F2F2",
"'.	c #B1B1B1",
").	c #6A6A6A",
"!.	c #2F2F2F",
"~.	c #111111",
"{.	c #A9A9A9",
"].	c #ECECEC",
"^.	c #060606",
"/.	c #464646",
"(.	c #D7D7D7",
"_.	c #1D1D1D",
":.	c #4F4F4F",
"<.	c #818181",
"[.	c #848484",
"}.	c #6B6B6B",
"|.	c #393939",
"1.	c #1F1F1F",
"2.	c #A5A5A5",
"3.	c #FAFAFA",
"4.	c #F0F0F0",
"5.	c #646464",
"6.	c #3A3A3A",
"7.	c #C6C6C6",
"8.	c #EAEAEA",
"9.	c #8A8A8A",
"0.	c #434343",
"a.	c #121212",
"b.	c #1C1C1C",
"c.	c #F4F4F4",
"d.	c #979797",
"e.	c #292929",
"f.	c #BCBCBC",
"g.	c #A2A2A2",
"h.	c #565656",
"i.	c #3D3D3D",
"j.	c #232323",
"k.	c #535353",
"l.	c #6C6C6C",
"m.	c #868686",
"n.	c #9F9F9F",
"o.	c #B9B9B9",
"p.	c #D3D3D3",
"q.	c #FCFCFC",
"r.	c #0B0B0B",
"s.	c #EFEFEF",
"t.	c #0F0F0F",
"u.	c #515151",
"v.	c #E3E3E3",
"w.	c #5B5B5B",
"x.	c #757575",
"y.	c #8E8E8E",
"z.	c #A7A7A7",
"A.	c #D9D9D9",
"B.	c #DCDCDC",
"C.	c #C3C3C3",
"D.	c #919191",
"E.	c #777777",
"F.	c #5E5E5E",
"G.	c #454545",
"H.	c #484848",
"I.	c #929292",
"J.	c #9B9B9B",
"K.	c #DFDFDF",
"L.	c #D1D1D1",
"M.	c #808080",
"N.	c #C2C2C2",
"O.	c #878787",
"P.	c #202020",
"Q.	c #696969",
"R.	c #838383",
"S.	c #E7E7E7",
"T.	c #9C9C9C",
"U.	c #0D0D0D",
"V.	c #343434",
"W.	c #1B1B1B",
"X.	c #939393",
"Y.	c #F1F1F1",
"Z.	c #B4B4B4",
"`.	c #E6E6E6",
" +	c #CFCFCF",
".+	c #B6B6B6",
"++	c #7C7C7C",
"@+	c #A8A8A8",
"#+	c #606060",
"$+	c #C1C1C1",
"%+	c #575757",
"&+	c #DDDDDD",
"*+	c #A6A6A6",
"=+	c #616161",
"-+	c #373737",
"                                                                                                                        ",
"                                                                                                                        ",
"                                                                                                                        ",
"                                                                                                                        ",
"                                                                                                                        ",
"                                                                                                                        ",
"                                                                                                                        ",
"                                                            . .                                                         ",
"                                                            . .                                                         ",
"                                                      . . . . . . . .                                                   ",
"                                                      . . . . . . . .                                                   ",
"                                                            . .                                                         ",
"                                                            . .                                                         ",
"                                                            . .                                                         ",
"                                                            . .                                                         ",
"                                                        . . . . .                                                       ",
"                                                      . . + @ # $ .                                                     ",
"                                                    . . % &     * $ .                                                   ",
"                                                    . = -         ; . .                                                 ",
"                                                    . >           , . .                                                 ",
"                          . . . . . . . .         . . '             ) .       . . . . . . . . .                         ",
"                      . . . . ! ~ { ] . . . .     . . ^             / .   . . . . ( _ : < [ . . . .                     ",
"                    . . ( } |         1 2 3 . . . . . }           4 . . . . 5 6 7 8       9 0 a b . .                   ",
"                    . c d                   e f . . . g           h . . . i j                   k _ . .                 ",
"                  . b l                       m 6 . . . 0         + . / ^                         n ) . .               ",
"                . . o                             p . . a       p . [ q                             r s .               ",
"                . . t                               u . $ v   w $ . *                                 x .               ",
"                . y                                   z . ! & A . B                                   C . .             ",
"                . D                                   9 E . F . G H                                   I . .             ",
"                . J                                     K $ . . L                                     M . .             ",
"                . N                                       O . ) P                                     Q . .             ",
"                . R S                                     l . T                                     U V .               ",
"                . . W                                     l . T                                     X . .               ",
"                  . R Y                                   l . T                                   Z ` .                 ",
"                  . .  ...                                l . T                                 - +.. .                 ",
"                    . . ` @.                    #.S $.%.&.*.. =.-.;., H                       >.f . .                   ",
"                      . . $ 2         ,.'.).!.) b . . . . . . . . . . . ~.y *.{.].          ^ ^.. .                     ",
"                          . . /.(.'.: ( . . . . ( _.E :.; <.[.}.x |.1.s . . . . $ F 2.3.4.5.. . .                       ",
"                            . . 5 . . R 6.<.7.8.9                       m I 9.0.s . . a.= . .                           ",
"                              . . b.9.m                                         c.d.e.. . .                             ",
"                              . . ].      9 (.f.g.p @ h.i.j.+ 6.k.l.m.n.o.p.q.      9 r..                               ",
"                              . . s.8.n.J ) . . . . . . . . . . . . . . . . t.u.d.v.  t..                               ",
"                              . . w.s . . . +.~ a x.y.z.7 A.B.C.* D.E.F.G._ . . . 5 6 = .                               ",
"                              . . . $ H.I.A.                                t J.k.s . . .                               ",
"                              . . }.K.                  m p.L.8.9                 | M.b .                               ",
"                              . . s.    U N.O.l.x |.P.s . . . . ( b.E :.Q.R.v H       t..                               ",
"                              . . S.T.:.U.. . . . . . $ c =.V.W.5 . . . . . . / T X.Y.t..                               ",
"                              . . a.. . b =.} ^ Z.q `.q.        8 1  +.+X ++6.R . . = ^..                               ",
"                              . . . A X |                                     s.@+F . . .                               ",
"                              . . . ( #+.+#.                                8 $+l.r.. . .                               ",
"                                  . . . . ` %+[.g.7 &+#.        U S C.*+Q =+ .. . . .                                   ",
"                                        . . . . . . . b G -+6._.R . . . . . . . .                                       ",
"                                              . . . . . . . . . . . . . .                                               ",
"                                                                                                                        ",
"                                                                                                                        ",
"                                                                                                                        ",
"                                                                                                                        ",
"                                                                                                                        ",
"                                                                                                                        ",
"                                                                                                                        "};
