/* XPM */
static char * WhiteBishop_xpm[] = {
"60 60 149 2",
"  	c #FFFFFF",
". 	c #000000",
"+ 	c #242424",
"@ 	c #2C2C2C",
"# 	c #7B7B7B",
"$ 	c #FEFEFE",
"% 	c #A7A7A7",
"& 	c #010101",
"* 	c #191919",
"= 	c #414141",
"- 	c #202020",
"; 	c #444444",
"> 	c #8D8D8D",
", 	c #B5B5B5",
"' 	c #020202",
") 	c #3A3A3A",
"! 	c #434343",
"~ 	c #282828",
"{ 	c #363636",
"] 	c #404040",
"^ 	c #BBBBBB",
"/ 	c #D0D0D0",
"( 	c #555555",
"_ 	c #343434",
": 	c #C4C4C4",
"< 	c #D6D6D6",
"[ 	c #4B4B4B",
"} 	c #5A5A5A",
"| 	c #F7F7F7",
"1 	c #7E7E7E",
"2 	c #858585",
"3 	c #ABABAB",
"4 	c #0A0A0A",
"5 	c #9D9D9D",
"6 	c #686868",
"7 	c #464646",
"8 	c #C3C3C3",
"9 	c #030303",
"0 	c #181818",
"a 	c #E8E8E8",
"b 	c #7C7C7C",
"c 	c #1A1A1A",
"d 	c #EDEDED",
"e 	c #171717",
"f 	c #E7E7E7",
"g 	c #FBFBFB",
"h 	c #9E9E9E",
"i 	c #838383",
"j 	c #5F5F5F",
"k 	c #080808",
"l 	c #565656",
"m 	c #6F6F6F",
"n 	c #F5F5F5",
"o 	c #C6C6C6",
"p 	c #060606",
"q 	c #EFEFEF",
"r 	c #DEDEDE",
"s 	c #B4B4B4",
"t 	c #1F1F1F",
"u 	c #4C4C4C",
"v 	c #BDBDBD",
"w 	c #9F9F9F",
"x 	c #0E0E0E",
"y 	c #909090",
"z 	c #B6B6B6",
"A 	c #747474",
"B 	c #818181",
"C 	c #A9A9A9",
"D 	c #878787",
"E 	c #1D1D1D",
"F 	c #EAEAEA",
"G 	c #AFAFAF",
"H 	c #888888",
"I 	c #5D5D5D",
"J 	c #0F0F0F",
"K 	c #F8F8F8",
"L 	c #313131",
"M 	c #8F8F8F",
"N 	c #BCBCBC",
"O 	c #040404",
"P 	c #DDDDDD",
"Q 	c #131313",
"R 	c #090909",
"S 	c #727272",
"T 	c #F4F4F4",
"U 	c #121212",
"V 	c #070707",
"W 	c #0C0C0C",
"X 	c #CACACA",
"Y 	c #1E1E1E",
"Z 	c #BFBFBF",
"` 	c #DFDFDF",
" .	c #0D0D0D",
"..	c #666666",
"+.	c #8E8E8E",
"@.	c #424242",
"#.	c #515151",
"$.	c #111111",
"%.	c #2A2A2A",
"&.	c #C0C0C0",
"*.	c #D4D4D4",
"=.	c #161616",
"-.	c #525252",
";.	c #AAAAAA",
">.	c #ECECEC",
",.	c #F2F2F2",
"'.	c #636363",
").	c #050505",
"!.	c #252525",
"~.	c #5C5C5C",
"{.	c #787878",
"].	c #606060",
"^.	c #454545",
"/.	c #292929",
"(.	c #141414",
"_.	c #D7D7D7",
":.	c #E4E4E4",
"<.	c #6E6E6E",
"[.	c #232323",
"}.	c #2F2F2F",
"|.	c #353535",
"1.	c #3C3C3C",
"2.	c #474747",
"3.	c #8B8B8B",
"4.	c #A2A2A2",
"5.	c #FDFDFD",
"6.	c #D5D5D5",
"7.	c #A6A6A6",
"8.	c #626262",
"9.	c #3D3D3D",
"0.	c #303030",
"a.	c #6C6C6C",
"b.	c #CECECE",
"c.	c #E3E3E3",
"d.	c #ACACAC",
"e.	c #757575",
"f.	c #A3A3A3",
"g.	c #DADADA",
"h.	c #D3D3D3",
"i.	c #B1B1B1",
"j.	c #595959",
"k.	c #D8D8D8",
"l.	c #494949",
"m.	c #393939",
"n.	c #3F3F3F",
"o.	c #383838",
"p.	c #828282",
"q.	c #A4A4A4",
"r.	c #101010",
"                                                                                                                        ",
"                                                                                                                        ",
"                                                                                                                        ",
"                                                                                                                        ",
"                                                                                                                        ",
"                                                                                                                        ",
"                                                                                                                        ",
"                                                          . . . .                                                       ",
"                                                        . . + @ . .                                                     ",
"                                                      . . # $   % & .                                                   ",
"                                                      . * $       = .                                                   ",
"                                                      . -         ; .                                                   ",
"                                                      . . >     , ' .                                                   ",
"                                                        . . ) ! ' . .                                                   ",
"                                                        . . . . . .                                                     ",
"                                                    . . . . ~ { . . . .                                                 ",
"                                                  . . . ] ^     / ( ' . .                                               ",
"                                                . . _ :             < [ . .                                             ",
"                                              . . } |                 $ 1 & . .                                         ",
"                                            . & 2                         3 4 . .                                       ",
"                                          . . 5             6 7 $           8 9 .                                       ",
"                                        . . (               0 . a             b . .                                     ",
"                                        . c d               e . f             g _ . .                                   ",
"                                      . . h         g i j j k . l j m n         o . .                                   ",
"                                      . p q         r & . . . . . . . s           t .                                   ",
"                                      . u             v w w x . y w z $           A . .                                 ",
"                                    . . B                   e . f                 C . .                                 ",
"                                    . . D                   E . F                 G . .                                 ",
"                                    . . >                   % H                   , . .                                 ",
"                                      . I                                         2 . .                                 ",
"                                      . J K                                       L .                                   ",
"                                      . . M                                     N . .                                   ",
"                                        . O N                                 P Q .                                     ",
"                                        . . R S F                         T D U . .                                     ",
"                                          . . . & p V V V V V V V V V V V & . . .                                       ",
"                                            . . . . . . . . . . . . . . . . . .                                         ",
"                                          . . W G | | | | | | | | | | | | X Y . .                                       ",
"                                          . & Z                             `  ..                                       ",
"                                        . . ..                                +.. .                                     ",
"                                        . . @.j j j j j j j j j j j j j j j j #.. .                                     ",
"                                        . . . . . . . . . . . . . . . . . . . . . .                                     ",
"                                        . $.w w w w w w w w w w w w w w w w w w %..                                     ",
"                                        . ' &.                                *.=..                                     ",
"                                        . . & -.;.>.                    ,.z '.).. .                                     ",
"                                          . . . . . 4 !.= ~.{.# ].^./.x . . . . .                                       ",
"                                                . . . . . . . . . . . . . .                                             ",
"                                                  . . . . . ' O . . . . .                                               ",
"                        . . . . . . . . . . . . . . . . (.j _.:.<.E . . . . . . . . . . . . . . . .                     ",
"                    . . . . . . $.[.~ }.|.1.2.I A 3.4.X 5.          6.7.M {.8.[ 9.{ 0./.[.=.. . . . .                   ",
"                  . . W a.3 b.q                         c.d.e.<.f.g.                        T h.i.j.& . .               ",
"                . . E k.X % H 6 l.m.1.n.@.7 7 ! ] 1.m.c . . . . . . U o.1.n.@.7 7 ! ] 1.m.; '.p.4.: q.r.. .             ",
"                . . & ' . . . . . . . . . . . . . . . . . .     . . . . . . . . . . . . . . . . . . . ' . .             ",
"                    . . . . .                                                                 . . . . . .               ",
"                                                                                                                        ",
"                                                                                                                        ",
"                                                                                                                        ",
"                                                                                                                        ",
"                                                                                                                        ",
"                                                                                                                        ",
"                                                                                                                        "};
