/* XPM */
static char * BlackQueen_xpm[] = {
"60 60 147 2",
"  	c #BCCC2C",
". 	c #000000",
"+ 	c #0D0D0D",
"@ 	c #232323",
"# 	c #383838",
"$ 	c #4E4E4E",
"% 	c #636363",
"& 	c #797979",
"* 	c #8F8F8F",
"= 	c #A2A2A2",
"- 	c #999999",
"; 	c #838383",
"> 	c #6D6D6D",
", 	c #585858",
"' 	c #424242",
") 	c #2D2D2D",
"! 	c #171717",
"~ 	c #030303",
"{ 	c #282828",
"] 	c #686868",
"^ 	c #A9A9A9",
"/ 	c #E8E8E8",
"( 	c #FFFFFF",
"_ 	c #FBFBFB",
": 	c #C9C9C9",
"< 	c #888888",
"[ 	c #474747",
"} 	c #0C0C0C",
"| 	c #252525",
"1 	c #666666",
"2 	c #A7A7A7",
"3 	c #E7E7E7",
"4 	c #F7F7F7",
"5 	c #E1E1E1",
"6 	c #CBCBCB",
"7 	c #B4B4B4",
"8 	c #9E9E9E",
"9 	c #717171",
"0 	c #5D5D5D",
"a 	c #676767",
"b 	c #7D7D7D",
"c 	c #939393",
"d 	c #C0C0C0",
"e 	c #D6D6D6",
"f 	c #ECECEC",
"g 	c #FEFEFE",
"h 	c #C6C6C6",
"i 	c #858585",
"j 	c #444444",
"k 	c #090909",
"l 	c #575757",
"m 	c #E6E6E6",
"n 	c #A6A6A6",
"o 	c #656565",
"p 	c #242424",
"q 	c #0A0A0A",
"r 	c #DADADA",
"s 	c #040404",
"t 	c #4F4F4F",
"u 	c #D8D8D8",
"v 	c #272727",
"w 	c #484848",
"x 	c #C8C8C8",
"y 	c #A8A8A8",
"z 	c #B5B5B5",
"A 	c #878787",
"B 	c #6C6C6C",
"C 	c #E9E9E9",
"D 	c #010101",
"E 	c #3B3B3B",
"F 	c #404040",
"G 	c #151515",
"H 	c #646464",
"I 	c #6E6E6E",
"J 	c #303030",
"K 	c #020202",
"L 	c #121212",
"M 	c #8D8D8D",
"N 	c #C1C1C1",
"O 	c #EFEFEF",
"P 	c #767676",
"Q 	c #050505",
"R 	c #191919",
"S 	c #959595",
"T 	c #D3D3D3",
"U 	c #434343",
"V 	c #161616",
"W 	c #606060",
"X 	c #DCDCDC",
"Y 	c #FCFCFC",
"Z 	c #D4D4D4",
"` 	c #BFBFBF",
" .	c #AAAAAA",
"..	c #808080",
"+.	c #8B8B8B",
"@.	c #A0A0A0",
"#.	c #CACACA",
"$.	c #DFDFDF",
"%.	c #F4F4F4",
"&.	c #F5F5F5",
"*.	c #BDBDBD",
"=.	c #7F7F7F",
"-.	c #393939",
";.	c #1A1A1A",
">.	c #989898",
",.	c #515151",
"'.	c #101010",
").	c #2E2E2E",
"!.	c #6B6B6B",
"~.	c #898989",
"{.	c #757575",
"].	c #616161",
"^.	c #4C4C4C",
"/.	c #0F0F0F",
"(.	c #2F2F2F",
"_.	c #737373",
":.	c #B0B0B0",
"<.	c #848484",
"[.	c #3F3F3F",
"}.	c #060606",
"|.	c #1D1D1D",
"1.	c #333333",
"2.	c #7C7C7C",
"3.	c #F9F9F9",
"4.	c #B9B9B9",
"5.	c #979797",
"6.	c #222222",
"7.	c #0B0B0B",
"8.	c #454545",
"9.	c #5C5C5C",
"0.	c #747474",
"a.	c #A3A3A3",
"b.	c #D9D9D9",
"c.	c #E2E2E2",
"d.	c #5A5A5A",
"e.	c #8C8C8C",
"f.	c #D0D0D0",
"g.	c #AEAEAE",
"h.	c #6A6A6A",
"i.	c #262626",
"j.	c #525252",
"k.	c #9B9B9B",
"l.	c #B1B1B1",
"m.	c #FDFDFD",
"n.	c #EAEAEA",
"o.	c #626262",
"p.	c #363636",
"                                                                                                                        ",
"                                                                                                                        ",
"                                                                                                                        ",
"                                                                                                                        ",
"                                                                                                                        ",
"                                                                                                                        ",
"                                                          . .                                                           ",
"                                                      . . . . .                                                         ",
"                                . . . . .           . . . . . . .             . . . .                                   ",
"                              . . . . . . .         . . . . . . .           . . . . . .                                 ",
"                              . . . . . . .         . . . . . . .           . . . . . . .                               ",
"                              . . . . . . .           . . . . . .         . . . . . . . .                               ",
"          . . . . .           . . . . . . .           . . . . .             . . . . . .           . . . . .             ",
"          . . . . . .           . . . . .               . . .               . . . . . .           . . . . . .           ",
"        . . . . . . .             . . .                 . . .                 . . . .           . . . . . . .           ",
"        . . . . . . .               . . .               . . .                 . . .             . . . . . . .           ",
"        . . . . . . .               . . .               . . . .               . . .             . . . . . . .           ",
"          . . . . . .               . . .               . . . .             . . . .               . . . . . .           ",
"            . . . .                 . . . .             . . . .             . . . .               . . . .               ",
"                . . .               . . . .           . . . . .           . . . . .             . . . .                 ",
"                . . . .             . . . .           . . . . .           . . . . .             . . .                   ",
"                . . . .             . . . . .         . . . . . .         . . . . .           . . . .                   ",
"                . . . . .           . . . . .         . . . . . .       . . . . . .         . . . . .                   ",
"                  . . . . .         . . . . . .     . . . . . . .       . . . . . .         . . . . .                   ",
"                  . . . . .         . . . . . .     . . . . . . .       . . . . . .       . . . . . .                   ",
"                  . . . . . .       . . . . . .     . . . . . . .     . . . . . . .       . . . . .                     ",
"                  . . . . . . .     . . . . . . .   . . . . . . . .   . . . . . . .     . . . . . .                     ",
"                  . . . . . . .     . . . . . . .   . . . . . . . . . . . . . . . .   . . . . . . .                     ",
"                    . . . . . . . . . . . . . . . . . . . . . . . . . . . . . . . .   . . . . . . .                     ",
"                    . . . . . . . . . . . . . . . . . . . . . . . . . . . . . . . . . . . . . . . .                     ",
"                    . . . . . . . . . . . . . . . . . . . . . . . . . . . . . . . . . . . . . . .                       ",
"                    . . . . . . . . . . . . . . . . . . . . . . . . . . . . . . . . . . . . . . .                       ",
"                    . . . . . . . . . . . . . . . . . . . . . . . . . . . . . . . . . . . . . . .                       ",
"                      . . . . . . . . . . . . . . . . . . . . . . . . . . . . . . . . . . . . . .                       ",
"                      . . . . . . . . . . . + @ # $ % & * = - ; > , ' ) ! ~ . . . . . . . . . . .                       ",
"                      . . . . . . . { ] ^ / ( ( ( ( ( ( ( ( ( ( ( ( ( ( ( _ : < [ } . . . . . .                         ",
"                        . . | 1 2 3 ( ( ( ( 4 5 6 7 8 < 9 0 a b c ^ d e f g ( ( ( _ h i j k . .                         ",
"                        . l ( ( ( ( m n o p . . . . . . . . . . . . . . . q j i h _ ( ( ( r s                           ",
"                          t u ^ ] v . . . . . . . . . . . . . . . . . . . . . . . } w < x y                             ",
"                            . . . . . . . . . . . . . . . . . . . . . . . . . . . . . . .                               ",
"                              ) z d d d d d d d d d d d d d d d d d d d d d d d d d d A .                               ",
"                              B ( ( ( ( ( ( ( ( ( ( ( ( ( ( ( ( ( ( ( ( ( ( ( ( ( ( ( C                                 ",
"                              D E F F F F F F F F F F F F F F F F F F F F F F F F F F G .                               ",
"                              . . . . . . . . . . . . . . . . . . . . . . . . . . . . . .                               ",
"                            H n I J K . . . . . . . . . . . . . . . . . . . . . . L t M ^ v                             ",
"                          . N ( ( ( O 7 P # Q . . . . . . . . . . . . . . R l S T g ( ( ( U                             ",
"                          . V W 8 X ( ( ( ( Y C Z `  .S ..B P +.@.z #.$.%.( ( ( ( &.*.=.-..                             ",
"                        . . . . . . ;.l S T g ( ( ( ( ( ( ( ( ( ( ( ( ( ( O 7 P # Q . . . .                             ",
"                        s >.S ,.'.. . . . . Q R ).' l !...c ~.{.].^.# @ /.. . . . . D (._.:.,.                          ",
"                        @ Y ( ( Y x <.[.}.. . . . . . . . . . . . . . . . . . |.].n C ( ( ( @.                          ",
"                          1.2.d 3.( ( ( %.4.5.=.] ,.-.6.7.. K V ).8.9.0.+.a.b.( ( ( ( c.8 d.                            ",
"                            . . q w e.f.g ( ( ( ( ( ( ( ( &.Y ( ( ( ( ( ( ( ( O g.h.i.. .                               ",
"                                    . . G j.> <.k.l.x $.&.( m.n.T *.n * & o.p.~ . .                                     ",
"                                            . . . . . . . q ~ . . . . . .                                               ",
"                                                                                                                        ",
"                                                                                                                        ",
"                                                                                                                        ",
"                                                                                                                        ",
"                                                                                                                        ",
"                                                                                                                        "};
