/* XPM */
static char * Green_xpm[] = {
"60 60 2 1",
" 	c #BCCC2C",
".	c #BCCB2C",
"  .....................................................     ",
"  .....................................................     ",
"  .....................................................     ",
"  .....................................................     ",
"  .....................................................     ",
"  .....................................................     ",
"  .....................................................     ",
"  .....................................................     ",
"  .....................................................     ",
"  .....................................................     ",
"  .....................................................     ",
"  .....................................................     ",
"  .....................................................     ",
"  .....................................................     ",
"  .....................................................     ",
"  .....................................................     ",
"  .....................................................     ",
"  .....................................................     ",
"  .....................................................     ",
"  .....................................................     ",
"  .....................................................     ",
"  .....................................................     ",
"  .....................................................     ",
"  .....................................................     ",
"  .....................................................     ",
"  .....................................................     ",
"  .....................................................     ",
"  .....................................................     ",
"  .....................................................     ",
"  .....................................................     ",
"  .....................................................     ",
"  .....................................................     ",
"  .....................................................     ",
"  .....................................................     ",
"  .....................................................     ",
"  .....................................................     ",
"  .....................................................     ",
"  .....................................................     ",
"  .....................................................     ",
"  .....................................................     ",
"  .....................................................     ",
"  .....................................................     ",
"  .....................................................     ",
"  .....................................................     ",
"  .....................................................     ",
"  .....................................................     ",
"  .....................................................     ",
"  .....................................................     ",
"  .....................................................     ",
"  .....................................................     ",
"  .....................................................     ",
"  .....................................................     ",
"  .....................................................     ",
"  .....................................................     ",
"  .....................................................     ",
"                                                            ",
"                                                            ",
"                                                            ",
"                                                            ",
"                                                            "};
