/* XPM */
static char * BlackPawn_xpm[] = {
"60 60 3 1",
" 	c #3EA937",
".	c #6A874D",
"+	c #000000",
"                                                            ",
"                                                            ",
"                                                            ",
"                                                            ",
"                        ............                        ",
"                     ..................                     ",
"                  ........................                  ",
"                ............................                ",
"              .............      .............              ",
"             ...........            ...........             ",
"            .........       +++++++    .........            ",
"           ........        +++++++++    .........           ",
"          .......         +++++++++++     ........          ",
"         ........        ++++++++++++       .......         ",
"        ........         ++++++++++++        ......         ",
"        .......          +++++++++++++       .......        ",
"       ......            +++++++++++++        .......       ",
"       ......            ++++++++++++          ......       ",
"      ......              +++++++++++           ......      ",
"      .....              +++++++++++++           .....      ",
"      .....             +++++++++++++++          ......     ",
"     .....             +++++++++++++++++         ......     ",
"     .....             +++++++++++++++++          .....     ",
"     .....            ++++++++++++++++++          .....     ",
"    .....             +++++++++++++++++++          .....    ",
"    .....             +++++++++++++++++++          .....    ",
"    .....             +++++++++++++++++++          .....    ",
"    ....              +++++++++++++++++++           ....    ",
"    ....              +++++++++++++++++++           ....    ",
"    ....              ++++++++++++++++++            ....    ",
"    ....               +++++++++++++++++            ....    ",
"    ....               ++++++++++++++++             ....    ",
"    ....                +++++++++++++++             ....    ",
"    .....              ++++++++++++++++            .....    ",
"    .....             +++++++++++++++++++          .....    ",
"    .....            +++++++++++++++++++++         .....    ",
"     .....          +++++++++++++++++++++++       .....     ",
"     .....         ++++++++++++++++++++++++       .....     ",
"     .....        ++++++++++++++++++++++++++      .....     ",
"      .....       +++++++++++++++++++++++++++    ......     ",
"      .....       +++++++++++++++++++++++++++    .....      ",
"      ......     +++++++++++++++++++++++++++++  ......      ",
"       ......    +++++++++++++++++++++++++++++ ......       ",
"       ......   ++++++++++++++++++++++++++++++.......       ",
"        ......  +++++++++++++++++++++++++++++++.....        ",
"        ........+++++++++++++++++++++++++++++++....         ",
"         ......++++++++++++++++++++++++++++++++....         ",
"          .....++++++++++++++++++++++++++++++++...          ",
"           ....++++++++++++++++++++++++++++++++..           ",
"            ...+++++++++++++++++++++++++++++++++            ",
"             ..+++++++++++++++++++++++++++++++++            ",
"               +++++++++++++++++++++++++++++++++            ",
"                ............................                ",
"                  ........................                  ",
"                    ...................                     ",
"                        ............                        ",
"                                                            ",
"                                                            ",
"                                                            ",
"                                                            "};
