/* XPM */
static char * BlackKing_xpm[] = {
"60 60 202 2",
"  	c #3EA937",
". 	c #6A874D",
"+ 	c #000000",
"@ 	c #020202",
"# 	c #545454",
"$ 	c #8A8A8A",
"% 	c #9C9C9C",
"& 	c #AFAFAF",
"* 	c #9F9F9F",
"= 	c #696969",
"- 	c #323232",
"; 	c #040404",
"> 	c #010101",
", 	c #282828",
"' 	c #616161",
") 	c #9A9A9A",
"! 	c #B1B1B1",
"~ 	c #9E9E9E",
"{ 	c #8C8C8C",
"] 	c #090909",
"^ 	c #DADADA",
"/ 	c #FFFFFF",
"( 	c #EFEFEF",
"_ 	c #888888",
": 	c #191919",
"< 	c #070707",
"[ 	c #6A6A6A",
"} 	c #E1E1E1",
"| 	c #EBEBEB",
"1 	c #828282",
"2 	c #131313",
"3 	c #939393",
"4 	c #DDDDDD",
"5 	c #7B7B7B",
"6 	c #626262",
"7 	c #4F4F4F",
"8 	c #686868",
"9 	c #D2D2D2",
"0 	c #F9F9F9",
"a 	c #9D9D9D",
"b 	c #161616",
"c 	c #6B6B6B",
"d 	c #E5E5E5",
"e 	c #A6A6A6",
"f 	c #707070",
"g 	c #787878",
"h 	c #C7C7C7",
"i 	c #DEDEDE",
"j 	c #1D1D1D",
"k 	c #636363",
"l 	c #F8F8F8",
"m 	c #5F5F5F",
"n 	c #030303",
"o 	c #343434",
"p 	c #A7A7A7",
"q 	c #FBFBFB",
"r 	c #E7E7E7",
"s 	c #424242",
"t 	c #121212",
"u 	c #B4B4B4",
"v 	c #CACACA",
"w 	c #515151",
"x 	c #393939",
"y 	c #CCCCCC",
"z 	c #D9D9D9",
"A 	c #2A2A2A",
"B 	c #212121",
"C 	c #C2C2C2",
"D 	c #FDFDFD",
"E 	c #E0E0E0",
"F 	c #4D4D4D",
"G 	c #111111",
"H 	c #D1D1D1",
"I 	c #CBCBCB",
"J 	c #7D7D7D",
"K 	c #A2A2A2",
"L 	c #7F7F7F",
"M 	c #FCFCFC",
"N 	c #909090",
"O 	c #232323",
"P 	c #ECECEC",
"Q 	c #EAEAEA",
"R 	c #292929",
"S 	c #BFBFBF",
"T 	c #505050",
"U 	c #F7F7F7",
"V 	c #101010",
"W 	c #D7D7D7",
"X 	c #BBBBBB",
"Y 	c #050505",
"Z 	c #A9A9A9",
"` 	c #5A5A5A",
" .	c #0E0E0E",
"..	c #727272",
"+.	c #979797",
"@.	c #676767",
"#.	c #E6E6E6",
"$.	c #1C1C1C",
"%.	c #848484",
"&.	c #CDCDCD",
"*.	c #313131",
"=.	c #C6C6C6",
"-.	c #B7B7B7",
";.	c #3B3B3B",
">.	c #272727",
",.	c #2D2D2D",
"'.	c #FEFEFE",
").	c #1A1A1A",
"!.	c #C1C1C1",
"~.	c #B0B0B0",
"{.	c #989898",
"].	c #AEAEAE",
"^.	c #ACACAC",
"/.	c #535353",
"(.	c #F2F2F2",
"_.	c #181818",
":.	c #151515",
"<.	c #565656",
"[.	c #E9E9E9",
"}.	c #2F2F2F",
"|.	c #333333",
"1.	c #A1A1A1",
"2.	c #EEEEEE",
"3.	c #595959",
"4.	c #222222",
"5.	c #0A0A0A",
"6.	c #6C6C6C",
"7.	c #F6F6F6",
"8.	c #737373",
"9.	c #878787",
"0.	c #CECECE",
"a.	c #D6D6D6",
"b.	c #BCBCBC",
"c.	c #9B9B9B",
"d.	c #141414",
"e.	c #D4D4D4",
"f.	c #F3F3F3",
"g.	c #959595",
"h.	c #B5B5B5",
"i.	c #F5F5F5",
"j.	c #DFDFDF",
"k.	c #ADADAD",
"l.	c #969696",
"m.	c #A5A5A5",
"n.	c #BEBEBE",
"o.	c #F0F0F0",
"p.	c #767676",
"q.	c #818181",
"r.	c #474747",
"s.	c #C8C8C8",
"t.	c #2B2B2B",
"u.	c #3C3C3C",
"v.	c #B2B2B2",
"w.	c #555555",
"x.	c #DCDCDC",
"y.	c #6E6E6E",
"z.	c #060606",
"A.	c #A3A3A3",
"B.	c #4E4E4E",
"C.	c #0C0C0C",
"D.	c #262626",
"E.	c #3F3F3F",
"F.	c #585858",
"G.	c #8B8B8B",
"H.	c #7A7A7A",
"I.	c #606060",
"J.	c #2E2E2E",
"K.	c #2C2C2C",
"L.	c #777777",
"M.	c #242424",
"N.	c #DBDBDB",
"O.	c #8F8F8F",
"P.	c #5D5D5D",
"Q.	c #464646",
"R.	c #A0A0A0",
"S.	c #B9B9B9",
"T.	c #D3D3D3",
"U.	c #575757",
"V.	c #BDBDBD",
"W.	c #1B1B1B",
"X.	c #E2E2E2",
"Y.	c #525252",
"Z.	c #EDEDED",
"`.	c #656565",
" +	c #999999",
".+	c #202020",
"++	c #373737",
"@+	c #646464",
"#+	c #7E7E7E",
"$+	c #E3E3E3",
"%+	c #B8B8B8",
"&+	c #868686",
"*+	c #4B4B4B",
"=+	c #C3C3C3",
"-+	c #7C7C7C",
";+	c #1F1F1F",
">+	c #838383",
",+	c #1E1E1E",
"'+	c #484848",
")+	c #949494",
"!+	c #C0C0C0",
"~+	c #303030",
"                                                                                                                        ",
"                                                                                                                        ",
"                                                                                                                        ",
"                                                                                                                        ",
"                                                . . . . . . . . . . . .                                                 ",
"                                          . . . . . . . . . . . . . . . . . .                                           ",
"                                    . . . . . . . . . . . . . . . . . . . . . . . .                                     ",
"                                . . . . . . . . . . . . . + + . . . . . . . . . . . . .                                 ",
"                            . . . . . . . . . . . . .     + +     . . . . . . . . . . . . .                             ",
"                          . . . . . . . . . . .       + + + + + + +     . . . . . . . . . . .                           ",
"                        . . . . . . . . .           + + + + + + + + +         . . . . . . . . .                         ",
"                      . . . . . . . .                     + +                   . . . . . . . . .                       ",
"                    . . . . . . .                         + +                       . . . . . . . .                     ",
"                  . . . . . . . .                         + +                           . . . . . . .                   ",
"                . . . . . . . .                           + +                             . . . . . .                   ",
"                . . . . . . .                           + + + + +                         . . . . . . .                 ",
"              . . . . . .                             + + + + + + +                         . . . . . . .               ",
"              . . . . . .                           + + + + + + + + +                         . . . . . .               ",
"            . . . . . .                           + + + + + + + + + +                           . . . . . .             ",
"            . . . . .                             + + + + + + + + + + +                           . . . . .             ",
"            . . . . .     + + + + + + +           + + + + + + + + + + +       + + + + + + + +     . . . . . .           ",
"          . . . . .   + @ # $ % & * = - ; + +     + + + + + + + + + + +   + + > , ' ) ! ~ { ' ] + . . . . . .           ",
"          . . . . . > ' ^ / / / / / / / ( _ : +   + + + + + + + + + + + + < [ } / / / / / / / | 1 2 . . . . .           ",
"          . . . . + 3 / / 4 5 6 7 8 % 9 / / 0 a b + + + + + + + + + + > c d / / } e f 7 6 g h / / i j . . . .           ",
"        . . . . . k / l m n + + + + + + o p q / r s + + + + + + + + t u / / v w > + + + + + + x y / z : . . . .         ",
"        . . . . A 0 / m + + + + + + + + + + B C / D 1 > + + + + + - E / | F + + + + + + + + + + G H / I + . . .         ",
"        . . . . J / K + + + + + + + + + + + + n L M / N + + + + O P / h j + + + + + + + + + + + + b Q / R . . .         ",
"        . . . + S / T + + + + + + + + + + + + + + s U / g + + V W / X Y + + + + + + + + + + + + + + Z / 6 . . .         ",
"        . . . + l / 2 + + + + + + + + + + + + + + + 7 M / ` > X / H  .+ + + + + + + + + + + + + + + ../ +.. . .         ",
"        . . . + P / 2 + + + + + + + + + + + + + + + + 8 / Q @./ #.$.+ + + + + + + + + + + + + + + + %./ %.. . .         ",
"        . . . + &./ *.+ + + + + + + + + + + + + + + + + =./ D / 6 + + + + + + + + + + + + + + + + + -./ # . . .         ",
"        . . . + % / N + + + + + + + + + + + + + + + + + ;./ / W n + + + + + + + + + + + + + + + + >.q M $.. . .         ",
"        . . . . ,.'.U ).+ + + + + + + + + + + + + + + + + !./ k + + + + + + + + + + + + + + + + + ~./ {.+ . . .         ",
"        . . . . + ]./ =.< + + + + + + + + + + + + + + + + ^./ /.+ + + + + + + + + + + + + + + + J / (._.. . . .         ",
"        . . . . . :.i / -.G + + + + + + + + + + + + + + + Z / <.+ + + + + + + + + + + + + + + c / D # . . . . .         ",
"        . . . . .   ,.[./ 4 }.+ + + + + + + + + + n ).|.F 1.2.3.4.] + + + + + + + + + + + 5.* / / 6.+ . . . . .         ",
"          . . . . .   $.h / 7.8.< + + < s 9.u 0.r D / / / / / / / / ( a.b.c.3.d.+ + + + R e./ f.` + . . . . .           ",
"          . . . . .     < g./ / e.w h.i./ / / / / l j.=.k.l.m.n.W o./ / / / / '.y p.j q.i./ 9 ,     . . . . .           ",
"          . . . . .       + r.} 0 / / D s.q.r.t.t + + + + + + + + + 5.O u.c v.f./ / D / / ) 5.      . . . . .           ",
"            . . . . .       w./ / x.y.2 + + + + + + + + + + + + + + + + + + + z.F b./ / A.+       . . . . . .           ",
"            . . . . .         ..B.@ + + + + C.D.E.F...G.m.X ^.3 H.I.r.J.d.> + + + + K.L.}.        . . . . .             ",
"            . . . . . .       + + + G # ) j./ / / / / / / / / / / / / / / (.! c M.+ + + +       . . . . . .             ",
"              . . . . . .     + - 1.0 / / / i.N.C Z O.p.P.Q.w.y.9.R.S.T.P / / / / =.U.; +     . . . . . .               ",
"              . . . . . .     V./ / q S g *.> + + + + + + + + + + + + + + W.6 Z ( / / X.Y.  . . . . . . .               ",
"                . . . . . .   '.Z._ j + + + + + + + + + > 2 z.+ + + + + + + + + ] `.T./  +. . . . . . .                 ",
"                . . . . . . . .+] + + + n ++@+#++.~.v $+q / '.| 9 %+* &+6.*+ .+ + + + 4.] . . . . . .                   ",
"                  . . . . . . + + 5.6 ^.2./ / / / / / / '.2.q / / / / / / / q =+-+B + + + . . . . . .                   ",
"                    . . . . . ;+$ 2./ / / z * >+[ w ++,+z.+ > b }.'+' 5 )+=+q / / D & E.+ . . . . .                     ",
"                      . . . . 7./ / !+@..++ + + + + + + + + + + + + + + + +  .w R.U / / G.. . . .                       ",
"                        . . . 0.* ~++ + + + + + + + + + + + + + + + + + + + + + + :.-+I ~ . . .                         ",
"                          . . . . + + + + + + + + + + + + + + + + + + + + + + + + + + . . . .                           ",
"                              . . . . + + + + + + + + + + + + + + + + + + + + + + . . . . .                             ",
"                                . . . . . . + + + + + + + + + + + + + + + . . . . . . .                                 ",
"                                    . . . . . . . . . . . . . . . . . . . . . . . .                                     ",
"                                        . . . . . . . . . . . . . . . . . . .                                           ",
"                                                . . . . . . . . . . . .                                                 ",
"                                                                                                                        ",
"                                                                                                                        ",
"                                                                                                                        ",
"                                                                                                                        "};
