/* XPM */
static char * BlackQueen_xpm[] = {
"60 60 148 2",
"  	c #3EA937",
". 	c #6A874D",
"+ 	c #000000",
"@ 	c #0D0D0D",
"# 	c #232323",
"$ 	c #383838",
"% 	c #4E4E4E",
"& 	c #636363",
"* 	c #797979",
"= 	c #8F8F8F",
"- 	c #A2A2A2",
"; 	c #999999",
"> 	c #838383",
", 	c #6D6D6D",
"' 	c #585858",
") 	c #424242",
"! 	c #2D2D2D",
"~ 	c #171717",
"{ 	c #030303",
"] 	c #282828",
"^ 	c #686868",
"/ 	c #A9A9A9",
"( 	c #E8E8E8",
"_ 	c #FFFFFF",
": 	c #FBFBFB",
"< 	c #C9C9C9",
"[ 	c #888888",
"} 	c #474747",
"| 	c #0C0C0C",
"1 	c #252525",
"2 	c #666666",
"3 	c #A7A7A7",
"4 	c #E7E7E7",
"5 	c #F7F7F7",
"6 	c #E1E1E1",
"7 	c #CBCBCB",
"8 	c #B4B4B4",
"9 	c #9E9E9E",
"0 	c #717171",
"a 	c #5D5D5D",
"b 	c #676767",
"c 	c #7D7D7D",
"d 	c #939393",
"e 	c #C0C0C0",
"f 	c #D6D6D6",
"g 	c #ECECEC",
"h 	c #FEFEFE",
"i 	c #C6C6C6",
"j 	c #858585",
"k 	c #444444",
"l 	c #090909",
"m 	c #575757",
"n 	c #E6E6E6",
"o 	c #A6A6A6",
"p 	c #656565",
"q 	c #242424",
"r 	c #0A0A0A",
"s 	c #DADADA",
"t 	c #040404",
"u 	c #4F4F4F",
"v 	c #D8D8D8",
"w 	c #272727",
"x 	c #484848",
"y 	c #C8C8C8",
"z 	c #A8A8A8",
"A 	c #B5B5B5",
"B 	c #878787",
"C 	c #6C6C6C",
"D 	c #E9E9E9",
"E 	c #010101",
"F 	c #3B3B3B",
"G 	c #404040",
"H 	c #151515",
"I 	c #646464",
"J 	c #6E6E6E",
"K 	c #303030",
"L 	c #020202",
"M 	c #121212",
"N 	c #8D8D8D",
"O 	c #C1C1C1",
"P 	c #EFEFEF",
"Q 	c #767676",
"R 	c #050505",
"S 	c #191919",
"T 	c #959595",
"U 	c #D3D3D3",
"V 	c #434343",
"W 	c #161616",
"X 	c #606060",
"Y 	c #DCDCDC",
"Z 	c #FCFCFC",
"` 	c #D4D4D4",
" .	c #BFBFBF",
"..	c #AAAAAA",
"+.	c #808080",
"@.	c #8B8B8B",
"#.	c #A0A0A0",
"$.	c #CACACA",
"%.	c #DFDFDF",
"&.	c #F4F4F4",
"*.	c #F5F5F5",
"=.	c #BDBDBD",
"-.	c #7F7F7F",
";.	c #393939",
">.	c #1A1A1A",
",.	c #989898",
"'.	c #515151",
").	c #101010",
"!.	c #2E2E2E",
"~.	c #6B6B6B",
"{.	c #898989",
"].	c #757575",
"^.	c #616161",
"/.	c #4C4C4C",
"(.	c #0F0F0F",
"_.	c #2F2F2F",
":.	c #737373",
"<.	c #B0B0B0",
"[.	c #848484",
"}.	c #3F3F3F",
"|.	c #060606",
"1.	c #1D1D1D",
"2.	c #333333",
"3.	c #7C7C7C",
"4.	c #F9F9F9",
"5.	c #B9B9B9",
"6.	c #979797",
"7.	c #222222",
"8.	c #0B0B0B",
"9.	c #454545",
"0.	c #5C5C5C",
"a.	c #747474",
"b.	c #A3A3A3",
"c.	c #D9D9D9",
"d.	c #E2E2E2",
"e.	c #5A5A5A",
"f.	c #8C8C8C",
"g.	c #D0D0D0",
"h.	c #AEAEAE",
"i.	c #6A6A6A",
"j.	c #262626",
"k.	c #525252",
"l.	c #9B9B9B",
"m.	c #B1B1B1",
"n.	c #FDFDFD",
"o.	c #EAEAEA",
"p.	c #626262",
"q.	c #363636",
"                                                                                                                        ",
"                                                                                                                        ",
"                                                                                                                        ",
"                                                                                                                        ",
"                                                . . . . . . . . . . . .                                                 ",
"                                          . . . . . . . . . . . . . . . . . .                                           ",
"                                    . . . . . . . . . . . + + . . . . . . . . . . .                                     ",
"                                . . . . . . . . . . . + + + + + . . . . . . . . . . . .                                 ",
"                            . . + + + + + . . . . . + + + + + + + . . . . . . + + + + . . .                             ",
"                          . . + + + + + + + . .     + + + + + + +       . . + + + + + + . . .                           ",
"                        . . . + + + + + + +         + + + + + + +           + + + + + + + . . .                         ",
"                      . . . . + + + + + + +           + + + + + +         + + + + + + + + . . . .                       ",
"          + + + + + . . . . . + + + + + + +           + + + + +             + + + + + + . . . . . + + + + +             ",
"          + + + + + + . . . . . + + + + +               + + +               + + + + + + . . . . . + + + + + +           ",
"        + + + + + + + . . . . .   + + +                 + + +                 + + + +     . . . + + + + + + +           ",
"        + + + + + + + . . . .       + + +               + + +                 + + +       . . . + + + + + + +           ",
"        + + + + + + + . .           + + +               + + + +               + + +         . . + + + + + + +           ",
"          + + + + + + . .           + + +               + + + +             + + + +           . . + + + + + +           ",
"            + + + + . .             + + + +             + + + +             + + + +             . + + + + .             ",
"            . . + + +               + + + +           + + + + +           + + + + +             + + + + . .             ",
"            . . + + + +             + + + +           + + + + +           + + + + +             + + + . . . .           ",
"          . . . + + + +             + + + + +         + + + + + +         + + + + +           + + + + . . . .           ",
"          . . . + + + + +           + + + + +         + + + + + +       + + + + + +         + + + + + . . . .           ",
"          . . . . + + + + +         + + + + + +     + + + + + + +       + + + + + +         + + + + + . . . .           ",
"        . . . . . + + + + +         + + + + + +     + + + + + + +       + + + + + +       + + + + + + . . . . .         ",
"        . . . . . + + + + + +       + + + + + +     + + + + + + +     + + + + + + +       + + + + +   . . . . .         ",
"        . . . . . + + + + + + +     + + + + + + +   + + + + + + + +   + + + + + + +     + + + + + +   . . . . .         ",
"        . . . .   + + + + + + +     + + + + + + +   + + + + + + + + + + + + + + + +   + + + + + + +     . . . .         ",
"        . . . .     + + + + + + + + + + + + + + + + + + + + + + + + + + + + + + + +   + + + + + + +     . . . .         ",
"        . . . .     + + + + + + + + + + + + + + + + + + + + + + + + + + + + + + + + + + + + + + + +     . . . .         ",
"        . . . .     + + + + + + + + + + + + + + + + + + + + + + + + + + + + + + + + + + + + + + +       . . . .         ",
"        . . . .     + + + + + + + + + + + + + + + + + + + + + + + + + + + + + + + + + + + + + + +       . . . .         ",
"        . . . .     + + + + + + + + + + + + + + + + + + + + + + + + + + + + + + + + + + + + + + +       . . . .         ",
"        . . . . .     + + + + + + + + + + + + + + + + + + + + + + + + + + + + + + + + + + + + + +     . . . . .         ",
"        . . . . .     + + + + + + + + + + + @ # $ % & * = - ; > , ' ) ! ~ { + + + + + + + + + + +     . . . . .         ",
"        . . . . .     + + + + + + + ] ^ / ( _ _ _ _ _ _ _ _ _ _ _ _ _ _ _ : < [ } | + + + + + +       . . . . .         ",
"          . . . . .     + + 1 2 3 4 _ _ _ _ 5 6 7 8 9 [ 0 a b c d / e f g h _ _ _ : i j k l + +     . . . . .           ",
"          . . . . .     + m _ _ _ _ n o p q + + + + + + + + + + + + + + + r k j i : _ _ _ s t       . . . . .           ",
"          . . . . .       u v / ^ w + + + + + + + + + + + + + + + + + + + + + + + | x [ y z         . . . . .           ",
"            . . . . .       + + + + + + + + + + + + + + + + + + + + + + + + + + + + + + +         . . . . . .           ",
"            . . . . .         ! A e e e e e e e e e e e e e e e e e e e e e e e e e e B +         . . . . .             ",
"            . . . . . .       C _ _ _ _ _ _ _ _ _ _ _ _ _ _ _ _ _ _ _ _ _ _ _ _ _ _ _ D         . . . . . .             ",
"              . . . . . .     E F G G G G G G G G G G G G G G G G G G G G G G G G G G H +     . . . . . .               ",
"              . . . . . .     + + + + + + + + + + + + + + + + + + + + + + + + + + + + + +   . . . . . . .               ",
"                . . . . . . I o J K L + + + + + + + + + + + + + + + + + + + + + + M u N / w . . . . . .                 ",
"                . . . . . + O _ _ _ P 8 Q $ R + + + + + + + + + + + + + + S m T U h _ _ _ V . . . . .                   ",
"                  . . . . + W X 9 Y _ _ _ _ Z D `  ...T +.C Q @.#.A $.%.&._ _ _ _ *.=.-.;.+ . . . . .                   ",
"                    . . + + + + + + >.m T U h _ _ _ _ _ _ _ _ _ _ _ _ _ _ P 8 Q $ R + + + + . . . .                     ",
"                      . t ,.T '.).+ + + + + R S !.) m ~.+.d {.].^./.$ # (.+ + + + + E _.:.<.'.. .                       ",
"                        # Z _ _ Z y [.}.|.+ + + + + + + + + + + + + + + + + + 1.^.o D _ _ _ #..                         ",
"                          2.3.e 4._ _ _ &.5.6.-.^ '.;.7.8.+ L W !.9.0.a.@.b.c._ _ _ _ d.9 e..                           ",
"                            + + r x f.g.h _ _ _ _ _ _ _ _ *.Z _ _ _ _ _ _ _ _ P h.i.j.+ + .                             ",
"                                . . + + H k., [.l.m.y %.*._ n.o.U =.o = * p.q.{ + + . .                                 ",
"                                    . . . . + + + + + + + r { + + + + + + . . . . .                                     ",
"                                        . . . . . . . . . . . . . . . . . . .                                           ",
"                                                . . . . . . . . . . . .                                                 ",
"                                                                                                                        ",
"                                                                                                                        ",
"                                                                                                                        ",
"                                                                                                                        "};
