/* XPM */
static char * BlackBishop_xpm[] = {
"60 60 51 1",
" 	c #3EA937",
".	c #6A874D",
"+	c #000000",
"@	c #898989",
"#	c #B7B7B7",
"$	c #020202",
"%	c #DFDFDF",
"&	c #FFFFFF",
"*	c #1F1F1F",
"=	c #E0E0E0",
"-	c #202020",
";	c #010101",
">	c #757575",
",	c #A0A0A0",
"'	c #F4F4F4",
")	c #ACACAC",
"!	c #959595",
"~	c #0E0E0E",
"{	c #131313",
"]	c #FCFCFC",
"^	c #535353",
"/	c #3C3C3C",
"(	c #606060",
"_	c #ECECEC",
":	c #747474",
"<	c #4B4B4B",
"[	c #DADADA",
"}	c #1E1E1E",
"|	c #515151",
"1	c #7B7B7B",
"2	c #3A3A3A",
"3	c #E9E9E9",
"4	c #F8F8F8",
"5	c #F6F6F6",
"6	c #737373",
"7	c #424242",
"8	c #FEFEFE",
"9	c #777777",
"0	c #040404",
"a	c #080808",
"b	c #060606",
"c	c #5C5C5C",
"d	c #A6A6A6",
"e	c #A8A8A8",
"f	c #767676",
"g	c #B9B9B9",
"h	c #F7F7F7",
"i	c #171717",
"j	c #575757",
"k	c #585858",
"l	c #262626",
"                                                            ",
"                                                            ",
"                                                            ",
"                                                            ",
"                        ............                        ",
"                     ..................                     ",
"                  ........................                  ",
"                ............++++............                ",
"              .............++++++.............              ",
"             ...........  ++++++++  ...........             ",
"            .........     ++++++++     .........            ",
"           ........       ++++++++      .........           ",
"          .......         ++++++++        ........          ",
"         ........          +++++++          .......         ",
"        ........           ++++++            ......         ",
"        .......           +++++++++          .......        ",
"       ......           ++++++++++++          .......       ",
"       ......          ++++++++++++++          ......       ",
"      ......          +++++++++++++++++         ......      ",
"      .....          +++++++++++++++++++         .....      ",
"      .....         +++++++++@#$++++++++         ......     ",
"     .....         ++++++++++%&*+++++++++        ......     ",
"     .....         ++++++++++=&-++++++++++        .....     ",
"     .....        +++++++;>,,'&),!~+++++++        .....     ",
"    .....         +++++++{]&&&&&&&^+++++++         .....    ",
"    .....         ++++++++/((_&:(<$++++++++        .....    ",
"    .....         +++++++++++=&-+++++++++++        .....    ",
"    ....          +++++++++++[&}+++++++++++         ....    ",
"    ....          +++++++++++|1;+++++++++++         ....    ",
"    ....          +++++++++++++++++++++++++         ....    ",
"    ....          ++++++++++++++++++++++++          ....    ",
"    ....          ++++++++++++++++++++++++          ....    ",
"    ....           +++++++++++++++++++++++          ....    ",
"    .....           +++++++++++++++++++++          .....    ",
"    .....           ++2344444444444456++           .....    ",
"    .....            +7]&&&&&&&&&&&&89+            .....    ",
"     .....           ++0aaaaaaaaaaaab+++          .....     ",
"     .....          ++++++++++++++++++++          .....     ",
"     .....          +++++++++++++++++++++         .....     ",
"      .....        cdeeeeeeeeeeeeeeeeeeef        ......     ",
"      .....        g&&&&&&&&&&&&&&&&&&&&h        .....      ",
"      ......       ijkkkkkkkkkkkkkkkkkkkl       ......      ",
"       ......      ++++++++++++++++++++++      ......       ",
"       ......      ++++++++++++++++++++++     .......       ",
"        ......       +++++++++++++++++++     .......        ",
"        ........       ++++++++++++++        ......         ",
"         ........       +++++++++++++       .......         ",
"          .++++++++++++++++++++++++++++++++++++++.          ",
"         +++++++++++++++++++++++++++++++++++++++++          ",
"        ++++++++++++++++++++++++++++++++++++++++++++        ",
"       ++++++++++++++++++++++++++++++++++++++++++++++       ",
"       ++++++++++++++++++++++  ++++++++++++++++++++++       ",
"         ++++   ............................   +++++        ",
"                  ........................                  ",
"                    ...................                     ",
"                        ............                        ",
"                                                            ",
"                                                            ",
"                                                            ",
"                                                            "};
