/* XPM */
static char * greenpoint_xpm[] = {
"60 60 8 1",
" 	c #3EA937",
".	c #708F52",
"+	c #6D8B50",
"@	c #6B884E",
"#	c #6A874D",
"$	c #6E8C50",
"%	c #719053",
"&	c #749455",
"                                                            ",
"                                                            ",
"                                                            ",
"                                                            ",
"                                                            ",
"                                                            ",
"                                                            ",
"                                                            ",
"                                                            ",
"                                                            ",
"                                                            ",
"                                                            ",
"                                                            ",
"                                                            ",
"                                                            ",
"                                                            ",
"                                                            ",
"                          .+@##@+.                          ",
"                        $##########$                        ",
"                      %##############%                      ",
"                     .################.                     ",
"                    %##################%                    ",
"                    ####################                    ",
"                   $####################$                   ",
"                   ######################                   ",
"                  .######################.                  ",
"                  +######################+                  ",
"                  @######################@                  ",
"                  ########################                  ",
"                  ########################                  ",
"                  ########################                  ",
"                  @######################@                  ",
"                  +######################+                  ",
"                  .######################.                  ",
"                  &######################&                  ",
"                   $####################$                   ",
"                   &####################                    ",
"                    %##################%                    ",
"                     .################.                     ",
"                      %##############%                      ",
"                       &$##########$                        ",
"                          .+@##@+.                          ",
"                                                            ",
"                                                            ",
"                                                            ",
"                                                            ",
"                                                            ",
"                                                            ",
"                                                            ",
"                                                            ",
"                                                            ",
"                                                            ",
"                                                            ",
"                                                            ",
"                                                            ",
"                                                            ",
"                                                            ",
"                                                            ",
"                                                            ",
"                                                            "};
