/* XPM */
static char * WhiteRook_xpm[] = {
"60 60 46 1",
" 	c #3EA937",
".	c #6A874D",
"+	c #000000",
"@	c #3F3F3F",
"#	c #FFFFFF",
"$	c #171717",
"%	c #676767",
"&	c #E7E7E7",
"*	c #272727",
"=	c #4F4F4F",
"-	c #777777",
";	c #070707",
">	c #EFEFEF",
",	c #D7D7D7",
"'	c #595959",
")	c #575757",
"!	c #5F5F5F",
"~	c #EAEAEA",
"{	c #F7F7F7",
"]	c #6D6D6D",
"^	c #B9B9B9",
"/	c #A7A7A7",
"(	c #414141",
"_	c #0A0A0A",
":	c #4B4B4B",
"<	c #525252",
"[	c #131313",
"}	c #1C1C1C",
"|	c #DBDBDB",
"1	c #F0F0F0",
"2	c #373737",
"3	c #A3A3A3",
"4	c #0E0E0E",
"5	c #585858",
"6	c #464646",
"7	c #1B1B1B",
"8	c #424242",
"9	c #B0B0B0",
"0	c #5C5C5C",
"a	c #020202",
"b	c #CBCBCB",
"c	c #323232",
"d	c #4C4C4C",
"e	c #010101",
"f	c #1E1E1E",
"g	c #030303",
"                                                            ",
"                                                            ",
"                                                            ",
"                                                            ",
"                        ............                        ",
"                     ..................                     ",
"                  ........................                  ",
"                ............................                ",
"              .............      .............              ",
"             ...........            ...........             ",
"            ...+++++++     ++++++++    ..++++++.            ",
"           ....+++++++     ++++++++     +++++++..           ",
"          .....+@###$+    ++@####%++    ++&##%+...          ",
"         ......+@###*+++++++=####-+++++++;>##%+....         ",
"        .......+@###,')))))!~####{]))))))^###%+....         ",
"        .......+@############################%+.....        ",
"       ......  +*////////////////////////////(+......       ",
"       ......  +++++++++++++++++++++++++++++++++.....       ",
"      ......   ++_:))))))))))))))))))))))))<[++ ......      ",
"      .....     ++}|######################12++   .....      ",
"      .....      ++}3/////////////////////2++    ......     ",
"     .....        +4(555555555555555555556$+     ......     ",
"     .....         +@####################%+       .....     ",
"     .....         +@####################%+       .....     ",
"    .....          +@####################%+        .....    ",
"    .....          +@####################%+        .....    ",
"    .....          +@####################%+        .....    ",
"    ....           +@####################%+         ....    ",
"    ....           +@####################%+         ....    ",
"    ....           +@####################%+         ....    ",
"    ....           +@####################%+         ....    ",
"    ....           +@####################%+         ....    ",
"    ....           +@####################%+         ....    ",
"    .....          +@####################%+        .....    ",
"    .....          +@####################%+        .....    ",
"    .....          +@####################%+        .....    ",
"     .....         +@####################%+       .....     ",
"     .....         +4====================7+       .....     ",
"     .....        ++8999999999999999999990++      .....     ",
"      .....       +ab####################&4+     ......     ",
"      .....      ++c//////////////////////d++    .....      ",
"      ......    +++++++++++++++++++++++++++++e  ......      ",
"       ......   ++7fffffffffffffffffffffffffg+ ......       ",
"       ......   ++&#########################$+.......       ",
"        ......  ++&#########################$+......        ",
"        ........++&#########################$+.....         ",
"         ....+++++++++++++++++++++++++++++++++++++.         ",
"          ..++++++++++++++++++++++++++++++++++++++          ",
"           .++&#################################$+          ",
"            ++&#################################$+          ",
"            ++++++++++++++++++++++++++++++++++++++          ",
"             +++++++++++++++++++++++++++++++++++++          ",
"                ............................                ",
"                  ........................                  ",
"                    ...................                     ",
"                        ............                        ",
"                                                            ",
"                                                            ",
"                                                            ",
"                                                            "};
