/* XPM */
static char * WhiteKing_xpm[] = {
"60 60 197 2",
"  	c #3EA937",
". 	c #6A874D",
"+ 	c #000000",
"@ 	c #212121",
"# 	c #707070",
"$ 	c #4B4B4B",
"% 	c #020202",
"& 	c #414141",
"* 	c #F3F3F3",
"= 	c #FFFFFF",
"- 	c #AAAAAA",
"; 	c #0C0C0C",
"> 	c #E4E4E4",
", 	c #686868",
"' 	c #6E6E6E",
") 	c #DEDEDE",
"! 	c #A4A4A4",
"~ 	c #141414",
"{ 	c #171717",
"] 	c #424242",
"^ 	c #353535",
"/ 	c #131313",
"( 	c #9A9A9A",
"_ 	c #090909",
": 	c #050505",
"< 	c #242424",
"[ 	c #444444",
"} 	c #323232",
"| 	c #0A0A0A",
"1 	c #767676",
"2 	c #E8E8E8",
"3 	c #E9E9E9",
"4 	c #8C8C8C",
"5 	c #262626",
"6 	c #EBEBEB",
"7 	c #040404",
"8 	c #555555",
"9 	c #C0C0C0",
"0 	c #FDFDFD",
"a 	c #FEFEFE",
"b 	c #D8D8D8",
"c 	c #5C5C5C",
"d 	c #010101",
"e 	c #181818",
"f 	c #D4D4D4",
"g 	c #B2B2B2",
"h 	c #1A1A1A",
"i 	c #282828",
"j 	c #A1A1A1",
"k 	c #545454",
"l 	c #E5E5E5",
"m 	c #C9C9C9",
"n 	c #B7B7B7",
"o 	c #EDEDED",
"p 	c #DBDBDB",
"q 	c #6D6D6D",
"r 	c #898989",
"s 	c #CDCDCD",
"t 	c #C5C5C5",
"u 	c #070707",
"v 	c #E2E2E2",
"w 	c #7D7D7D",
"x 	c #BBBBBB",
"y 	c #BABABA",
"z 	c #525252",
"A 	c #2B2B2B",
"B 	c #6F6F6F",
"C 	c #2D2D2D",
"D 	c #787878",
"E 	c #999999",
"F 	c #656565",
"G 	c #363636",
"H 	c #3B3B3B",
"I 	c #191919",
"J 	c #F7F7F7",
"K 	c #CCCCCC",
"L 	c #595959",
"M 	c #CBCBCB",
"N 	c #8D8D8D",
"O 	c #B0B0B0",
"P 	c #3F3F3F",
"Q 	c #666666",
"R 	c #F5F5F5",
"S 	c #888888",
"T 	c #030303",
"U 	c #E1E1E1",
"V 	c #474747",
"W 	c #FBFBFB",
"X 	c #222222",
"Y 	c #717171",
"Z 	c #9D9D9D",
"` 	c #BEBEBE",
" .	c #D2D2D2",
"..	c #0E0E0E",
"+.	c #161616",
"@.	c #D5D5D5",
"#.	c #1E1E1E",
"$.	c #B5B5B5",
"%.	c #F9F9F9",
"&.	c #C8C8C8",
"*.	c #AEAEAE",
"=.	c #959595",
"-.	c #636363",
";.	c #313131",
">.	c #ABABAB",
",.	c #C4C4C4",
"'.	c #C7C7C7",
").	c #F2F2F2",
"!.	c #B1B1B1",
"~.	c #6A6A6A",
"{.	c #2F2F2F",
"].	c #111111",
"^.	c #A9A9A9",
"/.	c #ECECEC",
"(.	c #060606",
"_.	c #464646",
":.	c #D7D7D7",
"<.	c #1D1D1D",
"[.	c #4F4F4F",
"}.	c #818181",
"|.	c #848484",
"1.	c #6B6B6B",
"2.	c #393939",
"3.	c #1F1F1F",
"4.	c #A5A5A5",
"5.	c #FAFAFA",
"6.	c #F0F0F0",
"7.	c #646464",
"8.	c #3A3A3A",
"9.	c #C6C6C6",
"0.	c #EAEAEA",
"a.	c #8A8A8A",
"b.	c #434343",
"c.	c #121212",
"d.	c #1C1C1C",
"e.	c #F4F4F4",
"f.	c #979797",
"g.	c #292929",
"h.	c #BCBCBC",
"i.	c #A2A2A2",
"j.	c #565656",
"k.	c #3D3D3D",
"l.	c #232323",
"m.	c #535353",
"n.	c #6C6C6C",
"o.	c #868686",
"p.	c #9F9F9F",
"q.	c #B9B9B9",
"r.	c #D3D3D3",
"s.	c #FCFCFC",
"t.	c #0B0B0B",
"u.	c #EFEFEF",
"v.	c #0F0F0F",
"w.	c #515151",
"x.	c #E3E3E3",
"y.	c #5B5B5B",
"z.	c #757575",
"A.	c #8E8E8E",
"B.	c #A7A7A7",
"C.	c #D9D9D9",
"D.	c #DCDCDC",
"E.	c #C3C3C3",
"F.	c #919191",
"G.	c #777777",
"H.	c #5E5E5E",
"I.	c #454545",
"J.	c #484848",
"K.	c #929292",
"L.	c #9B9B9B",
"M.	c #DFDFDF",
"N.	c #D1D1D1",
"O.	c #808080",
"P.	c #C2C2C2",
"Q.	c #878787",
"R.	c #202020",
"S.	c #696969",
"T.	c #838383",
"U.	c #E7E7E7",
"V.	c #9C9C9C",
"W.	c #0D0D0D",
"X.	c #343434",
"Y.	c #1B1B1B",
"Z.	c #939393",
"`.	c #F1F1F1",
" +	c #B4B4B4",
".+	c #E6E6E6",
"++	c #CFCFCF",
"@+	c #B6B6B6",
"#+	c #7C7C7C",
"$+	c #A8A8A8",
"%+	c #606060",
"&+	c #C1C1C1",
"*+	c #575757",
"=+	c #DDDDDD",
"-+	c #A6A6A6",
";+	c #616161",
">+	c #373737",
"                                                                                                                        ",
"                                                                                                                        ",
"                                                                                                                        ",
"                                                                                                                        ",
"                                                . . . . . . . . . . . .                                                 ",
"                                          . . . . . . . . . . . . . . . . . .                                           ",
"                                    . . . . . . . . . . . . . . . . . . . . . . . .                                     ",
"                                . . . . . . . . . . . . . . + + . . . . . . . . . . . .                                 ",
"                            . . . . . . . . . . . . .       + +   . . . . . . . . . . . . .                             ",
"                          . . . . . . . . . . .       + + + + + + + +   . . . . . . . . . . .                           ",
"                        . . . . . . . . .             + + + + + + + +         . . . . . . . . .                         ",
"                      . . . . . . . .                       + +                 . . . . . . . . .                       ",
"                    . . . . . . .                           + +                     . . . . . . . .                     ",
"                  . . . . . . . .                           + +                         . . . . . . .                   ",
"                . . . . . . . .                             + +                           . . . . . .                   ",
"                . . . . . . .                           + + + + +                         . . . . . . .                 ",
"              . . . . . .                             + + @ # $ % +                         . . . . . . .               ",
"              . . . . . .                           + + & * = = - % +                         . . . . . .               ",
"            . . . . . .                             + ; > = = = = , + +                         . . . . . .             ",
"            . . . . .                               + ' = = = = = ) + +                           . . . . .             ",
"            . . . . .     + + + + + + + +         + + ! = = = = = = ~ +       + + + + + + + + +   . . . . . .           ",
"          . . . . .   + + + + { ] ^ / + + + +     + + ( = = = = = = _ +   + + + + : < [ } | + + + + . . . . .           ",
"          . . . . . + + : 1 2 = = = = 3 4 5 + + + + + 1 = = = = = 6 + + + + 7 8 9 0 = = = a b c d + + . . . .           ",
"          . . . . . + e f = = = = = = = = = g h + + + i = = = = = j + + + k l = = = = = = = = = m < + + . . .           ",
"        . . . . . + d n = = = = = = = = = = = o 8 + + + b = = = = @ + _ ( = = = = = = = = = = = = p ~ + + . . .         ",
"        . . . . + + q = = = = = = = = = = = = = = r + + c = = = r + | s = = = = = = = = = = = = = = t u + . . .         ",
"        . . . . + + v = = = = = = = = = = = = = = = w + % x = y % + - = = = = = = = = = = = = = = = = z + . . .         ",
"        . . . . + A = = = = = = = = = = = = = = = = = B + { * C + D = = = = = = = = = = = = = = = = = E + + . .         ",
"        . . . . + F = = = = = = = = = = = = = = = = = a G + H + I J = = = = = = = = = = = = = = = = = K + + . .         ",
"        . . . . + L = = = = = = = = = = = = = = = = = = M % + + N = = = = = = = = = = = = = = = = = = O + + . .         ",
"        . . . . + P = = = = = = = = = = = = = = = = = = = Q + ~ R = = = = = = = = = = = = = = = = = = S + + . .         ",
"        . . . . + T U = = = = = = = = = = = = = = = = = = n + V = = = = = = = = = = = = = = = = = = W X + . . .         ",
"        . . . . + + Y = = = = = = = = = = = = = = = = = = n + V = = = = = = = = = = = = = = = = = = Z + + . . .         ",
"        . . . . . + T ` = = = = = = = = = = = = = = = = = n + V = = = = = = = = = = = = = = = = =  ...+ . . . .         ",
"        . . . . . + + +.@.= = = = = = = = = = = = = = = = n + V = = = = = = = = = = = = = = = = > #.+ + . . . .         ",
"        . . . . .   + + ..$.= = = = = = = = = = %.U &.*.=.-.+ ;.>.,.) J = = = = = = = = = = = '.h + + . . . . .         ",
"          . . . . .   + + % 4 = = = = ).!.~.{.~ d + + + + + + + + + + + ].A -.^./.= = = = = ( (.+ + . . . . .           ",
"          . . . . .       + + _.:.!.[ : + + + + : <.G [., }.|.1.z 2.3.u + + + + % H 4.5.6.7.+ + +   . . . . .           ",
"          . . . . .         + + 7 + + T 8.}.9.0.a = = = = = = = = = = = o K a.b.u + + c.; + +       . . . . .           ",
"            . . . . .         + + d.a.o = = = = = = = = = = = = = = = = = = = = e.f.g.+ + +       . . . . . .           ",
"            . . . . .         + + /.= = = a :.h.i.r # j.k.l.@ 8.m.n.o.p.q.r.s.= = = a t.+         . . . . .             ",
"            . . . . . .       + + u.0.p.L ~ + + + + + + + + + + + + + + + + v.w.f.x.= v.+       . . . . . .             ",
"              . . . . . .     + + y.u + + + #.] c z.A.B.9 C.D.E.- F.G.H.I.< + + + 7 8 ; +     . . . . . .               ",
"              . . . . . .     + + + % J.K.C.= = = = = = = = = = = = = = = = v L.m.u + + +   . . . . . . .               ",
"                . . . . . .   + + 1.M.= = = = = = = = = o r.N.0.a = = = = = = = = 2 O.d + . . . . . . .                 ",
"                . . . . . . . + + u.= = W P.Q.n.z 2.R.u + + + + : d.G [.S.T.x J = = = v.+ . . . . . .                   ",
"                  . . . . . . + + U.V.[.W.+ + + + + + % e ;.X.Y.7 + + + + + + _ V Z.`.v.+ . . . . . .                   ",
"                    . . . . . + + c.+ + d ;.1 (  +s .+s.= = = = 0 3 ++@+Z #+8.T + + ; (.+ . . . . .                     ",
"                      . . . . + + + C Z 2 = = = = = = = = = = = = = = = = = = u.$+H + + + . . . .                       ",
"                        . . . + + + : %+@+%.= = = = = = = = = = = = = = = = 0 &+n.t.+ + + . . .                         ",
"                          . . . . + + + + ..*+|.i.9 =+%.= = = = W U E.-+S ;++.+ + + + . . . .                           ",
"                              . . . . . + + + + + + + d I >+8.<.T + + + + + + + + . . . . .                             ",
"                                . . . . . . . + + + + + + + + + + + + + + . . . . . . .                                 ",
"                                    . . . . . . . . . . . . . . . . . . . . . . . .                                     ",
"                                        . . . . . . . . . . . . . . . . . . .                                           ",
"                                                . . . . . . . . . . . .                                                 ",
"                                                                                                                        ",
"                                                                                                                        ",
"                                                                                                                        ",
"                                                                                                                        "};
