/* XPM */
static char * WhiteQueen_xpm[] = {
"60 60 194 2",
"  	c #3EA937",
". 	c #6A874D",
"+ 	c #000000",
"@ 	c #050505",
"# 	c #B2B2B2",
"$ 	c #F3F3F3",
"% 	c #5E5E5E",
"& 	c #0E0E0E",
"* 	c #8A8A8A",
"= 	c #898989",
"- 	c #0B0B0B",
"; 	c #242424",
"> 	c #FFFFFF",
", 	c #C4C4C4",
"' 	c #717171",
") 	c #696969",
"! 	c #ABABAB",
"~ 	c #EEEEEE",
"{ 	c #5A5A5A",
"] 	c #656565",
"^ 	c #F4F4F4",
"/ 	c #4A4A4A",
"( 	c #434343",
"_ 	c #010101",
": 	c #CCCCCC",
"< 	c #1C1C1C",
"[ 	c #202020",
"} 	c #606060",
"| 	c #EFEFEF",
"1 	c #A4A4A4",
"2 	c #020202",
"3 	c #7F7F7F",
"4 	c #474747",
"5 	c #222222",
"6 	c #C3C3C3",
"7 	c #1F1F1F",
"8 	c #565656",
"9 	c #838383",
"0 	c #FAFAFA",
"a 	c #151515",
"b 	c #2A2A2A",
"c 	c #454545",
"d 	c #A7A7A7",
"e 	c #737373",
"f 	c #BCBCBC",
"g 	c #5D5D5D",
"h 	c #ADADAD",
"i 	c #4D4D4D",
"j 	c #090909",
"k 	c #D7D7D7",
"l 	c #919191",
"m 	c #1A1A1A",
"n 	c #FBFBFB",
"o 	c #3E3E3E",
"p 	c #171717",
"q 	c #464646",
"r 	c #888888",
"s 	c #3B3B3B",
"t 	c #7E7E7E",
"u 	c #070707",
"v 	c #C6C6C6",
"w 	c #1B1B1B",
"x 	c #2F2F2F",
"y 	c #9F9F9F",
"z 	c #555555",
"A 	c #F5F5F5",
"B 	c #030303",
"C 	c #E3E3E3",
"D 	c #C2C2C2",
"E 	c #CBCBCB",
"F 	c #2B2B2B",
"G 	c #4E4E4E",
"H 	c #2C2C2C",
"I 	c #979797",
"J 	c #C5C5C5",
"K 	c #676767",
"L 	c #BBBBBB",
"M 	c #5F5F5F",
"N 	c #B6B6B6",
"O 	c #C7C7C7",
"P 	c #6C6C6C",
"Q 	c #9A9A9A",
"R 	c #929292",
"S 	c #212121",
"T 	c #FDFDFD",
"U 	c #414141",
"V 	c #6F6F6F",
"W 	c #878787",
"X 	c #1D1D1D",
"Y 	c #F2F2F2",
"Z 	c #161616",
"` 	c #444444",
" .	c #939393",
"..	c #545454",
"+.	c #E9E9E9",
"@.	c #B3B3B3",
"#.	c #EBEBEB",
"$.	c #191919",
"%.	c #EAEAEA",
"&.	c #121212",
"*.	c #F8F8F8",
"=.	c #E6E6E6",
"-.	c #040404",
";.	c #505050",
">.	c #909090",
",.	c #818181",
"'.	c #767676",
").	c #787878",
"!.	c #141414",
"~.	c #373737",
"{.	c #D9D9D9",
"].	c #EDEDED",
"^.	c #C0C0C0",
"/.	c #E4E4E4",
"(.	c #8D8D8D",
"_.	c #626262",
":.	c #5C5C5C",
"<.	c #8C8C8C",
"[.	c #0F0F0F",
"}.	c #252525",
"|.	c #3A3A3A",
"1.	c #4F4F4F",
"2.	c #4B4B4B",
"3.	c #363636",
"4.	c #7D7D7D",
"5.	c #E2E2E2",
"6.	c #D5D5D5",
"7.	c #B4B4B4",
"8.	c #2E2E2E",
"9.	c #0D0D0D",
"0.	c #FEFEFE",
"a.	c #DADADA",
"b.	c #7C7C7C",
"c.	c #A9A9A9",
"d.	c #DDDDDD",
"e.	c #C1C1C1",
"f.	c #B8B8B8",
"g.	c #B1B1B1",
"h.	c #AAAAAA",
"i.	c #A2A2A2",
"j.	c #9B9B9B",
"k.	c #949494",
"l.	c #858585",
"m.	c #8F8F8F",
"n.	c #9E9E9E",
"o.	c #A5A5A5",
"p.	c #ACACAC",
"q.	c #C9C9C9",
"r.	c #060606",
"s.	c #3F3F3F",
"t.	c #1E1E1E",
"u.	c #0A0A0A",
"v.	c #353535",
"w.	c #646464",
"x.	c #6B6B6B",
"y.	c #727272",
"z.	c #7A7A7A",
"A.	c #777777",
"B.	c #707070",
"C.	c #686868",
"D.	c #616161",
"E.	c #525252",
"F.	c #383838",
"G.	c #181818",
"H.	c #DEDEDE",
"I.	c #F6F6F6",
"J.	c #282828",
"K.	c #E5E5E5",
"L.	c #C8C8C8",
"M.	c #8E8E8E",
"N.	c #515151",
"O.	c #484848",
"P.	c #404040",
"Q.	c #323232",
"R.	c #4C4C4C",
"S.	c #666666",
"T.	c #7B7B7B",
"U.	c #989898",
"V.	c #B5B5B5",
"W.	c #D2D2D2",
"X.	c #101010",
"Y.	c #BFBFBF",
"Z.	c #D1D1D1",
"`.	c #CDCDCD",
" +	c #A1A1A1",
".+	c #272727",
"++	c #AEAEAE",
"@+	c #262626",
"#+	c #999999",
"$+	c #B9B9B9",
"%+	c #BEBEBE",
"&+	c #A6A6A6",
"*+	c #969696",
"=+	c #8B8B8B",
"                                                                                                                        ",
"                                                                                                                        ",
"                                                                                                                        ",
"                                                                                                                        ",
"                                                . . . . . . . . . . . .                                                 ",
"                                          . . . . . . . . . . . . . . . . . .                                           ",
"                                    . . . . . . . . . . . . . . . . . . . . . . . .                                     ",
"                                . . . . . . . . . . . . . + + + . . . . . . . . . . . .                                 ",
"                            . . . . + + . . . . . . . + + + @ + + . . . . . . . . . . . . .                             ",
"                          . . . + + + + + + . .       + + # $ % + +     . . . . + + + . . . .                           ",
"                        . . . . + & * = - +           + ; > > , + +           + + @ + + + . . .                         ",
"                      . . . . + + ' > > ) + +         + + ! ~ { + +         + + ] ^ ! + + . . . .                       ",
"                    . . . . . . + / > > ( +           + + + _ + +           + + : > > < + . . . . .                     ",
"              + + + . . . . . . + + [ [ + +               + + +             + + } | 1 + + . . . . . . + + +             ",
"          + + + @ + + . . . . .   + + + +                 + + +               + + _ + + + . . . . + + + @ + +           ",
"          + + # $ % + + . . .       + +                   + + +                 + + +     . . . . + + # $ % + +         ",
"          + ; > > , + + .           + + +                 + + +                 + + +       . . . + ; > > , + +         ",
"          + + ! ~ { + + .           + + +               + + + +                 + + +         . . + + ! ~ { + +         ",
"          + + + 2 + + .             + + + +             + + < +               + + + +           . + + + 2 + +           ",
"            . + + + +               + + 2 +             + + 3 + +             + + + +             . + + + +             ",
"            . . . + + +             + + 4 +             + 5 6 + +           + + 7 + +             + + + . . .           ",
"          . . . . + + +             + + ! + +           + 8 ^ 2 +           + _ 9 + +           + + + + . . .           ",
"          . . . . + + + +           + + 0 a +         + + = > b +           + c d + +           + + + . . . .           ",
"          . . . . + + 2 + +         + + > e + +       + + f > g +         + + h d + +         + + 2 + . . . .           ",
"        . . . . .   + i j +         + + > k + +       + + ~ > l + +       + m n d + +       + + o p + . . . . .         ",
"        . . . . .   + q r + +       + + > > s +       + 5 > > , + +     + + t > d + +       + u v + + . . . . .         ",
"        . . . . .   + w n x + +     + + > > y + +     + z > > A B +     + B C > d + +     + + 9 D + + . . . . .         ",
"        . . . .     + + | E B +     + + > > A & +   + + r > > > F +     + G > > d + +   + + H 0 I + +   . . . .         ",
"        . . . .     + + J > ' + +   + + > > > K + + + + L > > > M +   + + N > > d + +   + 2 O > P +     . . . .         ",
"        . . . .     + + Q > ^ 7 +   + + > > > E + + + + ~ > > > R + + + S T > > d + + + + P > > U +     . . . .         ",
"        . . . .       + V > > N + + + + > > > > x + + S > > > > J + + + W > > > d + + + X Y > > Z +     . . . .         ",
"        . . . .       + ` > > > { + + + > > > >  .+ + ..> > > > A B + @ +.> > > d + + + @.> > #.+ +     . . . .         ",
"        . . . .       + $.> > > %.&.+ + > > *.=.J -.+ ;.>.,.'.).9 !.+ ~.v {.].n d + + 8 > > > ^.+ +     . . . .         ",
"        . . . . .     + + /.^.(._.7 + + -.+ + + + + + + + + + + + + + + + + + + + + + F :.<.J >.+ +   . . . . .         ",
"        . . . . .     + + + + + + + + + + + @ [.m }.x |.c 1.z 2.U 3.F S Z - 2 + + + + + + + + + +     . . . . .         ",
"        . . . . .     + + _ $.|.:.4.y ^.5.0 > > > > > > > > > > > > > > > > > ^ 6.7.R ' 1.8.9.+ +     . . . . .         ",
"          . . . . .     + ( 0.> > > > > > > > > > > > > > > > > > > > > > > > > > > > > > > a.u +   . . . . .           ",
"          . . . . .     + + b.> > > > > > > > > > > > > > > > > > > > > > > > > > > > > > Y F + +   . . . . .           ",
"          . . . . .       + + c.> > > n d.e.f.g.h.i.j.k.(.l.,.r m.I n.o.p.7.L q.+.> > > 0.;.+ +     . . . . .           ",
"            . . . . .       + r.G s.t.B + + + + + + + + + + + + + + + + + + + + + u.b 2.v.+ +     . . . . . .           ",
"            . . . . .       + + + + + B t.s q G z :.w.x.y.z.t A.B.C.D.{ E.2.` F.G.+ + + + +       . . . . .             ",
"            . . . . . .       + + y.H.n > > > > > > > > > > > > > > > > > > > > > I.6.J.+ +     . . . . . .             ",
"              . . . . . .       + E.> > > > > > > > > > > > > > > > > > > > > > > > Y + +     . . . . . .               ",
"              . . . . . .       + P K.L.! M.y._.{ N.O.P.~.8.b Q.|.( R...g S.T.U.V.W.| X.+   . . . . . . .               ",
"                . . . . . .   + + B + + + + + + + + + + + + + + + + + + + + + + + + + B + . . . . . . .                 ",
"                . . . . . . . + + + !.Q.1.P * j.1 h N Y.L.Z.6.`., f @.h. +I 3 _.` .+u.+ + + . . . . .                   ",
"                  . . . . . + B >.I.> > > > > > > > > > > > > > > > > > > > > > > > > =.s + + . . . .                   ",
"                    . . . . + M > > > > > > > > > > > > > > > > > > > > > > > > > > > > p.+ + . . .                     ",
"                      . . + + ++> > > > > > > > > > > > > > > > > > > > > > > > > > > > V.+ + . .                       ",
"                        . + 7 *.> > > > > > > > > > > > > > > > > > > > > > > > > > > > *.@++ .                         ",
"                          + < `.A > > > > > > > > > > > > > > > > > > > > > > > > > > 0.+...+                           ",
"                          + + + + X.F q D.T.l #+ +c.g.$+e.q.`.v %+N ++&+n.*+=+y.8 s [ r.+ + +                           ",
"                            + + + + + + + + + + + + + + + + + + + + + + + + + + + + + + + +                             ",
"                                    . . . . + + + + + + + + + + + + + + + + + . . .                                     ",
"                                        . . . . . . . . . . . . . . . . . . .                                           ",
"                                                . . . . . . . . . . . .                                                 ",
"                                                                                                                        ",
"                                                                                                                        ",
"                                                                                                                        ",
"                                                                                                                        "};
