/* XPM */
static char * WhiteKnight_xpm[] = {
"60 60 137 2",
"  	c #3EA937",
". 	c #6A874D",
"+ 	c #000000",
"@ 	c #4B4B4B",
"# 	c #919191",
"$ 	c #2F2F2F",
"% 	c #C5C5C5",
"& 	c #8C8C8C",
"* 	c #FFFFFF",
"= 	c #4D4D4D",
"- 	c #747474",
"; 	c #D2D2D2",
"> 	c #070707",
", 	c #2E2E2E",
"' 	c #FDFDFD",
") 	c #6C6C6C",
"! 	c #5E5E5E",
"~ 	c #D1D1D1",
"{ 	c #888888",
"] 	c #878787",
"^ 	c #8E8E8E",
"/ 	c #EDEDED",
"( 	c #EBEBEB",
"_ 	c #838383",
": 	c #535353",
"< 	c #232323",
"[ 	c #010101",
"} 	c #A6A6A6",
"| 	c #F2F2F2",
"1 	c #C4C4C4",
"2 	c #828282",
"3 	c #1C1C1C",
"4 	c #181818",
"5 	c #F3F3F3",
"6 	c #FCFCFC",
"7 	c #AEAEAE",
"8 	c #444444",
"9 	c #A5A5A5",
"0 	c #BFBFBF",
"a 	c #1A1A1A",
"b 	c #686868",
"c 	c #DFDFDF",
"d 	c #4A4A4A",
"e 	c #373737",
"f 	c #FBFBFB",
"g 	c #6B6B6B",
"h 	c #B0B0B0",
"i 	c #FEFEFE",
"j 	c #898989",
"k 	c #C9C9C9",
"l 	c #E2E2E2",
"m 	c #727272",
"n 	c #5C5C5C",
"o 	c #929292",
"p 	c #404040",
"q 	c #090909",
"r 	c #E3E3E3",
"s 	c #797979",
"t 	c #2C2C2C",
"u 	c #E4E4E4",
"v 	c #EAEAEA",
"w 	c #7F7F7F",
"x 	c #E5E5E5",
"y 	c #F0F0F0",
"z 	c #737373",
"A 	c #6A6A6A",
"B 	c #C0C0C0",
"C 	c #1B1B1B",
"D 	c #F5F5F5",
"E 	c #040404",
"F 	c #030303",
"G 	c #3D3D3D",
"H 	c #A2A2A2",
"I 	c #D4D4D4",
"J 	c #191919",
"K 	c #B3B3B3",
"L 	c #313131",
"M 	c #676767",
"N 	c #2A2A2A",
"O 	c #9D9D9D",
"P 	c #9F9F9F",
"Q 	c #050505",
"R 	c #FAFAFA",
"S 	c #121212",
"T 	c #B9B9B9",
"U 	c #DADADA",
"V 	c #515151",
"W 	c #3C3C3C",
"X 	c #939393",
"Y 	c #BCBCBC",
"Z 	c #9A9A9A",
"` 	c #CECECE",
" .	c #C7C7C7",
"..	c #F8F8F8",
"+.	c #636363",
"@.	c #5B5B5B",
"#.	c #171717",
"$.	c #707070",
"%.	c #A8A8A8",
"&.	c #353535",
"*.	c #8A8A8A",
"=.	c #585858",
"-.	c #BDBDBD",
";.	c #141414",
">.	c #989898",
",.	c #CDCDCD",
"'.	c #8F8F8F",
").	c #F6F6F6",
"!.	c #0C0C0C",
"~.	c #A1A1A1",
"{.	c #9B9B9B",
"].	c #767676",
"^.	c #DDDDDD",
"/.	c #525252",
"(.	c #5A5A5A",
"_.	c #0B0B0B",
":.	c #F9F9F9",
"<.	c #0E0E0E",
"[.	c #DCDCDC",
"}.	c #757575",
"|.	c #282828",
"1.	c #303030",
"2.	c #ACACAC",
"3.	c #020202",
"4.	c #323232",
"5.	c #363636",
"6.	c #545454",
"7.	c #B2B2B2",
"8.	c #979797",
"9.	c #595959",
"0.	c #9E9E9E",
"a.	c #D9D9D9",
"b.	c #A9A9A9",
"c.	c #B8B8B8",
"d.	c #ADADAD",
"e.	c #1F1F1F",
"f.	c #151515",
"                                                                                                                        ",
"                                                                                                                        ",
"                                                                                                                        ",
"                                                                                                                        ",
"                                                . . . . . . . . . . . .                                                 ",
"                                          . . . . . . . . . . . . . . . . . .                                           ",
"                                    . . . . . . . . . . . . . . . . . . . . . . . .                                     ",
"                                . . . . . . . . . . . . . . . . . . . . . . . . . . . .                                 ",
"                            . . . . . + + . . . . . .   + + +     . . . . . . . . . . . . .                             ",
"                          . . . . . + + + + . .       + + + +           . . . . . . . . . . .                           ",
"                        . . . . . . + + @ + +       + + # $ +                 . . . . . . . . .                         ",
"                      . . . . . . . + + % $ + + + + + & * = + +                 . . . . . . . . .                       ",
"                    . . . . . . .   + + - ; > + + + , ' * ) + + + + + +             . . . . . . . .                     ",
"                  . . . . . . . .     + ! * ~ { ] ^ / * * ( _ : < [ + + + +             . . . . . . .                   ",
"                . . . . . . . .     + + } * * * * * * * * * * * * | 1 2 3 + + + +         . . . . . .                   ",
"                . . . . . . .       + 4 5 * * * * * * * * * * * * * * * 6 7 8 [ + +       . . . . . . .                 ",
"              . . . . . .         + + 9 * * * * * * * * * * * * * * * * * * * 0 a + +       . . . . . . .               ",
"              . . . . . .       + + b * ] , c * * * * * * * * * * * * * * * * * ( d + +       . . . . . .               ",
"            . . . . . .         + e f g + + h * * * * * * * * * * * * * * * * * * i j + +       . . . . . .             ",
"            . . . . .         + [ k k + + + l * * * * * * * * * * * * * * * * * * * * m + +       . . . . .             ",
"            . . . . .       + + n * o + + , * * * * * * * * * * * * * * * * * * * * * f p + +     . . . . . .           ",
"          . . . . .         + q r * s + t u * * * * * * * * * * * * * * * * * * * * * * v 3 + +   . . . . . .           ",
"          . . . . .       + + w * * x o y * * * * * * * * * * * z A * * * * * * * * * * * B + +     . . . . .           ",
"          . . . . .       + C D * * * * * * * * * * * * * * * ' E F i * * * * * * * * * * * G +     . . . . .           ",
"        . . . . .       + + H * * * * * * * * * * * * * * * * I + J * * * * * * * * * * * * K + +     . . . . .         ",
"        . . . . .       + L i * * * * * * * * * * * * * * * * n + M * * * * * * * * * * * * i N +     . . . . .         ",
"        . . . . .     + + K * * * * * * * * * * * * * * * * O + [ c * * * * * * * * * * * * * P + +   . . . . .         ",
"        . . . .       + e * * * * * * * * * * * * * * * * 0 Q + q * * * * * * * * * * * * * * R S +     . . . .         ",
"        . . . .     + + T * * * * * * * * * * * * * * * U S + + F * * * * * * * * * * * * * * * V +     . . . .         ",
"        . . . .     + W * * * * * * * * * * * * * * * k C + + + E ' * * * * * * * * * * * * * * X + +   . . . .         ",
"        . . . .   + + Y * * * * * * * * * * * * * * Z > + +   + t * * * * * * * * * * * * * * * I + +   . . . .         ",
"        . . . .   + 3 i `  .* * * * * * * * * * ..+.+ + +     + @.* * * * * * * * * * * * * * * * #.+   . . . .         ",
"        . . . . + + $.% [ + %.* * * * * * * * l &.+ +       + + *.* * * * * * * * * * * * * * * * =.+   . . . .         ",
"        . . . . + + 1 K + + X * * * * * * * -.;.+ +         + + T * * * * * * * * * * * * * * * * >.+ + . . . .         ",
"        . . . . + + ,.6 '.] ).* * * * * * # F + +           + !.y * * * * * * * * * * * * * * * * 0 + + . . . .         ",
"        . . . . + + ~.* * * / {.` * * i m + + +           + + ].* * * * * * * * * * * * * * * * * ^.+ + . . . .         ",
"          . . . . + - * * * /.+ > | i (.+ +               + _.v * * * * * * * * * * * * * * * * * :.[ + . . .           ",
"          . . . . + <.% * * < + + [._ + +               + + }.* * * * * * * * * * * * * * * * * * * 4 + . . .           ",
"          . . . . + + E |.1.+ + e 2.3.+               + + 4.D * * * * * * * * * * * * * * * * * * * 5.+ . . .           ",
"            . . . . + + + + + + < Q +               + + J r * * * * * * * * * * * * * * * * * * * * 6.+ . . .           ",
"            . . . . .         + + + +             + + _.k * * * * * * * * * * * * * * * * * * * * * m + . .             ",
"            . . . . . .                         + + > Y * * * * * * * * * * * * * * * * * * * * * * & + + .             ",
"              . . . . . .                       + E 7.* * * * * * * * * * * * * * * * * * * * * * * X + +               ",
"              . . . . . .                     + 3.%.* * * * * * * * * * * * * * * * * * * * * * * * 8.+ +               ",
"                . . . . . .                 + [ O * * * * * * * * * * * * * * * * * * * * * * * * * Z + +               ",
"                . . . . . . . .           + + 9.* * * * * * * * * * * * * * * * * * * * * * * * * * 0.+ +               ",
"                  . . . . . . . .         + F a.* * * * * * * * * * * * * * * * * * * * * * * * * * H + +               ",
"                    . . . . . . . .       + 9.* * * * * * * * * * * * * * * * * * * * * * * * * * * } + +               ",
"                      . . . . . . . .   + + # * * * * * * * * * * * * * * * * * * * * * * * * * * * b.+ +               ",
"                        . . . . . . . . + + c.* * * * * * * * * * * * * * * * * * * * * * * * * * * d.+ +               ",
"                          . . . . . . . + + J e.e.e.e.e.e.e.e.e.e.e.e.e.e.e.e.e.e.e.e.e.e.e.e.e.e.e.f.+ +               ",
"                              . . . . . + + + + + + + + + + + + + + + + + + + + + + + + + + + + + + + + +               ",
"                                . . . . . . . . . . . . . . . . . . . . . . . . . . . .                                 ",
"                                    . . . . . . . . . . . . . . . . . . . . . . . .                                     ",
"                                        . . . . . . . . . . . . . . . . . . .                                           ",
"                                                . . . . . . . . . . . .                                                 ",
"                                                                                                                        ",
"                                                                                                                        ",
"                                                                                                                        ",
"                                                                                                                        "};
