/* XPM */
static char * WhitePawn_xpm[] = {
"60 60 94 2",
"  	c #3EA937",
". 	c #6A874D",
"+ 	c #000000",
"@ 	c #060606",
"# 	c #3D3D3D",
"$ 	c #696969",
"% 	c #414141",
"& 	c #090909",
"* 	c #343434",
"= 	c #D7D7D7",
"- 	c #FFFFFF",
"; 	c #E0E0E0",
"> 	c #3E3E3E",
", 	c #121212",
"' 	c #E7E7E7",
") 	c #EFEFEF",
"! 	c #1A1A1A",
"~ 	c #7D7D7D",
"{ 	c #8D8D8D",
"] 	c #B2B2B2",
"^ 	c #C2C2C2",
"/ 	c #AEAEAE",
"( 	c #BFBFBF",
"_ 	c #7E7E7E",
": 	c #EBEBEB",
"< 	c #0D0D0D",
"[ 	c #0C0C0C",
"} 	c #C0C0C0",
"| 	c #CFCFCF",
"1 	c #111111",
"2 	c #2C2C2C",
"3 	c #D8D8D8",
"4 	c #DFDFDF",
"5 	c #353535",
"6 	c #2E2E2E",
"7 	c #F4F4F4",
"8 	c #F8F8F8",
"9 	c #3C3C3C",
"0 	c #DDDDDD",
"a 	c #EAEAEA",
"b 	c #141414",
"c 	c #6F6F6F",
"d 	c #D0D0D0",
"e 	c #E5E5E5",
"f 	c #020202",
"g 	c #232323",
"h 	c #EEEEEE",
"i 	c #010101",
"j 	c #A3A3A3",
"k 	c #B4B4B4",
"l 	c #656565",
"m 	c #777777",
"n 	c #070707",
"o 	c #C9C9C9",
"p 	c #0E0E0E",
"q 	c #1C1C1C",
"r 	c #E9E9E9",
"s 	c #F2F2F2",
"t 	c #292929",
"u 	c #FAFAFA",
"v 	c #FEFEFE",
"w 	c #525252",
"x 	c #040404",
"y 	c #B3B3B3",
"z 	c #C6C6C6",
"A 	c #D4D4D4",
"B 	c #DCDCDC",
"C 	c #4B4B4B",
"D 	c #1B1B1B",
"E 	c #A8A8A8",
"F 	c #E3E3E3",
"G 	c #242424",
"H 	c #0F0F0F",
"I 	c #D3D3D3",
"J 	c #161616",
"K 	c #CBCBCB",
"L 	c #0B0B0B",
"M 	c #FCFCFC",
"N 	c #212121",
"O 	c #929292",
"P 	c #7B7B7B",
"Q 	c #DADADA",
"R 	c #E8E8E8",
"S 	c #2A2A2A",
"T 	c #505050",
"U 	c #606060",
"V 	c #828282",
"W 	c #999999",
"X 	c #A9A9A9",
"Y 	c #ABABAB",
"Z 	c #BBBBBB",
"` 	c #222222",
" .	c #2F2F2F",
"..	c #252525",
"                                                                                                                        ",
"                                                                                                                        ",
"                                                                                                                        ",
"                                                                                                                        ",
"                                                . . . . . . . . . . . .                                                 ",
"                                          . . . . . . . . . . . . . . . . . .                                           ",
"                                    . . . . . . . . . . . . . . . . . . . . . . . .                                     ",
"                                . . . . . . . . . . . . . . . . . . . . . . . . . . . .                                 ",
"                            . . . . . . . . . . . . .             . . . . . . . . . . . . .                             ",
"                          . . . . . . . . . . .                         . . . . . . . . . . .                           ",
"                        . . . . . . . . .               + + + + + + +         . . . . . . . . .                         ",
"                      . . . . . . . .                 + + @ # $ % & + +         . . . . . . . . .                       ",
"                    . . . . . . .                   + + * = - - - ; > + +           . . . . . . . .                     ",
"                  . . . . . . . .                   + , ' - - - - - ) ! +               . . . . . . .                   ",
"                . . . . . . . .                   + + ~ - - - - - - - { + +               . . . . . .                   ",
"                . . . . . . .                     + + ] - - - - - - - ^ + +               . . . . . . .                 ",
"              . . . . . .                         + + / - - - - - - - ( + +                 . . . . . . .               ",
"              . . . . . .                         + + $ - - - - - - - _ + +                   . . . . . .               ",
"            . . . . . .                             + @ ; - - - - - : < +                       . . . . . .             ",
"            . . . . .                             + + [ } - - - - - | 1 + +                       . . . . .             ",
"            . . . . .                           + + 2 3 - - - - - - - 4 5 + +                     . . . . . .           ",
"          . . . . .                           + + 6 7 - - - - - - - - - 8 9 + +                   . . . . . .           ",
"          . . . . .                           + [ 0 - - - - - - - - - - - a b +                     . . . . .           ",
"          . . . . .                         + + c - - - - - - - - - - - - - _ + +                   . . . . .           ",
"        . . . . .                           + + d - - - - - - - - - - - - - e + +                     . . . . .         ",
"        . . . . .                           + f 8 - - - - - - - - - - - - - - 1 +                     . . . . .         ",
"        . . . . .                           + , - - - - - - - - - - - - - - - g +                     . . . . .         ",
"        . . . .                             + + 4 - - - - - - - - - - - - - h i +                       . . . .         ",
"        . . . .                             + + j - - - - - - - - - - - - - k + +                       . . . .         ",
"        . . . .                               + l - - - - - - - - - - - - - m + +                       . . . .         ",
"        . . . .                               + n o - - - - - - - - - - - 3 p +                         . . . .         ",
"        . . . .                               + + q r - - - - - - - - - s t + +                         . . . .         ",
"        . . . .                                 + + > u - - - - - - - v w + +                           . . . .         ",
"        . . . . .                               + + x y - - - - - - - z n + +                         . . . . .         ",
"        . . . . .                           + + + % A - - - - - - - - - B C + + +                     . . . . .         ",
"        . . . . .                         + + D E - - - - - - - - - - - - - k g + +                   . . . . .         ",
"          . . . . .                     + + q F - - - - - - - - - - - - - - - a G + +               . . . . .           ",
"          . . . . .                   + + H I - - - - - - - - - - - - - - - - - B J + +             . . . . .           ",
"          . . . . .                   + @ ( - - - - - - - - - - - - - - - - - - - K L +             . . . . .           ",
"            . . . . .               + + { - - - - - - - - - - - - - - - - - - - - - j + +         . . . . . .           ",
"            . . . . .               + , 7 - - - - - - - - - - - - - - - - - - - - - M N +         . . . . .             ",
"            . . . . . .           + + ~ - - - - - - - - - - - - - - - - - - - - - - - O + +     . . . . . .             ",
"              . . . . . .         + & a - - - - - - - - - - - - - - - - - - - - - - - 7 , +   . . . . . .               ",
"              . . . . . .       + + $ - - - - - - - - - - - - - - - - - - - - - - - - - P + + . . . . . .               ",
"                . . . . . .     + + Q - - - - - - - - - - - - - - - - - - - - - - - - - R f + . . . . .                 ",
"                . . . . . . . . + ! - - - - - - - - - - - - - - - - - - - - - - - - - - - S + . . . .                   ",
"                  . . . . . . . + T - - - - - - - - - - - - - - - - - - - - - - - - - - - U + . . . .                   ",
"                    . . . . . + + V - - - - - - - - - - - - - - - - - - - - - - - - - - - O + + . .                     ",
"                      . . . . + + W - - - - - - - - - - - - - - - - - - - - - - - - - - - X + + .                       ",
"                        . . . + + Y - - - - - - - - - - - - - - - - - - - - - - - - - - - Z + +                         ",
"                          . . + + `  . . . . . . . . . . . . . . . . . . . . . . . . . . ...+ +                         ",
"                              + + + + + + + + + + + + + + + + + + + + + + + + + + + + + + + + +                         ",
"                                . . . . . . . . . . . . . . . . . . . . . . . . . . . .                                 ",
"                                    . . . . . . . . . . . . . . . . . . . . . . . .                                     ",
"                                        . . . . . . . . . . . . . . . . . . .                                           ",
"                                                . . . . . . . . . . . .                                                 ",
"                                                                                                                        ",
"                                                                                                                        ",
"                                                                                                                        ",
"                                                                                                                        "};
