/* XPM */
static char * WhiteBishop_xpm[] = {
"60 60 151 2",
"  	c #3EA937",
". 	c #6A874D",
"+ 	c #000000",
"@ 	c #242424",
"# 	c #2C2C2C",
"$ 	c #7B7B7B",
"% 	c #FEFEFE",
"& 	c #FFFFFF",
"* 	c #A7A7A7",
"= 	c #010101",
"- 	c #191919",
"; 	c #414141",
"> 	c #202020",
", 	c #444444",
"' 	c #8D8D8D",
") 	c #B5B5B5",
"! 	c #020202",
"~ 	c #3A3A3A",
"{ 	c #434343",
"] 	c #282828",
"^ 	c #363636",
"/ 	c #404040",
"( 	c #BBBBBB",
"_ 	c #D0D0D0",
": 	c #555555",
"< 	c #343434",
"[ 	c #C4C4C4",
"} 	c #D6D6D6",
"| 	c #4B4B4B",
"1 	c #5A5A5A",
"2 	c #F7F7F7",
"3 	c #7E7E7E",
"4 	c #858585",
"5 	c #ABABAB",
"6 	c #0A0A0A",
"7 	c #9D9D9D",
"8 	c #686868",
"9 	c #464646",
"0 	c #C3C3C3",
"a 	c #030303",
"b 	c #181818",
"c 	c #E8E8E8",
"d 	c #7C7C7C",
"e 	c #1A1A1A",
"f 	c #EDEDED",
"g 	c #171717",
"h 	c #E7E7E7",
"i 	c #FBFBFB",
"j 	c #9E9E9E",
"k 	c #838383",
"l 	c #5F5F5F",
"m 	c #080808",
"n 	c #565656",
"o 	c #6F6F6F",
"p 	c #F5F5F5",
"q 	c #C6C6C6",
"r 	c #060606",
"s 	c #EFEFEF",
"t 	c #DEDEDE",
"u 	c #B4B4B4",
"v 	c #1F1F1F",
"w 	c #4C4C4C",
"x 	c #BDBDBD",
"y 	c #9F9F9F",
"z 	c #0E0E0E",
"A 	c #909090",
"B 	c #B6B6B6",
"C 	c #747474",
"D 	c #818181",
"E 	c #A9A9A9",
"F 	c #878787",
"G 	c #1D1D1D",
"H 	c #EAEAEA",
"I 	c #AFAFAF",
"J 	c #888888",
"K 	c #5D5D5D",
"L 	c #0F0F0F",
"M 	c #F8F8F8",
"N 	c #313131",
"O 	c #8F8F8F",
"P 	c #BCBCBC",
"Q 	c #040404",
"R 	c #DDDDDD",
"S 	c #131313",
"T 	c #090909",
"U 	c #727272",
"V 	c #F4F4F4",
"W 	c #121212",
"X 	c #070707",
"Y 	c #0C0C0C",
"Z 	c #CACACA",
"` 	c #1E1E1E",
" .	c #BFBFBF",
"..	c #DFDFDF",
"+.	c #0D0D0D",
"@.	c #666666",
"#.	c #8E8E8E",
"$.	c #424242",
"%.	c #515151",
"&.	c #111111",
"*.	c #2A2A2A",
"=.	c #C0C0C0",
"-.	c #D4D4D4",
";.	c #161616",
">.	c #525252",
",.	c #AAAAAA",
"'.	c #ECECEC",
").	c #F2F2F2",
"!.	c #636363",
"~.	c #050505",
"{.	c #252525",
"].	c #5C5C5C",
"^.	c #787878",
"/.	c #606060",
"(.	c #454545",
"_.	c #292929",
":.	c #141414",
"<.	c #D7D7D7",
"[.	c #E4E4E4",
"}.	c #6E6E6E",
"|.	c #232323",
"1.	c #2F2F2F",
"2.	c #353535",
"3.	c #3C3C3C",
"4.	c #474747",
"5.	c #8B8B8B",
"6.	c #A2A2A2",
"7.	c #FDFDFD",
"8.	c #D5D5D5",
"9.	c #A6A6A6",
"0.	c #626262",
"a.	c #3D3D3D",
"b.	c #303030",
"c.	c #6C6C6C",
"d.	c #CECECE",
"e.	c #E3E3E3",
"f.	c #ACACAC",
"g.	c #757575",
"h.	c #A3A3A3",
"i.	c #DADADA",
"j.	c #D3D3D3",
"k.	c #B1B1B1",
"l.	c #595959",
"m.	c #D8D8D8",
"n.	c #494949",
"o.	c #393939",
"p.	c #3F3F3F",
"q.	c #383838",
"r.	c #828282",
"s.	c #A4A4A4",
"t.	c #101010",
"                                                                                                                        ",
"                                                                                                                        ",
"                                                                                                                        ",
"                                                                                                                        ",
"                                                . . . . . . . . . . . .                                                 ",
"                                          . . . . . . . . . . . . . . . . . .                                           ",
"                                    . . . . . . . . . . . . . . . . . . . . . . . .                                     ",
"                                . . . . . . . . . . . . . + + + + . . . . . . . . . . .                                 ",
"                            . . . . . . . . . . . . .   + + @ # + + . . . . . . . . . . . .                             ",
"                          . . . . . . . . . . .       + + $ % & * = +   . . . . . . . . . . .                           ",
"                        . . . . . . . . .             + - % & & & ; +         . . . . . . . . .                         ",
"                      . . . . . . . .                 + > & & & & , +           . . . . . . . . .                       ",
"                    . . . . . . .                     + + ' & & ) ! +               . . . . . . . .                     ",
"                  . . . . . . . .                       + + ~ { ! + +                   . . . . . . .                   ",
"                . . . . . . . .                         + + + + + +                       . . . . . .                   ",
"                . . . . . . .                       + + + + ] ^ + + + +                   . . . . . . .                 ",
"              . . . . . .                         + + + / ( & & _ : ! + +                   . . . . . . .               ",
"              . . . . . .                       + + < [ & & & & & & } | + +                   . . . . . .               ",
"            . . . . . .                       + + 1 2 & & & & & & & & % 3 = + +                 . . . . . .             ",
"            . . . . .                       + = 4 & & & & & & & & & & & & 5 6 + +                 . . . . .             ",
"            . . . . .                     + + 7 & & & & & & 8 9 % & & & & & 0 a +                 . . . . . .           ",
"          . . . . .                     + + : & & & & & & & b + c & & & & & & d + +               . . . . . .           ",
"          . . . . .                     + e f & & & & & & & g + h & & & & & & i < + +               . . . . .           ",
"          . . . . .                   + + j & & & & i k l l m + n l o p & & & & q + +               . . . . .           ",
"        . . . . .                     + r s & & & & t = + + + + + + + u & & & & & v +                 . . . . .         ",
"        . . . . .                     + w & & & & & & x y y z + A y B % & & & & & C + +               . . . . .         ",
"        . . . . .                   + + D & & & & & & & & & g + h & & & & & & & & E + +               . . . . .         ",
"        . . . .                     + + F & & & & & & & & & G + H & & & & & & & & I + +                 . . . .         ",
"        . . . .                     + + ' & & & & & & & & & * J & & & & & & & & & ) + +                 . . . .         ",
"        . . . .                       + K & & & & & & & & & & & & & & & & & & & & 4 + +                 . . . .         ",
"        . . . .                       + L M & & & & & & & & & & & & & & & & & & & N +                   . . . .         ",
"        . . . .                       + + O & & & & & & & & & & & & & & & & & & P + +                   . . . .         ",
"        . . . .                         + Q P & & & & & & & & & & & & & & & & R S +                     . . . .         ",
"        . . . . .                       + + T U H & & & & & & & & & & & & V F W + +                   . . . . .         ",
"        . . . . .                         + + + = r X X X X X X X X X X X = + + +                     . . . . .         ",
"        . . . . .                           + + + + + + + + + + + + + + + + + +                       . . . . .         ",
"          . . . . .                       + + Y I 2 2 2 2 2 2 2 2 2 2 2 2 Z ` + +                   . . . . .           ",
"          . . . . .                       + =  .& & & & & & & & & & & & & & ..+.+                   . . . . .           ",
"          . . . . .                     + + @.& & & & & & & & & & & & & & & & #.+ +                 . . . . .           ",
"            . . . . .                   + + $.l l l l l l l l l l l l l l l l %.+ +               . . . . . .           ",
"            . . . . .                   + + + + + + + + + + + + + + + + + + + + + +               . . . . .             ",
"            . . . . . .                 + &.y y y y y y y y y y y y y y y y y y *.+             . . . . . .             ",
"              . . . . . .               + ! =.& & & & & & & & & & & & & & & & -.;.+           . . . . . .               ",
"              . . . . . .               + + = >.,.'.& & & & & & & & & & ).B !.~.+ +         . . . . . . .               ",
"                . . . . . .               + + + + + 6 {.; ].^.$ /.(._.z + + + + +         . . . . . . .                 ",
"                . . . . . . . .                 + + + + + + + + + + + + + +               . . . . . .                   ",
"                  . . . . . . . .                 + + + + + ! Q + + + + +               . . . . . . .                   ",
"                    . . + + + + + + + + + + + + + + + + :.l <.[.}.G + + + + + + + + + + + + + + + +                     ",
"                    + + + + + + &.|.] 1.2.3.4.K C 5.6.Z 7.& & & & & 8.9.O ^.0.| a.^ b._.|.;.+ + + + +                   ",
"                  + + Y c.5 d.s & & & & & & & & & & & & e.f.g.}.h.i.& & & & & & & & & & & & V j.k.l.= + +               ",
"                + + G m.Z * J 8 n.o.3.p.$.9 9 { / 3.o.e + + + + + + W q.3.p.$.9 9 { / 3.o., !.r.6.[ s.t.+ +             ",
"                + + = ! + + + + + + + + + + + + + + + + + +     + + + + + + + + + + + + + + + + + + + ! + +             ",
"                    + + + + +   . . . . . . . . . . . . . . . . . . . . . . . . . . . .       + + + + + +               ",
"                                    . . . . . . . . . . . . . . . . . . . . . . . .                                     ",
"                                        . . . . . . . . . . . . . . . . . . .                                           ",
"                                                . . . . . . . . . . . .                                                 ",
"                                                                                                                        ",
"                                                                                                                        ",
"                                                                                                                        ",
"                                                                                                                        "};
