/* XPM */
static char *dummy[]={
"60 60 3 1",
". c None",
"a c None",
"# c #d6d6bd",
"............................................................",
"............................................................",
"............................................................",
"............................................................",
"........................############........................",
".....................##################.....................",
"..................########################..................",
"................############################................",
"..............#############......#############..............",
".............###########............###########.............",
"............#########..................#########............",
"...........########.....................#########...........",
"..........#######.........................########..........",
".........########...........................#######.........",
"........########.............................######.........",
"........#######..............................#######........",
".......######.................................#######a......",
".......######..................................######a......",
"......######....................................######a.....",
"......#####......................................#####a.....",
"......#####......................................######a....",
".....#####.......................................######a....",
".....#####........................................#####a....",
".....#####........................................#####a....",
"....#####..........................................#####a...",
"....#####..........................................#####a...",
"....#####..........................................#####a...",
"....####............................................####a...",
"....####............................................####a...",
"....####............................................####a...",
"....####............................................####a...",
"....####............................................####a...",
"....####............................................####a...",
"....#####..........................................#####a...",
"....#####..........................................#####a...",
"....#####..........................................#####a...",
".....#####........................................#####aa...",
".....#####........................................#####a....",
".....#####........................................#####a....",
"......#####......................................######a....",
"......#####......................................#####aa....",
"......######....................................######a.....",
".......######..................................######aa.....",
".......######.................................#######a......",
"........######...............................#######........",
"........########.............................######.........",
".........########...........................#######.........",
"..........########........................########..........",
"...........########.....................#########...........",
"............#########..................#########............",
".............###########............###########.............",
"...............############......#############..............",
"................############################................",
"..................########################..................",
"....................###################.....................",
"........................############........................",
"............................................................",
"............................................................",
"............................................................",
"............................................................"};
