/* XPM */
static char * BlackBishop_xpm[] = {
"60 60 50 1",
" 	c #F7F769",
".	c #000000",
"+	c #898989",
"@	c #B7B7B7",
"#	c #020202",
"$	c #DFDFDF",
"%	c #FFFFFF",
"&	c #1F1F1F",
"*	c #E0E0E0",
"=	c #202020",
"-	c #010101",
";	c #757575",
">	c #A0A0A0",
",	c #F4F4F4",
"'	c #ACACAC",
")	c #959595",
"!	c #0E0E0E",
"~	c #131313",
"{	c #FCFCFC",
"]	c #535353",
"^	c #3C3C3C",
"/	c #606060",
"(	c #ECECEC",
"_	c #747474",
":	c #4B4B4B",
"<	c #DADADA",
"[	c #1E1E1E",
"}	c #515151",
"|	c #7B7B7B",
"1	c #3A3A3A",
"2	c #E9E9E9",
"3	c #F8F8F8",
"4	c #F6F6F6",
"5	c #737373",
"6	c #424242",
"7	c #FEFEFE",
"8	c #777777",
"9	c #040404",
"0	c #080808",
"a	c #060606",
"b	c #5C5C5C",
"c	c #A6A6A6",
"d	c #A8A8A8",
"e	c #767676",
"f	c #B9B9B9",
"g	c #F7F7F7",
"h	c #171717",
"i	c #575757",
"j	c #585858",
"k	c #262626",
"                                                            ",
"                                                            ",
"                                                            ",
"                                                            ",
"                                                            ",
"                                                            ",
"                                                            ",
"                            ....                            ",
"                           ......                           ",
"                          ........                          ",
"                          ........                          ",
"                          ........                          ",
"                          ........                          ",
"                           .......                          ",
"                           ......                           ",
"                          .........                         ",
"                        ............                        ",
"                       ..............                       ",
"                      .................                     ",
"                     ...................                    ",
"                    .........+@#........                    ",
"                   ..........$%&.........                   ",
"                   ..........*%=..........                  ",
"                  .......-;>>,%'>)!.......                  ",
"                  .......~{%%%%%%%].......                  ",
"                  ........^//(%_/:#........                 ",
"                  ...........*%=...........                 ",
"                  ...........<%[...........                 ",
"                  ...........}|-...........                 ",
"                  .........................                 ",
"                  ........................                  ",
"                  ........................                  ",
"                   .......................                  ",
"                    .....................                   ",
"                    ..1233333333333345..                    ",
"                     .6{%%%%%%%%%%%%78.                     ",
"                     ..9000000000000a...                    ",
"                    ....................                    ",
"                    .....................                   ",
"                   bcddddddddddddddddddde                   ",
"                   f%%%%%%%%%%%%%%%%%%%%g                   ",
"                   hijjjjjjjjjjjjjjjjjjjk                   ",
"                   ......................                   ",
"                   ......................                   ",
"                     ...................                    ",
"                       ..............                       ",
"                        .............                       ",
"           ......................................           ",
"         .........................................          ",
"        ............................................        ",
"       ..............................................       ",
"       ......................  ......................       ",
"         ....                                  .....        ",
"                                                            ",
"                                                            ",
"                                                            ",
"                                                            ",
"                                                            ",
"                                                            ",
"                                                            "};
