/* XPM */
static char * BlackPawn_xpm[] = {
"60 60 2 1",
" 	c #F7F769",
".	c #000000",
"                                                            ",
"                                                            ",
"                                                            ",
"                                                            ",
"                                                            ",
"                                                            ",
"                                                            ",
"                                                            ",
"                                                            ",
"                                                            ",
"                            .......                         ",
"                           .........                        ",
"                          ...........                       ",
"                         ............                       ",
"                         ............                       ",
"                         .............                      ",
"                         .............                      ",
"                         ............                       ",
"                          ...........                       ",
"                         .............                      ",
"                        ...............                     ",
"                       .................                    ",
"                       .................                    ",
"                      ..................                    ",
"                      ...................                   ",
"                      ...................                   ",
"                      ...................                   ",
"                      ...................                   ",
"                      ...................                   ",
"                      ..................                    ",
"                       .................                    ",
"                       ................                     ",
"                        ...............                     ",
"                       ................                     ",
"                      ...................                   ",
"                     .....................                  ",
"                    .......................                 ",
"                   ........................                 ",
"                  ..........................                ",
"                  ...........................               ",
"                  ...........................               ",
"                 .............................              ",
"                 .............................              ",
"                ..............................              ",
"                ...............................             ",
"                ...............................             ",
"               ................................             ",
"               ................................             ",
"               ................................             ",
"               .................................            ",
"               .................................            ",
"               .................................            ",
"                                                            ",
"                                                            ",
"                                                            ",
"                                                            ",
"                                                            ",
"                                                            ",
"                                                            ",
"                                                            "};
