/* XPM */
static char * WhiteKnight_xpm[] = {
"60 60 136 2",
"  	c #3EA937",
". 	c #000000",
"+ 	c #4B4B4B",
"@ 	c #919191",
"# 	c #2F2F2F",
"$ 	c #C5C5C5",
"% 	c #8C8C8C",
"& 	c #FFFFFF",
"* 	c #4D4D4D",
"= 	c #747474",
"- 	c #D2D2D2",
"; 	c #070707",
"> 	c #2E2E2E",
", 	c #FDFDFD",
"' 	c #6C6C6C",
") 	c #5E5E5E",
"! 	c #D1D1D1",
"~ 	c #888888",
"{ 	c #878787",
"] 	c #8E8E8E",
"^ 	c #EDEDED",
"/ 	c #EBEBEB",
"( 	c #838383",
"_ 	c #535353",
": 	c #232323",
"< 	c #010101",
"[ 	c #A6A6A6",
"} 	c #F2F2F2",
"| 	c #C4C4C4",
"1 	c #828282",
"2 	c #1C1C1C",
"3 	c #181818",
"4 	c #F3F3F3",
"5 	c #FCFCFC",
"6 	c #AEAEAE",
"7 	c #444444",
"8 	c #A5A5A5",
"9 	c #BFBFBF",
"0 	c #1A1A1A",
"a 	c #686868",
"b 	c #DFDFDF",
"c 	c #4A4A4A",
"d 	c #373737",
"e 	c #FBFBFB",
"f 	c #6B6B6B",
"g 	c #B0B0B0",
"h 	c #FEFEFE",
"i 	c #898989",
"j 	c #C9C9C9",
"k 	c #E2E2E2",
"l 	c #727272",
"m 	c #5C5C5C",
"n 	c #929292",
"o 	c #404040",
"p 	c #090909",
"q 	c #E3E3E3",
"r 	c #797979",
"s 	c #2C2C2C",
"t 	c #E4E4E4",
"u 	c #EAEAEA",
"v 	c #7F7F7F",
"w 	c #E5E5E5",
"x 	c #F0F0F0",
"y 	c #737373",
"z 	c #6A6A6A",
"A 	c #C0C0C0",
"B 	c #1B1B1B",
"C 	c #F5F5F5",
"D 	c #040404",
"E 	c #030303",
"F 	c #3D3D3D",
"G 	c #A2A2A2",
"H 	c #D4D4D4",
"I 	c #191919",
"J 	c #B3B3B3",
"K 	c #313131",
"L 	c #676767",
"M 	c #2A2A2A",
"N 	c #9D9D9D",
"O 	c #9F9F9F",
"P 	c #050505",
"Q 	c #FAFAFA",
"R 	c #121212",
"S 	c #B9B9B9",
"T 	c #DADADA",
"U 	c #515151",
"V 	c #3C3C3C",
"W 	c #939393",
"X 	c #BCBCBC",
"Y 	c #9A9A9A",
"Z 	c #CECECE",
"` 	c #C7C7C7",
" .	c #F8F8F8",
"..	c #636363",
"+.	c #5B5B5B",
"@.	c #171717",
"#.	c #707070",
"$.	c #A8A8A8",
"%.	c #353535",
"&.	c #8A8A8A",
"*.	c #585858",
"=.	c #BDBDBD",
"-.	c #141414",
";.	c #989898",
">.	c #CDCDCD",
",.	c #8F8F8F",
"'.	c #F6F6F6",
").	c #0C0C0C",
"!.	c #A1A1A1",
"~.	c #9B9B9B",
"{.	c #767676",
"].	c #DDDDDD",
"^.	c #525252",
"/.	c #5A5A5A",
"(.	c #0B0B0B",
"_.	c #F9F9F9",
":.	c #0E0E0E",
"<.	c #DCDCDC",
"[.	c #757575",
"}.	c #282828",
"|.	c #303030",
"1.	c #ACACAC",
"2.	c #020202",
"3.	c #323232",
"4.	c #363636",
"5.	c #545454",
"6.	c #B2B2B2",
"7.	c #979797",
"8.	c #595959",
"9.	c #9E9E9E",
"0.	c #D9D9D9",
"a.	c #A9A9A9",
"b.	c #B8B8B8",
"c.	c #ADADAD",
"d.	c #1F1F1F",
"e.	c #151515",
"                                                                                                                        ",
"                                                                                                                        ",
"                                                                                                                        ",
"                                                                                                                        ",
"                                                                                                                        ",
"                                                                                                                        ",
"                                                                                                                        ",
"                                                                                                                        ",
"                                      . .               . . .                                                           ",
"                                    . . . .           . . . .                                                           ",
"                                    . . + . .       . . @ # .                                                           ",
"                                    . . $ # . . . . . % & * . .                                                         ",
"                                    . . = - ; . . . > , & ' . . . . . .                                                 ",
"                                      . ) & ! ~ { ] ^ & & / ( _ : < . . . .                                             ",
"                                    . . [ & & & & & & & & & & & & } | 1 2 . . . .                                       ",
"                                    . 3 4 & & & & & & & & & & & & & & & 5 6 7 < . .                                     ",
"                                  . . 8 & & & & & & & & & & & & & & & & & & & 9 0 . .                                   ",
"                                . . a & { > b & & & & & & & & & & & & & & & & & / c . .                                 ",
"                                . d e f . . g & & & & & & & & & & & & & & & & & & h i . .                               ",
"                              . < j j . . . k & & & & & & & & & & & & & & & & & & & & l . .                             ",
"                            . . m & n . . > & & & & & & & & & & & & & & & & & & & & & e o . .                           ",
"                            . p q & r . s t & & & & & & & & & & & & & & & & & & & & & & u 2 . .                         ",
"                          . . v & & w n x & & & & & & & & & & & y z & & & & & & & & & & & A . .                         ",
"                          . B C & & & & & & & & & & & & & & & , D E h & & & & & & & & & & & F .                         ",
"                        . . G & & & & & & & & & & & & & & & & H . I & & & & & & & & & & & & J . .                       ",
"                        . K h & & & & & & & & & & & & & & & & m . L & & & & & & & & & & & & h M .                       ",
"                      . . J & & & & & & & & & & & & & & & & N . < b & & & & & & & & & & & & & O . .                     ",
"                      . d & & & & & & & & & & & & & & & & 9 P . p & & & & & & & & & & & & & & Q R .                     ",
"                    . . S & & & & & & & & & & & & & & & T R . . E & & & & & & & & & & & & & & & U .                     ",
"                    . V & & & & & & & & & & & & & & & j B . . . D , & & & & & & & & & & & & & & W . .                   ",
"                  . . X & & & & & & & & & & & & & & Y ; . .   . s & & & & & & & & & & & & & & & H . .                   ",
"                  . 2 h Z ` & & & & & & & & & &  .... . .     . +.& & & & & & & & & & & & & & & & @..                   ",
"                . . #.$ < . $.& & & & & & & & k %.. .       . . &.& & & & & & & & & & & & & & & & *..                   ",
"                . . | J . . W & & & & & & & =.-.. .         . . S & & & & & & & & & & & & & & & & ;.. .                 ",
"                . . >.5 ,.{ '.& & & & & & @ E . .           . ).x & & & & & & & & & & & & & & & & 9 . .                 ",
"                . . !.& & & ^ ~.Z & & h l . . .           . . {.& & & & & & & & & & & & & & & & & ].. .                 ",
"                  . = & & & ^.. ; } h /.. .               . (.u & & & & & & & & & & & & & & & & & _.< .                 ",
"                  . :.$ & & : . . <.( . .               . . [.& & & & & & & & & & & & & & & & & & & 3 .                 ",
"                  . . D }.|.. . d 1.2..               . . 3.C & & & & & & & & & & & & & & & & & & & 4..                 ",
"                    . . . . . . : P .               . . I q & & & & & & & & & & & & & & & & & & & & 5..                 ",
"                              . . . .             . . (.j & & & & & & & & & & & & & & & & & & & & & l .                 ",
"                                                . . ; X & & & & & & & & & & & & & & & & & & & & & & % . .               ",
"                                                . D 6.& & & & & & & & & & & & & & & & & & & & & & & W . .               ",
"                                              . 2.$.& & & & & & & & & & & & & & & & & & & & & & & & 7.. .               ",
"                                            . < N & & & & & & & & & & & & & & & & & & & & & & & & & Y . .               ",
"                                          . . 8.& & & & & & & & & & & & & & & & & & & & & & & & & & 9.. .               ",
"                                          . E 0.& & & & & & & & & & & & & & & & & & & & & & & & & & G . .               ",
"                                          . 8.& & & & & & & & & & & & & & & & & & & & & & & & & & & [ . .               ",
"                                        . . @ & & & & & & & & & & & & & & & & & & & & & & & & & & & a.. .               ",
"                                        . . b.& & & & & & & & & & & & & & & & & & & & & & & & & & & c.. .               ",
"                                        . . I d.d.d.d.d.d.d.d.d.d.d.d.d.d.d.d.d.d.d.d.d.d.d.d.d.d.d.e.. .               ",
"                                        . . . . . . . . . . . . . . . . . . . . . . . . . . . . . . . . .               ",
"                                                                                                                        ",
"                                                                                                                        ",
"                                                                                                                        ",
"                                                                                                                        ",
"                                                                                                                        ",
"                                                                                                                        ",
"                                                                                                                        ",
"                                                                                                                        "};
