/* XPM */
static char * WhiteQueen_xpm[] = {
"60 60 193 2",
"  	c #3EA937",
". 	c #000000",
"+ 	c #050505",
"@ 	c #B2B2B2",
"# 	c #F3F3F3",
"$ 	c #5E5E5E",
"% 	c #0E0E0E",
"& 	c #8A8A8A",
"* 	c #898989",
"= 	c #0B0B0B",
"- 	c #242424",
"; 	c #FFFFFF",
"> 	c #C4C4C4",
", 	c #717171",
"' 	c #696969",
") 	c #ABABAB",
"! 	c #EEEEEE",
"~ 	c #5A5A5A",
"{ 	c #656565",
"] 	c #F4F4F4",
"^ 	c #4A4A4A",
"/ 	c #434343",
"( 	c #010101",
"_ 	c #CCCCCC",
": 	c #1C1C1C",
"< 	c #202020",
"[ 	c #606060",
"} 	c #EFEFEF",
"| 	c #A4A4A4",
"1 	c #020202",
"2 	c #7F7F7F",
"3 	c #474747",
"4 	c #222222",
"5 	c #C3C3C3",
"6 	c #1F1F1F",
"7 	c #565656",
"8 	c #838383",
"9 	c #FAFAFA",
"0 	c #151515",
"a 	c #2A2A2A",
"b 	c #454545",
"c 	c #A7A7A7",
"d 	c #737373",
"e 	c #BCBCBC",
"f 	c #5D5D5D",
"g 	c #ADADAD",
"h 	c #4D4D4D",
"i 	c #090909",
"j 	c #D7D7D7",
"k 	c #919191",
"l 	c #1A1A1A",
"m 	c #FBFBFB",
"n 	c #3E3E3E",
"o 	c #171717",
"p 	c #464646",
"q 	c #888888",
"r 	c #3B3B3B",
"s 	c #7E7E7E",
"t 	c #070707",
"u 	c #C6C6C6",
"v 	c #1B1B1B",
"w 	c #2F2F2F",
"x 	c #9F9F9F",
"y 	c #555555",
"z 	c #F5F5F5",
"A 	c #030303",
"B 	c #E3E3E3",
"C 	c #C2C2C2",
"D 	c #CBCBCB",
"E 	c #2B2B2B",
"F 	c #4E4E4E",
"G 	c #2C2C2C",
"H 	c #979797",
"I 	c #C5C5C5",
"J 	c #676767",
"K 	c #BBBBBB",
"L 	c #5F5F5F",
"M 	c #B6B6B6",
"N 	c #C7C7C7",
"O 	c #6C6C6C",
"P 	c #9A9A9A",
"Q 	c #929292",
"R 	c #212121",
"S 	c #FDFDFD",
"T 	c #414141",
"U 	c #6F6F6F",
"V 	c #878787",
"W 	c #1D1D1D",
"X 	c #F2F2F2",
"Y 	c #161616",
"Z 	c #444444",
"` 	c #939393",
" .	c #545454",
"..	c #E9E9E9",
"+.	c #B3B3B3",
"@.	c #EBEBEB",
"#.	c #191919",
"$.	c #EAEAEA",
"%.	c #121212",
"&.	c #F8F8F8",
"*.	c #E6E6E6",
"=.	c #040404",
"-.	c #505050",
";.	c #909090",
">.	c #818181",
",.	c #767676",
"'.	c #787878",
").	c #141414",
"!.	c #373737",
"~.	c #D9D9D9",
"{.	c #EDEDED",
"].	c #C0C0C0",
"^.	c #E4E4E4",
"/.	c #8D8D8D",
"(.	c #626262",
"_.	c #5C5C5C",
":.	c #8C8C8C",
"<.	c #0F0F0F",
"[.	c #252525",
"}.	c #3A3A3A",
"|.	c #4F4F4F",
"1.	c #4B4B4B",
"2.	c #363636",
"3.	c #7D7D7D",
"4.	c #E2E2E2",
"5.	c #D5D5D5",
"6.	c #B4B4B4",
"7.	c #2E2E2E",
"8.	c #0D0D0D",
"9.	c #FEFEFE",
"0.	c #DADADA",
"a.	c #7C7C7C",
"b.	c #A9A9A9",
"c.	c #DDDDDD",
"d.	c #C1C1C1",
"e.	c #B8B8B8",
"f.	c #B1B1B1",
"g.	c #AAAAAA",
"h.	c #A2A2A2",
"i.	c #9B9B9B",
"j.	c #949494",
"k.	c #858585",
"l.	c #8F8F8F",
"m.	c #9E9E9E",
"n.	c #A5A5A5",
"o.	c #ACACAC",
"p.	c #C9C9C9",
"q.	c #060606",
"r.	c #3F3F3F",
"s.	c #1E1E1E",
"t.	c #0A0A0A",
"u.	c #353535",
"v.	c #646464",
"w.	c #6B6B6B",
"x.	c #727272",
"y.	c #7A7A7A",
"z.	c #777777",
"A.	c #707070",
"B.	c #686868",
"C.	c #616161",
"D.	c #525252",
"E.	c #383838",
"F.	c #181818",
"G.	c #DEDEDE",
"H.	c #F6F6F6",
"I.	c #282828",
"J.	c #E5E5E5",
"K.	c #C8C8C8",
"L.	c #8E8E8E",
"M.	c #515151",
"N.	c #484848",
"O.	c #404040",
"P.	c #323232",
"Q.	c #4C4C4C",
"R.	c #666666",
"S.	c #7B7B7B",
"T.	c #989898",
"U.	c #B5B5B5",
"V.	c #D2D2D2",
"W.	c #101010",
"X.	c #BFBFBF",
"Y.	c #D1D1D1",
"Z.	c #CDCDCD",
"`.	c #A1A1A1",
" +	c #272727",
".+	c #AEAEAE",
"++	c #262626",
"@+	c #999999",
"#+	c #B9B9B9",
"$+	c #BEBEBE",
"%+	c #A6A6A6",
"&+	c #969696",
"*+	c #8B8B8B",
"                                                                                                                        ",
"                                                                                                                        ",
"                                                                                                                        ",
"                                                                                                                        ",
"                                                                                                                        ",
"                                                                                                                        ",
"                                                                                                                        ",
"                                                          . . .                                                         ",
"                                    . .               . . . + . .                                                       ",
"                                . . . . . .           . . @ # $ . .             . . .                                   ",
"                                . % & * = .           . - ; ; > . .           . . + . . .                               ",
"                              . . , ; ; ' . .         . . ) ! ~ . .         . . { ] ) . .                               ",
"                                . ^ ; ; / .           . . . ( . .           . . _ ; ; : .                               ",
"              . . .             . . < < . .               . . .             . . [ } | . .             . . .             ",
"          . . . + . .             . . . .                 . . .               . . ( . . .         . . . + . .           ",
"          . . @ # $ . .             . .                   . . .                 . . .             . . @ # $ . .         ",
"          . - ; ; > . .             . . .                 . . .                 . . .             . - ; ; > . .         ",
"          . . ) ! ~ . .             . . .               . . . .                 . . .             . . ) ! ~ . .         ",
"          . . . 1 . .               . . . .             . . : .               . . . .             . . . 1 . .           ",
"              . . . .               . . 1 .             . . 2 . .             . . . .               . . . .             ",
"                  . . .             . . 3 .             . 4 5 . .           . . 6 . .             . . .                 ",
"                  . . .             . . ) . .           . 7 ] 1 .           . ( 8 . .           . . . .                 ",
"                  . . . .           . . 9 0 .         . . * ; a .           . b c . .           . . .                   ",
"                  . . 1 . .         . . ; d . .       . . e ; f .         . . g c . .         . . 1 .                   ",
"                    . h i .         . . ; j . .       . . ! ; k . .       . l m c . .       . . n o .                   ",
"                    . p q . .       . . ; ; r .       . 4 ; ; > . .     . . s ; c . .       . t u . .                   ",
"                    . v m w . .     . . ; ; x . .     . y ; ; z A .     . A B ; c . .     . . 8 C . .                   ",
"                    . . } D A .     . . ; ; z % .   . . q ; ; ; E .     . F ; ; c . .   . . G 9 H . .                   ",
"                    . . I ; , . .   . . ; ; ; J . . . . K ; ; ; L .   . . M ; ; c . .   . 1 N ; O .                     ",
"                    . . P ; ] 6 .   . . ; ; ; D . . . . ! ; ; ; Q . . . R S ; ; c . . . . O ; ; T .                     ",
"                      . U ; ; M . . . . ; ; ; ; w . . R ; ; ; ; I . . . V ; ; ; c . . . W X ; ; Y .                     ",
"                      . Z ; ; ; ~ . . . ; ; ; ; ` . .  .; ; ; ; z A . + ..; ; ; c . . . +.; ; @.. .                     ",
"                      . #.; ; ; $.%.. . ; ; &.*.I =.. -.;.>.,.'.8 ).. !.u ~.{.m c . . 7 ; ; ; ].. .                     ",
"                      . . ^.]./.(.6 . . =.. . . . . . . . . . . . . . . . . . . . . . E _.:.I ;.. .                     ",
"                      . . . . . . . . . . . + <.l [.w }.b |.y 1.T 2.E R Y = 1 . . . . . . . . . .                       ",
"                      . . ( #.}._.3.x ].4.9 ; ; ; ; ; ; ; ; ; ; ; ; ; ; ; ; ; ] 5.6.Q , |.7.8.. .                       ",
"                        . / 9.; ; ; ; ; ; ; ; ; ; ; ; ; ; ; ; ; ; ; ; ; ; ; ; ; ; ; ; ; ; ; 0.t .                       ",
"                        . . a.; ; ; ; ; ; ; ; ; ; ; ; ; ; ; ; ; ; ; ; ; ; ; ; ; ; ; ; ; ; X E . .                       ",
"                          . . b.; ; ; m c.d.e.f.g.h.i.j./.k.>.q l.H m.n.o.6.K p...; ; ; 9.-.. .                         ",
"                            . q.F r.s.A . . . . . . . . . . . . . . . . . . . . . t.a 1.u.. .                           ",
"                            . . . . . A s.r p F y _.v.w.x.y.s z.A.B.C.~ D.1.Z E.F.. . . . .                             ",
"                              . . x.G.m ; ; ; ; ; ; ; ; ; ; ; ; ; ; ; ; ; ; ; ; ; H.5.I.. .                             ",
"                                . D.; ; ; ; ; ; ; ; ; ; ; ; ; ; ; ; ; ; ; ; ; ; ; ; X . .                               ",
"                                . O J.K.) L.x.(.~ M.N.O.!.7.a P.}./ Q. .f R.S.T.U.V.} W..                               ",
"                              . . A . . . . . . . . . . . . . . . . . . . . . . . . . A .                               ",
"                              . . . ).P.|.O & i.| g M X.K.Y.5.Z.> e +.g.`.H 2 (.Z  +t.. . .                             ",
"                            . A ;.H.; ; ; ; ; ; ; ; ; ; ; ; ; ; ; ; ; ; ; ; ; ; ; ; ; *.r . .                           ",
"                            . L ; ; ; ; ; ; ; ; ; ; ; ; ; ; ; ; ; ; ; ; ; ; ; ; ; ; ; ; o.. .                           ",
"                          . . .+; ; ; ; ; ; ; ; ; ; ; ; ; ; ; ; ; ; ; ; ; ; ; ; ; ; ; ; U.. .                           ",
"                          . 6 &.; ; ; ; ; ; ; ; ; ; ; ; ; ; ; ; ; ; ; ; ; ; ; ; ; ; ; ; &.++.                           ",
"                          . : Z.z ; ; ; ; ; ; ; ; ; ; ; ; ; ; ; ; ; ; ; ; ; ; ; ; ; ; 9... ..                           ",
"                          . . . . W.E p C.S.k @+`.b.f.#+d.p.Z.u $+M .+%+m.&+*+x.7 r < q.. . .                           ",
"                            . . . . . . . . . . . . . . . . . . . . . . . . . . . . . . . .                             ",
"                                            . . . . . . . . . . . . . . . . .                                           ",
"                                                                                                                        ",
"                                                                                                                        ",
"                                                                                                                        ",
"                                                                                                                        ",
"                                                                                                                        ",
"                                                                                                                        "};
