/* XPM */
static char * WhiteKing_xpm[] = {
"60 60 196 2",
"  	c #3EA937",
". 	c #000000",
"+ 	c #212121",
"@ 	c #707070",
"# 	c #4B4B4B",
"$ 	c #020202",
"% 	c #414141",
"& 	c #F3F3F3",
"* 	c #FFFFFF",
"= 	c #AAAAAA",
"- 	c #0C0C0C",
"; 	c #E4E4E4",
"> 	c #686868",
", 	c #6E6E6E",
"' 	c #DEDEDE",
") 	c #A4A4A4",
"! 	c #141414",
"~ 	c #171717",
"{ 	c #424242",
"] 	c #353535",
"^ 	c #131313",
"/ 	c #9A9A9A",
"( 	c #090909",
"_ 	c #050505",
": 	c #242424",
"< 	c #444444",
"[ 	c #323232",
"} 	c #0A0A0A",
"| 	c #767676",
"1 	c #E8E8E8",
"2 	c #E9E9E9",
"3 	c #8C8C8C",
"4 	c #262626",
"5 	c #EBEBEB",
"6 	c #040404",
"7 	c #555555",
"8 	c #C0C0C0",
"9 	c #FDFDFD",
"0 	c #FEFEFE",
"a 	c #D8D8D8",
"b 	c #5C5C5C",
"c 	c #010101",
"d 	c #181818",
"e 	c #D4D4D4",
"f 	c #B2B2B2",
"g 	c #1A1A1A",
"h 	c #282828",
"i 	c #A1A1A1",
"j 	c #545454",
"k 	c #E5E5E5",
"l 	c #C9C9C9",
"m 	c #B7B7B7",
"n 	c #EDEDED",
"o 	c #DBDBDB",
"p 	c #6D6D6D",
"q 	c #898989",
"r 	c #CDCDCD",
"s 	c #C5C5C5",
"t 	c #070707",
"u 	c #E2E2E2",
"v 	c #7D7D7D",
"w 	c #BBBBBB",
"x 	c #BABABA",
"y 	c #525252",
"z 	c #2B2B2B",
"A 	c #6F6F6F",
"B 	c #2D2D2D",
"C 	c #787878",
"D 	c #999999",
"E 	c #656565",
"F 	c #363636",
"G 	c #3B3B3B",
"H 	c #191919",
"I 	c #F7F7F7",
"J 	c #CCCCCC",
"K 	c #595959",
"L 	c #CBCBCB",
"M 	c #8D8D8D",
"N 	c #B0B0B0",
"O 	c #3F3F3F",
"P 	c #666666",
"Q 	c #F5F5F5",
"R 	c #888888",
"S 	c #030303",
"T 	c #E1E1E1",
"U 	c #474747",
"V 	c #FBFBFB",
"W 	c #222222",
"X 	c #717171",
"Y 	c #9D9D9D",
"Z 	c #BEBEBE",
"` 	c #D2D2D2",
" .	c #0E0E0E",
"..	c #161616",
"+.	c #D5D5D5",
"@.	c #1E1E1E",
"#.	c #B5B5B5",
"$.	c #F9F9F9",
"%.	c #C8C8C8",
"&.	c #AEAEAE",
"*.	c #959595",
"=.	c #636363",
"-.	c #313131",
";.	c #ABABAB",
">.	c #C4C4C4",
",.	c #C7C7C7",
"'.	c #F2F2F2",
").	c #B1B1B1",
"!.	c #6A6A6A",
"~.	c #2F2F2F",
"{.	c #111111",
"].	c #A9A9A9",
"^.	c #ECECEC",
"/.	c #060606",
"(.	c #464646",
"_.	c #D7D7D7",
":.	c #1D1D1D",
"<.	c #4F4F4F",
"[.	c #818181",
"}.	c #848484",
"|.	c #6B6B6B",
"1.	c #393939",
"2.	c #1F1F1F",
"3.	c #A5A5A5",
"4.	c #FAFAFA",
"5.	c #F0F0F0",
"6.	c #646464",
"7.	c #3A3A3A",
"8.	c #C6C6C6",
"9.	c #EAEAEA",
"0.	c #8A8A8A",
"a.	c #434343",
"b.	c #121212",
"c.	c #1C1C1C",
"d.	c #F4F4F4",
"e.	c #979797",
"f.	c #292929",
"g.	c #BCBCBC",
"h.	c #A2A2A2",
"i.	c #565656",
"j.	c #3D3D3D",
"k.	c #232323",
"l.	c #535353",
"m.	c #6C6C6C",
"n.	c #868686",
"o.	c #9F9F9F",
"p.	c #B9B9B9",
"q.	c #D3D3D3",
"r.	c #FCFCFC",
"s.	c #0B0B0B",
"t.	c #EFEFEF",
"u.	c #0F0F0F",
"v.	c #515151",
"w.	c #E3E3E3",
"x.	c #5B5B5B",
"y.	c #757575",
"z.	c #8E8E8E",
"A.	c #A7A7A7",
"B.	c #D9D9D9",
"C.	c #DCDCDC",
"D.	c #C3C3C3",
"E.	c #919191",
"F.	c #777777",
"G.	c #5E5E5E",
"H.	c #454545",
"I.	c #484848",
"J.	c #929292",
"K.	c #9B9B9B",
"L.	c #DFDFDF",
"M.	c #D1D1D1",
"N.	c #808080",
"O.	c #C2C2C2",
"P.	c #878787",
"Q.	c #202020",
"R.	c #696969",
"S.	c #838383",
"T.	c #E7E7E7",
"U.	c #9C9C9C",
"V.	c #0D0D0D",
"W.	c #343434",
"X.	c #1B1B1B",
"Y.	c #939393",
"Z.	c #F1F1F1",
"`.	c #B4B4B4",
" +	c #E6E6E6",
".+	c #CFCFCF",
"++	c #B6B6B6",
"@+	c #7C7C7C",
"#+	c #A8A8A8",
"$+	c #606060",
"%+	c #C1C1C1",
"&+	c #575757",
"*+	c #DDDDDD",
"=+	c #A6A6A6",
"-+	c #616161",
";+	c #373737",
"                                                                                                                        ",
"                                                                                                                        ",
"                                                                                                                        ",
"                                                                                                                        ",
"                                                                                                                        ",
"                                                                                                                        ",
"                                                                                                                        ",
"                                                            . .                                                         ",
"                                                            . .                                                         ",
"                                                      . . . . . . . .                                                   ",
"                                                      . . . . . . . .                                                   ",
"                                                            . .                                                         ",
"                                                            . .                                                         ",
"                                                            . .                                                         ",
"                                                            . .                                                         ",
"                                                        . . . . .                                                       ",
"                                                      . . + @ # $ .                                                     ",
"                                                    . . % & * * = $ .                                                   ",
"                                                    . - ; * * * * > . .                                                 ",
"                                                    . , * * * * * ' . .                                                 ",
"                          . . . . . . . .         . . ) * * * * * * ! .       . . . . . . . . .                         ",
"                      . . . . ~ { ] ^ . . . .     . . / * * * * * * ( .   . . . . _ : < [ } . . . .                     ",
"                    . . _ | 1 * * * * 2 3 4 . . . . . | * * * * * 5 . . . . 6 7 8 9 * * * 0 a b c . .                   ",
"                    . d e * * * * * * * * * f g . . . h * * * * * i . . . j k * * * * * * * * * l : . .                 ",
"                  . c m * * * * * * * * * * * n 7 . . . a * * * * + . ( / * * * * * * * * * * * * o ! . .               ",
"                . . p * * * * * * * * * * * * * * q . . b * * * q . } r * * * * * * * * * * * * * * s t .               ",
"                . . u * * * * * * * * * * * * * * * v . $ w * x $ . = * * * * * * * * * * * * * * * * y .               ",
"                . z * * * * * * * * * * * * * * * * * A . ~ & B . C * * * * * * * * * * * * * * * * * D . .             ",
"                . E * * * * * * * * * * * * * * * * * 0 F . G . H I * * * * * * * * * * * * * * * * * J . .             ",
"                . K * * * * * * * * * * * * * * * * * * L $ . . M * * * * * * * * * * * * * * * * * * N . .             ",
"                . O * * * * * * * * * * * * * * * * * * * P . ! Q * * * * * * * * * * * * * * * * * * R . .             ",
"                . S T * * * * * * * * * * * * * * * * * * m . U * * * * * * * * * * * * * * * * * * V W .               ",
"                . . X * * * * * * * * * * * * * * * * * * m . U * * * * * * * * * * * * * * * * * * Y . .               ",
"                  . S Z * * * * * * * * * * * * * * * * * m . U * * * * * * * * * * * * * * * * * `  ..                 ",
"                  . . ..+.* * * * * * * * * * * * * * * * m . U * * * * * * * * * * * * * * * * ; @.. .                 ",
"                    . .  .#.* * * * * * * * * * $.T %.&.*.=.. -.;.>.' I * * * * * * * * * * * ,.g . .                   ",
"                      . . $ 3 * * * * '.).!.~.! c . . . . . . . . . . . {.z =.].^.* * * * * / /.. .                     ",
"                          . . (._.).< _ . . . . _ :.F <.> [.}.|.y 1.2.t . . . . $ G 3.4.5.6.. . .                       ",
"                            . . 6 . . S 7.[.8.9.0 * * * * * * * * * * * n J 0.a.t . . b.- . .                           ",
"                              . . c.0.n * * * * * * * * * * * * * * * * * * * * d.e.f.. . .                             ",
"                              . . ^.* * * 0 _.g.h.q @ i.j.k.+ 7.l.m.n.o.p.q.r.* * * 0 s..                               ",
"                              . . t.9.o.K ! . . . . . . . . . . . . . . . . u.v.e.w.* u..                               ",
"                              . . x.t . . . @.{ b y.z.A.8 B.C.D.= E.F.G.H.: . . . 6 7 - .                               ",
"                              . . . $ I.J.B.* * * * * * * * * * * * * * * * u K.l.t . . .                               ",
"                              . . |.L.* * * * * * * * * n q.M.9.0 * * * * * * * * 1 N.c .                               ",
"                              . . t.* * V O.P.m.y 1.Q.t . . . . _ c.F <.R.S.w I * * * u..                               ",
"                              . . T.U.<.V.. . . . . . $ d -.W.X.6 . . . . . . ( U Y.Z.u..                               ",
"                              . . b.. . c -.| / `.r  +r.* * * * 9 2 .+++Y @+7.S . . - /..                               ",
"                              . . . B Y 1 * * * * * * * * * * * * * * * * * * t.#+G . . .                               ",
"                              . . . _ $+++$.* * * * * * * * * * * * * * * * 9 %+m.s.. . .                               ",
"                                  . . . .  .&+}.h.8 *+$.* * * * V T D.=+R -+... . . .                                   ",
"                                        . . . . . . . c H ;+7.:.S . . . . . . . .                                       ",
"                                              . . . . . . . . . . . . . .                                               ",
"                                                                                                                        ",
"                                                                                                                        ",
"                                                                                                                        ",
"                                                                                                                        ",
"                                                                                                                        ",
"                                                                                                                        ",
"                                                                                                                        "};
