/* XPM */
static char * whitepoint_xpm[] = {
"60 60 5 1",
" 	c #FFFFFF",
".	c #F2F2E9",
"+	c #E1E1CE",
"@	c #D6D6BD",
"#	c #FBFBF8",
"                                                            ",
"                                                            ",
"                                                            ",
"                                                            ",
"                                                            ",
"                                                            ",
"                                                            ",
"                                                            ",
"                                                            ",
"                                                            ",
"                                                            ",
"                                                            ",
"                                                            ",
"                                                            ",
"                                                            ",
"                                                            ",
"                                                            ",
"                                                            ",
"                           .+@@+.                           ",
"                        #@@@@@@@@@@#                        ",
"                       @@@@@@@@@@@@@@                       ",
"                      @@@@@@@@@@@@@@@@                      ",
"                     @@@@@@@@@@@@@@@@@@                     ",
"                    @@@@@@@@@@@@@@@@@@@@                    ",
"                   #@@@@@@@@@@@@@@@@@@@@#                   ",
"                   @@@@@@@@@@@@@@@@@@@@@@                   ",
"                   @@@@@@@@@@@@@@@@@@@@@@                   ",
"                  .@@@@@@@@@@@@@@@@@@@@@@.                  ",
"                  +@@@@@@@@@@@@@@@@@@@@@@+                  ",
"                  @@@@@@@@@@@@@@@@@@@@@@@@                  ",
"                  @@@@@@@@@@@@@@@@@@@@@@@@                  ",
"                  +@@@@@@@@@@@@@@@@@@@@@@+                  ",
"                  .@@@@@@@@@@@@@@@@@@@@@@.                  ",
"                   @@@@@@@@@@@@@@@@@@@@@@                   ",
"                   @@@@@@@@@@@@@@@@@@@@@@                   ",
"                   #@@@@@@@@@@@@@@@@@@@@#                   ",
"                    @@@@@@@@@@@@@@@@@@@@                    ",
"                     @@@@@@@@@@@@@@@@@@                     ",
"                      @@@@@@@@@@@@@@@@                      ",
"                       @@@@@@@@@@@@@@                       ",
"                        #@@@@@@@@@@#                        ",
"                           .+@@+.                           ",
"                                                            ",
"                                                            ",
"                                                            ",
"                                                            ",
"                                                            ",
"                                                            ",
"                                                            ",
"                                                            ",
"                                                            ",
"                                                            ",
"                                                            ",
"                                                            ",
"                                                            ",
"                                                            ",
"                                                            ",
"                                                            ",
"                                                            ",
"                                                            "};
